{
.appVersion = "3148";
.formatVersion = 3;
DisplayStrings = (
"घ",
"क",
"/candraBindu-deva.imatra",
"ँ",
"/anusvara-deva.imatra",
"ॅ",
"/rakar-deva",
"¨",
"/ch-deva",
"/brevecomb_acutecomb",
"Ľľťऄऎऒॊॹ/t_n_ya-deva/f-deva",
"/sha-deva.loclMAR",
"झ",
"ङ",
"/j-deva/z-deva",
"/l-deva.loclMAR",
"ल",
"/t_ra-deva",
"/oldt_rakar-deva",
"ऀ",
"/rakar_ra-deva",
"ॕ",
"०",
"/rakar_uMatra-deva"
);
axes = (
{
name = Weight;
tag = wght;
}
);
classes = (
{
automatic = 1;
code = "iMatra-deva iMatra-deva.0 iMatra-deva.01 iMatra-deva.02 iMatra-deva.03 iMatra-deva.05 iMatra-deva.08 iMatra-deva.10 iMatra-deva.15 iMatra-deva.20 iMatra-deva.25 iMatra-deva.30 iMatra-deva.35";
name = DevaIMatras;
},
{
automatic = 1;
code = "iMatra_reph-deva iMatra_reph-deva.0 iMatra_reph-deva.01 iMatra_reph-deva.02 iMatra_reph-deva.03 iMatra_reph-deva.05 iMatra_reph-deva.08 iMatra_reph-deva.10 iMatra_reph-deva.15 iMatra_reph-deva.20 iMatra_reph-deva.25 iMatra_reph-deva.30 iMatra_reph-deva.35";
name = DevaIMatraRephs;
},
{
automatic = 1;
code = "iMatra_reph_anusvara-deva iMatra_reph_anusvara-deva.0 iMatra_reph_anusvara-deva.01 iMatra_reph_anusvara-deva.02 iMatra_reph_anusvara-deva.03 iMatra_reph_anusvara-deva.05 iMatra_reph_anusvara-deva.08 iMatra_reph_anusvara-deva.10 iMatra_reph_anusvara-deva.15 iMatra_reph_anusvara-deva.20 iMatra_reph_anusvara-deva.25 iMatra_reph_anusvara-deva.30 iMatra_reph_anusvara-deva.35";
name = DevaIMatraRephAnusvaras;
},
{
automatic = 1;

glyphs = (
{
glyphname = A;
lastChange = "2021-08-22 03:02:32 +0000";
layers = (
{
anchors = (
{
name = btm;
pos = (590,-297);
},
{
name = top;
pos = (598,1515);
}
);
layerId = "81641B54-5DFF-4E7E-9A9F-73CB636BC82D";
shapes = (
{
closed = 1;
nodes = (
(751,406,ls),
(825,406,o),
(831,368,o),
(877,205,c),
(895,129,o),
(942,-23,o),
(1002,-23,cs),
(1030,-23,o),
(1094,-18,o),
(1094,74,cs),
(1094,146,o),
(1080,149,o),
(1038,200,cs),
(946,313,o),
(833,1231,o),
(590,1231,cs),
(533,1231,o),
(483,1114,o),
(450,1047,c),
(260,600,l),
(215,571,o),
(205,535,o),
(205,476,cs),
(205,471,o),
(205,458,o),
(208,448,c),
(169,344,o),
(144,263,o),
(122,200,c),
(101,163,o),
(88,116,o),
(88,67,cs),
(88,4,o),
(114,-12,o),
(159,-12,cs),
(173,-12,o),
(237,8,o),
(244,122,c),
(311,315,ls),
(339,397,o),
(344,406,o),
(384,406,cs)
);
},
{
closed = 1;
nodes = (
(582,994,c),
(661,822,ls),
(697,745,o),
(732,661,o),
(751,605,c),
(709,602,o),
(671,602,o),
(635,602,cs),
(560,602,o),
(499,605,o),
(416,607,c),
(454,719,o),
(553,977,o)
);
}
);
width = 1188;
}
);
unicode = 65;
userData = {
com.typemytype.robofont.mark = (
1,
0.6,
0.6,
1
);
};
},
{
glyphname = Aogonek;
lastChange = "2021-08-22 03:02:32 +0000";
layers = (
{
layerId = "81641B54-5DFF-4E7E-9A9F-73CB636BC82D";
shapes = (
{
closed = 1;
nodes = (
(970,-293,cs),
(934,-293,o),
(889,-260,o),
(871,-208,c),
(871,-8,o),
(1102,-35,o),
(1102,74,cs),
(1102,129,o),
(1060,153,o),
(1047,153,c),
(1002,124,o),
(993,105,o),
(930,60,cs),
(846,4,o),
(729,-59,o),
(729,-248,cs),
(729,-377,o),
(831,-466,o),
(958,-466,cs),
(1038,-466,o),
(1139,-450,o),
(1139,-309,cs),
(1139,-270,o),
(1126,-230,o),
(1099,-230,cs),
(1040,-230,o),
(1033,-293,o)
);
},
{
ref = A;
}
);
width = 1188;
}
);
unicode = 260;
},
{
glyphname = AE;
lastChange = "2021-08-22 03:02:32 +0000";
layers = (
{
anchors = (
{
name = btm;
pos = (792,-297);
},
{
name = top;
pos = (1093,1497);
}
);
layerId = "81641B54-5DFF-4E7E-9A9F-73CB636BC82D";
shapes = (
{
closed = 1;
nodes = (
(26,67,cs),
(26,8,o),
(81,-36,o),
(103,-36,cs),
(149,-36,o),
(177,5,o),
(198,39,c),
(244,126,l),
(426,436,o),
(571,823,o),
(705,1035,cs),
(716,1057,o),
(729,1078,o),
(732,1104,cs),
(732,1112,ls),
(732,1174,o),
(697,1192,o),
(668,1192,cs),
(643,1192,o),
(582,1147,o),
(565,1121,cs),
(334,709,o),
(317,525,o),
(36,124,c),
(26,101,o),
(26,81,o)
);
},
{
closed = 1;
nodes = (
(1421,-23,cs),
(1456,-23,o),
(1504,2,o),
(1504,84,cs),
(1504,136,o),
(1496,208,o),
(1394,208,cs),
(1278,208,o),
(1111,200,o),
(994,200,cs),
(901,200,l),
(901,495,l),
(899,726,ls),
(897,844,o),
(895,948,o),
(897,980,cs),
(897,985,o),
(899,994,o),
(899,999,c),
(1491,994,ls),
(1526,994,o),
(1557,1050,o),
(1557,1099,cs),
(1557,1196,o),
(1522,1201,o),
(1417,1201,c),
(973,1192,l),
(967,1191,o),
(958,1191,o),
(952,1191,cs),
(897,1191,o),
(859,1231,o),
(829,1231,cs),
(765,1231,o),
(765,1144,o),
(765,1066,cs),
(765,988,l),
(760,968,o),
(760,944,o),
(760,920,cs),
(760,843,o),
(767,777,o),
(767,716,cs),
(767,706,o),
(767,696,o),
(767,688,cs),
(757,119,ls),
(755,43,o),
(790,-8,o),
(839,-8,cs),
(988,-8,o),
(1109,8,o),
(1204,8,cs),
(1309,8,o),
(1337,-23,o)
);
},
{
closed = 1;
nodes = (
(497,655,c),
(495,655,l),
(466,655,o),
(347,655,o),
(347,553,cs),
(347,473,o),
(349,462,o),
(384,462,cs),
(443,463,o),
(678,458,o),
(859,458,cs),
(930,458,ls),
(1089,458,o),
(1231,450,o),
(1276,454,cs),
(1302,454,o),
(1330,502,o),
(1330,560,cs),
(1330,598,o),
(1302,666,o),
(1262,666,cs),
(1262,666,o),
(1171,652,o),
(1133,652,cs),
(885,652,o),
(497,655,o)
);
},
{
closed = 1;
nodes = (
(454,1047,cs),
(476,1047,o),
(631,1031,o),
(729,1031,cs),
(757,1031,o),
(779,1038,o),
(779,1099,cs),
(779,1159,o),
(850,1184,o),
(850,1191,cs),
(850,1192,o),
(533,1204,o),
(466,1204,cs),
(426,1204,o),
(371,1194,o),
(371,1133,cs),
(371,1064,o),
(436,1047,o)
);
}
);
width = 1662;
}
);
unicode = 198;
userData = {
com.typemytype.robofont.mark = (
1,
0.6,
0.6,
1
);
};
},
{
glyphname = B;
lastChange = "2021-08-22 03:02:32 +0000";
layers = (
{
anchors = (
{
name = btm;
pos = (540,-297);
},
{
name = top;
pos = (478,1429);
}
);
layerId = "81641B54-5DFF-4E7E-9A9F-73CB636BC82D";
shapes = (
{
closed = 1;
nodes = (
(359,-5,cs),
(661,-5,o),
(936,142,o),
(936,476,cs),
(936,660,o),
(836,773,o),
(691,829,c),
(720,871,o),
(755,936,o),
(755,1030,cs),
(755,1152,o),
(631,1221,o),
(550,1221,cs),
(463,1221,o),
(344,1206,o),
(244,1174,cs),
(173,1149,o),
(157,940,o),
(157,802,c),
(150,139,o),
(144,112,o),
(144,85,cs),
(144,14,o),
(220,-20,o),
(258,-20,cs),
(283,-20,o),
(303,0,o),
(322,0,cs),
(339,0,o),
(347,-5,o)
);
},
{
closed = 1;
nodes = (
(518,881,c),
(319,818,o),
(302,818,o),
(277,818,c),
(283,975,ls),
(285,1021,o),
(450,1033,o),
(492,1033,cs),
(570,1033,o),
(641,1021,o),
(641,999,cs),
(641,958,o),
(557,905,o)
);
},
{
closed = 1;
nodes = (
(525,678,cs),
(652,678,o),
(824,612,o),
(824,491,cs),
(824,205,o),
(481,213,o),
(283,195,c),
(272,299,o),
(273,406,o),
(273,505,cs),
(273,528,o),
(277,580,o),
(277,602,c),
(389,616,o),
(462,678,o)
);
}
);
width = 1031;
}
);
unicode = 66;
userData = {
com.typemytype.robofont.mark = (
1,
0.6,
0.6,
1
);
};
},
{
glyphname = C;
lastChange = "2021-08-22 03:02:32 +0000";
layers = (
{
anchors = (
{
name = btm;
pos = (560,-297);
},
{
name = top;
pos = (600,1497);
}
);
layerId = "81641B54-5DFF-4E7E-9A9F-73CB636BC82D";
shapes = (
{
closed = 1;
nodes = (
(105,458,cs),
(105,71,o),
(354,-14,o),
(580,-14,cs),
(745,-14,o),
(1013,31,o),
(1013,183,cs),
(1013,240,o),
(985,283,o),
(942,283,cs),
(930,283,o),
(907,263,o),
(863,222,c),
(783,187,o),
(641,175,o),
(563,175,cs),
(409,175,o),
(240,277,o),
(240,461,cs),
(240,612,o),
(349,1038,o),
(596,1038,cs),
(891,1038,o),
(720,740,o),
(843,740,cs),
(904,740,o),
(930,836,o),
(930,885,cs),
(930,1109,o),
(760,1226,o),
(595,1226,cs),
(409,1226,o),
(243,1005,o),
(189,856,cs),
(144,726,o),
(105,595,o)
);
}
);
width = 1076;
}
);
unicode = 67;
userData = {
com.typemytype.robofont.mark = (
1,
0.6,
0.6,
1
);
};
},
{
glyphname = D;
lastChange = "2021-08-22 03:02:32 +0000";
layers = (
{
anchors = (
{
name = btm;
pos = (499,-297);
},
{
name = top;
pos = (466,1497);
}
);
layerId = "81641B54-5DFF-4E7E-9A9F-73CB636BC82D";
shapes = (
{
closed = 1;
nodes = (
(142,225,ls),
(139,136,o),
(157,-18,o),
(228,-18,cs),
(237,-18,o),
(258,-5,o),
(284,4,c),
(332,-5,o),
(411,-5,o),
(448,-5,cs),
(686,-5,o),
(1064,173,o),
(1064,567,cs),
(1064,965,o),
(694,1219,o),
(448,1219,cs),
(303,1219,ls),
(240,1219,o),
(159,1194,o),
(157,1050,cs)
);
},
{
closed = 1;
nodes = (
(357,189,ls),
(329,189,o),
(303,192,o),
(299,195,c),
(279,313,o),
(277,511,o),
(277,661,cs),
(277,833,ls),
(277,895,o),
(282,968,o),
(293,1030,c),
(334,1035,o),
(433,1038,o),
(468,1038,cs),
(681,1038,o),
(934,815,o),
(934,540,cs),
(934,287,o),
(660,189,o),
(483,189,cs)
);
}
);
width = 1123;
}
);
unicode = 68;
userData = {
com.typemytype.robofont.mark = (
1,
0.6,
0.6,
1
);
};
},
{
glyphname = Eth;
lastChange = "2021-08-22 03:02:32 +0000";
layers = (
{
anchors = (
{
name = btm;
pos = (550,-297);
}
);
layerId = "81641B54-5DFF-4E7E-9A9F-73CB636BC82D";
shapes = (
{
closed = 1;
nodes = (
(153,686,cs),
(114,686,o),
(130,694,o),
(105,694,cs),
(66,694,o),
(36,647,o),
(36,590,cs),
(36,499,o),
(79,489,o),
(116,489,cs),
(179,489,o),
(229,501,o),
(283,501,cs),
(354,501,o),
(418,483,o),
(483,483,cs),
(507,483,o),
(574,518,o),
(574,590,cs),
(574,652,o),
(550,694,o),
(507,694,cs),
(387,694,o),
(268,686,o)
);
},
{
ref = D;
}
);
width = 1178;
}
);
unicode = 208;
userData = {
com.typemytype.robofont.mark = (
1,
0.6,
0.6,
1
);
};
},
{
glyphname = Dcroat;
lastChange = "2021-08-22 03:02:32 +0000";
layers = (
{
layerId = "81641B54-5DFF-4E7E-9A9F-73CB636BC82D";
shapes = (
{
closed = 1;
nodes = (
(153,686,cs),
(114,686,o),
(130,694,o),
(105,694,cs),
(66,694,o),
(36,661,o),
(36,605,cs),
(36,515,o),
(79,502,o),
(116,502,cs),
(179,502,o),
(229,517,o),
(283,517,cs),
(354,517,o),
(418,499,o),
(483,499,cs),
(507,499,o),
(574,518,o),
(574,590,cs),
(574,652,o),
(550,694,o),
(507,694,cs),
(387,694,o),
(268,686,o)
);
},
{
ref = D;
}
);
width = 1178;
}
);
unicode = 272;
userData = {
com.typemytype.robofont.mark = (
0.6,
0.986,
1,
1
);
};
},
{
glyphname = E;
lastChange = "2021-08-22 03:02:32 +0000";
layers = (
{
anchors = (
{
name = btm;
pos = (557,-297);
},
{
name = top;
pos = (547,1497);
}
);
layerId = "81641B54-5DFF-4E7E-9A9F-73CB636BC82D";
shapes = (
{
closed = 1;
nodes = (
(367,1173,cs),
(319,1173,o),
(283,1188,o),
(240,1188,cs),
(160,1188,o),
(160,1084,o),
(160,1012,cs),
(160,856,o),
(163,750,o),
(165,689,c),
(157,668,o),
(153,645,o),
(153,633,cs),
(153,605,o),
(163,582,o),
(163,560,cs),
(157,116,ls),
(155,39,o),
(192,-12,o),
(243,-12,cs),
(313,-12,o),
(377,-2,o),
(437,-2,cs),
(652,-2,o),
(691,-23,o),
(804,-23,cs),
(859,-23,o),
(909,2,o),
(909,84,cs),
(909,139,o),
(899,200,o),
(843,200,cs),
(651,200,o),
(472,215,o),
(299,215,c),
(292,537,l),
(299,540,o),
(307,540,o),
(326,540,cs),
(367,540,o),
(454,537,o),
(674,537,cs),
(720,537,o),
(739,612,o),
(739,635,cs),
(739,709,o),
(706,736,o),
(664,736,cs),
(289,732,l),
(289,802,o),
(293,920,o),
(293,985,c),
(356,983,o),
(505,980,o),
(895,978,cs),
(932,978,o),
(963,1040,o),
(963,1087,cs),
(963,1173,o),
(934,1176,o),
(846,1176,cs),
(720,1176,o),
(492,1173,o)
);
}
);
width = 988;
}
);
unicode = 69;
userData = {
com.typemytype.robofont.mark = (
1,
0.6,
0.6,
1
);
};
},
{
glyphname = Eogonek;
lastChange = "2021-08-22 03:02:32 +0000";
layers = (
{
layerId = "81641B54-5DFF-4E7E-9A9F-73CB636BC82D";
shapes = (
{
closed = 1;
nodes = (
(771,-293,cs),
(734,-293,o),
(689,-260,o),
(671,-208,c),
(671,-8,o),
(901,-35,o),
(901,74,cs),
(901,129,o),
(860,153,o),
(846,153,c),
(802,124,o),
(794,105,o),
(730,60,cs),
(647,4,o),
(528,-59,o),
(528,-248,cs),
(528,-377,o),
(631,-466,o),
(760,-466,cs),
(839,-466,o),
(940,-450,o),
(940,-309,cs),
(940,-270,o),
(926,-230,o),
(899,-230,cs),
(841,-230,o),
(834,-293,o)
);
},
{
ref = E;
}
);
width = 988;
}
);
unicode = 280;
},
{
glyphname = F;
lastChange = "2021-08-22 03:02:32 +0000";
layers = (
{
anchors = (
{
name = btm;
pos = (545,-297);
},
{
name = top;
pos = (582,1497);
}
);
layerId = "81641B54-5DFF-4E7E-9A9F-73CB636BC82D";
shapes = (
{
closed = 1;
nodes = (
(244,1211,cs),
(169,1211,o),
(160,1042,o),
(160,970,cs),
(150,263,ls),
(150,228,o),
(139,198,o),
(139,134,cs),
(139,53,o),
(159,-8,o),
(228,-8,cs),
(287,-8,o),
(297,71,o),
(297,132,cs),
(293,502,l),
(344,502,o),
(387,511,o),
(641,540,cs),
(736,552,o),
(783,547,o),
(783,655,cs),
(783,684,o),
(781,753,o),
(724,753,cs),
(706,753,o),
(684,750,o),
(664,743,c),
(476,715,ls),
(456,710,o),
(382,705,o),
(337,705,cs),
(311,705,o),
(293,706,o),
(292,710,c),
(293,849,o),
(297,934,o),
(303,993,c),
(311,988,o),
(339,987,o),
(371,987,cs),
(678,987,o),
(734,999,o),
(753,999,c),
(814,983,o),
(868,970,o),
(879,970,cs),
(932,970,o),
(952,1008,o),
(952,1074,cs),
(952,1132,o),
(894,1202,o),
(850,1202,cs),
(818,1202,o),
(790,1196,o),
(765,1191,c),
(397,1191,ls),
(347,1191,o),
(293,1211,o)
);
}
);
width = 970;
}
);
unicode = 70;
userData = {
com.typemytype.robofont.mark = (
1,
0.6,
0.6,
1
);
};
},
{
glyphname = G;
lastChange = "2021-08-22 03:02:32 +0000";
layers = (
{
anchors = (
{
name = btm;
pos = (567,-297);
},
{
name = top;
pos = (645,1497);
}
);
layerId = "81641B54-5DFF-4E7E-9A9F-73CB636BC82D";
shapes = (
{
closed = 1;
nodes = (
(775,647,c),
(751,649,o),
(709,652,o),
(684,652,cs),
(635,652,o),
(588,635,o),
(588,553,cs),
(588,483,o),
(645,443,o),
(689,443,cs),
(724,443,o),
(779,443,o),
(833,450,c),
(833,329,ls),
(833,223,o),
(798,175,o),
(615,175,cs),
(413,175,o),
(263,289,o),
(263,544,cs),
(263,755,o),
(448,1040,o),
(616,1040,cs),
(697,1040,o),
(771,1003,o),
(839,932,cs),
(859,913,o),
(889,846,o),
(904,846,cs),
(934,846,o),
(952,884,o),
(952,967,cs),
(952,1132,o),
(798,1231,o),
(626,1231,cs),
(317,1231,o),
(132,777,o),
(132,570,cs),
(132,200,o),
(282,-12,o),
(592,-12,cs),
(689,-12,o),
(804,40,o),
(839,57,c),
(856,35,o),
(875,-10,o),
(913,-10,cs),
(946,-10,o),
(967,4,o),
(968,119,c),
(965,167,o),
(963,215,o),
(963,266,cs),
(963,337,o),
(968,400,o),
(968,471,c),
(994,486,o),
(1005,517,o),
(1005,565,cs),
(1005,610,o),
(970,664,o),
(934,664,cs),
(877,664,o),
(829,647,o)
);
}
);
width = 1099;
}
);
unicode = 71;
userData = {
com.typemytype.robofont.mark = (
1,
0.6,
0.6,
1
);
};
},
{
glyphname = H;
lastChange = "2021-08-22 03:02:32 +0000";
layers = (
{
anchors = (
{
name = btm;
pos = (563,-297);
},
{
name = top;
pos = (596,1497);
}
);
layerId = "81641B54-5DFF-4E7E-9A9F-73CB636BC82D";
shapes = (
{
closed = 1;
nodes = (
(305,492,c),
(373,499,o),
(436,501,o),
(615,501,cs),
(671,501,o),
(736,501,o),
(818,501,c),
(812,136,ls),
(810,20,o),
(836,-12,o),
(889,-12,cs),
(934,-12,o),
(963,36,o),
(963,94,cs),
(963,134,o),
(963,305,o),
(955,544,c),
(968,610,l),
(967,641,o),
(958,671,o),
(949,688,c),
(949,942,o),
(952,993,o),
(952,1025,cs),
(952,1152,o),
(938,1221,o),
(875,1221,cs),
(820,1221,o),
(812,1154,o),
(810,1074,cs),
(810,1057,o),
(810,999,o),
(814,696,c),
(305,696,l),
(305,822,o),
(307,965,o),
(307,1092,cs),
(307,1146,o),
(268,1216,o),
(238,1216,cs),
(139,1216,o),
(165,905,o),
(165,483,cs),
(165,394,o),
(160,283,o),
(160,146,cs),
(160,60,o),
(169,-10,o),
(228,-10,cs),
(256,-10,o),
(309,26,o),
(311,69,cs),
(311,91,o),
(309,155,o)
);
}
);
width = 1114;
}
);
unicode = 72;
userData = {
com.typemytype.robofont.mark = (
1,
0.6,
0.6,
1
);
};
},
{
glyphname = Hbar;
lastChange = "2021-08-22 03:02:32 +0000";
layers = (
{
layerId = "81641B54-5DFF-4E7E-9A9F-73CB636BC82D";
shapes = (
{
closed = 1;
nodes = (
(120,804,c),
(1099,804,ls),
(1126,804,o),
(1154,814,o),
(1154,897,cs),
(1154,968,o),
(1126,998,o),
(1092,998,cs),
(940,998,o),
(223,993,o),
(112,988,cs),
(84,987,o),
(49,958,o),
(49,907,cs),
(49,866,o),
(69,804,o)
);
},
{
closed = 1;
nodes = (
(364,382,c),
(431,391,o),
(495,392,o),
(674,392,cs),
(729,392,o),
(796,392,o),
(877,392,c),
(871,136,l),
(871,20,o),
(894,-12,o),
(946,-12,cs),
(993,-12,o),
(1021,36,o),
(1021,94,cs),
(1021,134,o),
(1021,305,o),
(1013,544,c),
(1028,610,l),
(1025,641,o),
(1015,671,o),
(1008,688,c),
(1008,942,o),
(1009,993,o),
(1009,1025,cs),
(1009,1152,o),
(998,1221,o),
(934,1221,cs),
(879,1221,o),
(871,1154,o),
(868,1074,cs),
(868,1057,o),
(868,891,o),
(874,588,c),
(364,588,l),
(364,715,o),
(367,965,o),
(367,1092,cs),
(367,1146,o),
(326,1216,o),
(297,1216,cs),
(198,1216,o),
(223,905,o),
(223,483,cs),
(223,394,o),
(220,283,o),
(220,146,cs),
(220,60,o),
(228,-10,o),
(287,-10,cs),
(315,-10,o),
(368,26,o),
(371,69,cs),
(371,91,o),
(368,45,o)
);
}
);
width = 1219;
}
);
unicode = (294,295);
},
{
glyphname = I;
lastChange = "2021-08-22 03:02:32 +0000";
layers = (
{
anchors = (
{
name = btm;
pos = (374,-297);
},
{
name = top;
pos = (377,1515);
}
);
layerId = "81641B54-5DFF-4E7E-9A9F-73CB636BC82D";
shapes = (
{
closed = 1;
nodes = (
(537,985,cs),
(574,985,o),
(645,1023,o),
(645,1107,cs),
(645,1138,o),
(602,1206,o),
(570,1206,cs),
(552,1206,o),
(501,1192,o),
(478,1192,cs),
(392,1192,o),
(349,1191,o),
(254,1191,cs),
(163,1191,o),
(136,1157,o),
(136,1080,cs),
(136,1076,ls),
(136,988,o),
(189,987,o),
(232,987,cs),
(287,987,l),
(273,802,o),
(260,436,o),
(260,248,cs),
(260,203,l),
(177,210,l),
(136,210,o),
(105,153,o),
(105,98,cs),
(105,20,o),
(203,0,o),
(238,0,cs),
(489,0,ls),
(523,0,o),
(570,36,o),
(570,91,cs),
(570,139,o),
(555,179,o),
(526,200,c),
(491,200,o),
(472,198,o),
(411,198,c),
(403,277,o),
(400,368,o),
(400,450,cs),
(400,739,o),
(413,920,o),
(421,1003,c),
(492,1003,ls),
(515,1003,o),
(521,985,o)
);
}
);
width = 676;
}
);
unicode = 73;
userData = {
com.typemytype.robofont.mark = (
1,
0.6,
0.6,
1
);
};
},
{
glyphname = IJ;
lastChange = "2021-08-22 03:02:32 +0000";
layers = (
{
layerId = "81641B54-5DFF-4E7E-9A9F-73CB636BC82D";
shapes = (
{
closed = 1;
nodes = (
(268,798,c),
(270,850,o),
(277,913,o),
(293,1119,c),
(293,1168,o),
(287,1211,o),
(240,1216,cs),
(139,1223,o),
(122,1182,o),
(119,661,cs),
(119,545,o),
(130,404,o),
(229,404,cs),
(266,404,o),
(299,439,o),
(299,503,cs),
(299,616,o),
(268,689,o)
);
},
{
closed = 1;
nodes = (
(411,-18,cs),
(582,-18,o),
(720,58,o),
(825,248,cs),
(856,305,o),
(864,507,o),
(866,671,cs),
(871,936,ls),
(874,1094,o),
(860,1209,o),
(810,1209,cs),
(743,1209,o),
(715,1129,o),
(715,1062,cs),
(715,836,o),
(710,602,o),
(710,391,cs),
(710,282,o),
(563,187,o),
(437,187,cs),
(387,187,o),
(309,193,o),
(297,218,cs),
(287,237,o),
(254,268,o),
(243,268,cs),
(189,268,o),
(157,193,o),
(157,142,cs),
(157,8,o),
(334,-18,o)
);
}
);
width = 973;
}
);
unicode = 306;
userData = {
com.typemytype.robofont.mark = (
0.6,
0.986,
1,
1
);
};
},
{
glyphname = Iogonek;
lastChange = "2021-08-22 03:02:32 +0000";
layers = (
{
layerId = "81641B54-5DFF-4E7E-9A9F-73CB636BC82D";
shapes = (
{
closed = 1;
nodes = (
(436,-293,cs),
(399,-293,o),
(354,-260,o),
(337,-208,c),
(337,-8,o),
(565,-35,o),
(565,74,cs),
(565,129,o),
(525,153,o),
(511,153,c),
(466,124,o),
(458,105,o),
(394,60,cs),
(311,4,o),
(193,-59,o),
(193,-248,cs),
(193,-377,o),
(295,-466,o),
(423,-466,cs),
(502,-466,o),
(605,-450,o),
(605,-309,cs),
(605,-270,o),
(590,-230,o),
(563,-230,cs),
(505,-230,o),
(499,-293,o)
);
},
{
ref = I;
}
);
width = 676;
}
);
unicode = 302;
},
{
glyphname = J;
lastChange = "2021-08-22 03:02:32 +0000";
layers = (
{
anchors = (
{
name = btm;
pos = (378,-297);
},
{
name = top;
pos = (625,1497);
}
);
layerId = "81641B54-5DFF-4E7E-9A9F-73CB636BC82D";
shapes = (
{
closed = 1;
nodes = (
(146,258,cs),
(94,258,o),
(66,189,o),
(66,142,cs),
(66,8,o),
(200,-18,o),
(258,-18,cs),
(413,-18,o),
(547,58,o),
(645,248,cs),
(666,292,o),
(688,565,o),
(688,696,cs),
(688,940,o),
(715,1219,o),
(626,1219,cs),
(563,1219,o),
(542,1142,o),
(542,1074,cs),
(542,820,o),
(535,619,o),
(535,391,cs),
(535,277,o),
(400,181,o),
(284,181,cs),
(213,181,o),
(193,258,o)
);
}
);
width = 792;
}
);
unicode = 74;
userData = {
com.typemytype.robofont.mark = (
1,
0.6,
0.6,
1
);
};
},
{
glyphname = K;
lastChange = "2021-08-22 03:02:32 +0000";
layers = (
{
anchors = (
{
name = btm;
pos = (550,-297);
},
{
name = top;
pos = (518,1429);
}
);
layerId = "81641B54-5DFF-4E7E-9A9F-73CB636BC82D";
shapes = (
{
closed = 1;
nodes = (
(812,359,c),
(705,590,ls),
(674,655,o),
(641,726,o),
(602,792,c),
(716,955,o),
(829,975,o),
(829,1126,cs),
(829,1191,o),
(792,1216,o),
(775,1216,cs),
(694,1213,o),
(679,1146,o),
(626,1083,cs),
(588,1035,o),
(590,1035,o),
(515,930,c),
(472,924,o),
(454,894,o),
(427,839,c),
(391,781,o),
(337,729,o),
(305,676,c),
(303,681,o),
(303,706,o),
(303,729,cs),
(303,755,o),
(303,779,o),
(303,792,cs),
(315,1126,l),
(315,1192,o),
(282,1221,o),
(253,1221,cs),
(200,1221,o),
(183,1157,o),
(181,1112,cs),
(173,909,o),
(169,715,o),
(165,518,cs),
(157,192,l),
(157,74,o),
(165,-25,o),
(248,-25,cs),
(279,-25,o),
(324,8,o),
(322,66,cs),
(317,193,ls),
(315,256,o),
(307,319,o),
(309,436,c),
(352,499,o),
(443,619,o),
(502,676,c),
(489,678,l),
(540,616,o),
(715,208,o),
(750,105,cs),
(781,12,o),
(820,-104,o),
(860,-104,cs),
(924,-104,o),
(942,-49,o),
(942,18,cs),
(942,95,o),
(860,254,o)
);
}
);
width = 1005;
}
);
unicode = 75;
userData = {
com.typemytype.robofont.mark = (
1,
0.6,
0.6,
1
);
};
},
{
glyphname = L;
lastChange = "2021-08-22 03:02:32 +0000";
layers = (
{
anchors = (
{
name = btm;
pos = (501,-297);
},
{
name = top;
pos = (406,1429);
}
);
layerId = "81641B54-5DFF-4E7E-9A9F-73CB636BC82D";
shapes = (
{
closed = 1;
nodes = (
(775,-10,cs),
(810,-10,o),
(856,53,o),
(856,101,cs),
(856,160,o),
(825,213,o),
(788,215,c),
(696,203,o),
(684,200,o),
(671,200,cs),
(537,200,o),
(427,208,o),
(301,213,c),
(289,664,ls),
(287,760,o),
(287,860,o),
(287,952,c),
(293,1023,o),
(297,1047,o),
(297,1102,cs),
(297,1162,o),
(254,1217,o),
(218,1217,cs),
(157,1217,o),
(150,1144,o),
(150,944,cs),
(150,740,o),
(165,533,o),
(165,329,c),
(153,200,o),
(146,144,o),
(146,66,cs),
(146,4,o),
(160,0,o),
(181,0,c),
(287,-10,o),
(305,-10,o),
(317,-10,cs),
(373,-10,o),
(421,0,o),
(466,0,cs),
(582,0,o),
(681,-10,o)
);
}
);
width = 891;
}
);
unicode = 76;
userData = {
com.typemytype.robofont.mark = (
1,
0.6,
0.6,
1
);
};
},
{
glyphname = Ldot;
lastChange = "2021-08-22 03:02:32 +0000";
layers = (
{
layerId = "81641B54-5DFF-4E7E-9A9F-73CB636BC82D";
shapes = (
{
closed = 1;
nodes = (
(739,213,l),
(736,213,o),
(734,212,o),
(732,212,c)
);
},
{
ref = L;
},
{
pos = (472,-588);
ref = dotaccent;
}
);
width = 825;
}
);
unicode = 319;
userData = {
com.typemytype.robofont.mark = (
0.6,
0.986,
1,
1
);
};
},
{
glyphname = Lslash;
lastChange = "2021-08-22 03:02:32 +0000";
layers = (
{
layerId = "81641B54-5DFF-4E7E-9A9F-73CB636BC82D";
shapes = (
{
closed = 1;
nodes = (
(586,775,cs),
(615,796,o),
(671,836,o),
(671,891,cs),
(671,955,o),
(629,973,o),
(585,973,cs),
(567,973,o),
(542,963,o),
(532,955,cs),
(382,856,o),
(177,702,o),
(36,641,cs),
(0,625,o),
(-35,592,o),
(-35,555,cs),
(-35,499,o),
(-18,454,o),
(33,454,cs),
(88,454,o),
(163,499,o)
);
},
{
ref = L;
}
);
width = 920;
}
);
unicode = 321;
},
{
glyphname = M;
lastChange = "2021-08-22 03:02:32 +0000";
layers = (
{
anchors = (
{
name = btm;
pos = (643,-297);
},
{
name = top;
pos = (689,1429);
}
);
layerId = "81641B54-5DFF-4E7E-9A9F-73CB636BC82D";
shapes = (
{
closed = 1;
nodes = (
(955,94,cs),
(955,0,o),
(1050,-20,o),
(1054,-20,cs),
(1066,-20,o),
(1111,2,o),
(1112,60,cs),
(1129,696,ls),
(1133,834,o),
(1146,958,o),
(1146,1094,cs),
(1146,1164,o),
(1117,1209,o),
(1064,1209,cs),
(1035,1209,o),
(999,1159,o),
(990,1112,c),
(895,913,o),
(740,570,o),
(700,503,cs),
(657,434,o),
(639,417,o),
(620,417,c),
(591,453,o),
(476,696,o),
(439,781,cs),
(373,934,o),
(337,1038,o),
(329,1102,cs),
(329,1107,o),
(329,1109,o),
(329,1112,cs),
(329,1159,o),
(303,1217,o),
(263,1217,cs),
(144,1217,o),
(160,926,o),
(149,243,cs),
(149,208,o),
(142,160,o),
(142,119,cs),
(142,53,o),
(147,-5,o),
(222,-5,cs),
(269,-5,o),
(287,55,o),
(287,146,cs),
(287,149,o),
(283,155,o),
(273,222,c),
(273,406,o),
(254,662,o),
(263,781,c),
(382,523,ls),
(416,449,o),
(532,189,o),
(586,189,cs),
(681,187,o),
(788,423,o),
(894,612,cs),
(930,679,ls),
(958,724,o),
(973,802,o),
(998,836,c),
(988,266,ls),
(987,215,o),
(955,157,o)
);
}
);
width = 1276;
}
);
unicode = 77;
userData = {
com.typemytype.robofont.mark = (
1,
0.6,
0.6,
1
);
};
},
{
glyphname = N;
lastChange = "2021-08-22 03:02:32 +0000";
layers = (
{
anchors = (
{
name = btm;
pos = (552,-297);
},
{
name = top;
pos = (553,1515);
}
);
layerId = "81641B54-5DFF-4E7E-9A9F-73CB636BC82D";
shapes = (
{
closed = 1;
nodes = (
(716,23,c),
(724,4,o),
(755,-29,o),
(781,-29,cs),
(885,-29,o),
(894,85,o),
(897,187,cs),
(897,213,l),
(928,540,o),
(955,814,o),
(955,1126,cs),
(955,1233,o),
(932,1241,o),
(881,1241,cs),
(818,1241,o),
(808,1184,o),
(804,1028,cs),
(781,232,o),
(775,243,o),
(767,243,cs),
(740,243,o),
(416,706,o),
(352,1021,cs),
(332,1123,o),
(303,1216,o),
(225,1216,cs),
(184,1216,o),
(163,1128,o),
(163,1089,cs),
(163,946,o),
(167,904,o),
(167,868,cs),
(167,779,o),
(167,705,o),
(157,491,c),
(153,153,ls),
(150,66,o),
(140,-5,o),
(220,-5,cs),
(272,-5,o),
(291,57,o),
(291,181,cs),
(291,248,o),
(293,284,o),
(293,456,cs),
(293,501,o),
(293,664,o),
(297,734,c),
(399,492,o),
(560,218,o)
);
}
);
width = 1076;
}
);
unicode = 78;
userData = {
com.typemytype.robofont.mark = (
1,
0.6,
0.6,
1
);
};
},
{
glyphname = Eng;
lastChange = "2021-08-22 03:02:32 +0000";
layers = (
{
layerId = "81641B54-5DFF-4E7E-9A9F-73CB636BC82D";
shapes = (
{
closed = 1;
nodes = (
(743,-53,c),
(743,-59,o),
(743,-66,o),
(743,-71,cs),
(743,-208,o),
(657,-352,o),
(507,-352,cs),
(408,-352,o),
(409,-268,o),
(371,-268,cs),
(313,-268,o),
(289,-342,o),
(289,-387,cs),
(289,-517,o),
(421,-545,o),
(478,-545,cs),
(635,-545,o),
(745,-471,o),
(836,-293,cs),
(914,-144,o),
(885,368,o),
(897,580,c),
(920,1087,o),
(922,1119,o),
(922,1171,cs),
(922,1276,o),
(899,1283,o),
(849,1283,cs),
(788,1283,o),
(777,1213,o),
(775,1083,c),
(765,975,o),
(769,213,o),
(734,213,cs),
(709,213,o),
(382,686,o),
(319,999,cs),
(299,1102,o),
(270,1192,o),
(193,1192,cs),
(153,1192,o),
(130,1107,o),
(130,1066,cs),
(130,987,o),
(134,916,o),
(134,846,cs),
(134,661,o),
(124,592,o),
(124,491,c),
(120,212,o),
(120,184,o),
(120,153,cs),
(120,66,o),
(129,-5,o),
(208,-5,cs),
(258,-5,o),
(259,57,o),
(259,134,cs),
(259,334,o),
(260,391,o),
(260,705,c),
(384,466,o),
(592,130,o)
);
}
);
width = 1009;
}
);
unicode = 330;
userData = {
com.typemytype.robofont.mark = (
0.967,
0.6,
1,
1
);
};
},
{
glyphname = O;
lastChange = "2021-08-22 03:02:32 +0000";
layers = (
{
anchors = (
{
name = btm;
pos = (619,-297);
},
{
name = top;
pos = (651,1515);
}
);
layerId = "81641B54-5DFF-4E7E-9A9F-73CB636BC82D";
shapes = (
{
closed = 1;
nodes = (
(115,590,c),
(115,307,o),
(342,-23,o),
(619,-23,cs),
(884,-23,o),
(1123,229,o),
(1123,598,cs),
(1123,987,o),
(958,1221,o),
(651,1221,cs),
(382,1221,o),
(122,1048,o)
);
},
{
closed = 1;
nodes = (
(243,619,cs),
(243,899,o),
(454,1033,o),
(666,1033,cs),
(860,1033,o),
(1002,864,o),
(1002,592,cs),
(1002,315,o),
(812,169,o),
(610,169,cs),
(418,169,o),
(243,403,o)
);
}
);
width = 1248;
}
);
unicode = 79;
userData = {
com.typemytype.robofont.mark = (
1,
0.6,
0.6,
1
);
};
},
{
glyphname = Ohorn;
lastChange = "2021-08-22 03:02:32 +0000";
layers = (
{
anchors = (
{
name = btm;
pos = (616,-297);
},
{
name = top;
pos = (602,1515);
}
);
layerId = "81641B54-5DFF-4E7E-9A9F-73CB636BC82D";
shapes = (
{
closed = 1;
nodes = (
(1142,1246,cs),
(1178,1246,o),
(1246,1211,o),
(1246,1157,cs),
(1246,1018,o),
(985,1030,o),
(985,901,cs),
(985,850,o),
(1023,822,o),
(1048,822,c),
(1191,905,l),
(1264,965,o),
(1388,1015,o),
(1388,1201,cs),
(1388,1328,o),
(1286,1421,o),
(1156,1421,cs),
(1080,1421,o),
(955,1404,o),
(955,1264,cs),
(955,1223,o),
(965,1181,o),
(993,1181,cs),
(1058,1181,o),
(1057,1246,o)
);
},
{
closed = 1;
nodes = (
(105,590,c),
(105,307,o),
(342,-23,o),
(619,-23,cs),
(884,-23,o),
(1133,229,o),
(1133,598,cs),
(1133,987,o),
(958,1221,o),
(651,1221,cs),
(382,1221,o),
(112,1048,o)
);
},
{
closed = 1;
nodes = (
(243,619,cs),
(243,899,o),
(454,1033,o),
(666,1033,cs),
(860,1033,o),
(1002,864,o),
(1002,592,cs),
(1002,315,o),
(812,169,o),
(610,169,cs),
(418,169,o),
(243,403,o)
);
}
);
width = 1248;
}
);
unicode = 416;
userData = {
com.typemytype.robofont.mark = (
1,
0.6,
0.6,
1
);
};
},
{
glyphname = Oslash;
lastChange = "2021-08-22 03:02:32 +0000";
layers = (
{
layerId = "81641B54-5DFF-4E7E-9A9F-73CB636BC82D";
shapes = (
{
closed = 1;
nodes = (
(1102,595,cs),
(1102,775,o),
(1054,930,o),
(987,1035,c),
(1025,1083,ls),
(1035,1094,o),
(1047,1121,o),
(1047,1159,cs),
(1047,1216,o),
(1005,1243,o),
(977,1243,cs),
(958,1243,o),
(920,1202,o),
(899,1183,cs),
(871,1154,l),
(868,1154,o),
(863,1157,o),
(860,1157,cs),
(790,1192,o),
(705,1221,o),
(619,1221,cs),
(354,1221,o),
(76,1052,o),
(76,595,cs),
(76,458,o),
(144,287,o),
(218,183,c),
(163,91,l),
(159,79,o),
(150,58,o),
(150,49,cs),
(150,-5,o),
(213,-66,o),
(238,-66,cs),
(273,-66,o),
(313,0,o),
(337,50,c),
(408,14,o),
(508,-23,o),
(586,-23,cs),
(856,-23,o),
(1102,229,o)
);
},
{
closed = 1;
nodes = (
(218,616,cs),
(218,894,o),
(423,1025,o),
(633,1025,cs),
(681,1025,o),
(715,1018,o),
(750,998,c),
(602,792,o),
(418,491,o),
(319,339,c),
(256,418,o),
(218,523,o)
);
},
{
closed = 1;
nodes = (
(437,218,c),
(462,260,o),
(481,297,o),
(523,364,cs),
(681,621,ls),
(736,710,o),
(815,831,o),
(874,899,c),
(922,833,o),
(963,715,o),
(963,602,cs),
(963,324,o),
(779,175,o),
(578,175,cs),
(528,175,o),
(473,189,o)
);
}
);
width = 1184;
}
);
unicode = 216;
},
{
glyphname = OE;
lastChange = "2021-08-22 03:02:32 +0000";
layers = (
{
anchors = (
{
name = btm;
pos = (930,-297);
}
);
layerId = "81641B54-5DFF-4E7E-9A9F-73CB636BC82D";
shapes = (
{
closed = 1;
nodes = (
(1126,208,c),
(1126,274,o),
(1128,368,o),
(1128,532,c),
(1522,532,ls),
(1565,532,o),
(1583,612,o),
(1583,635,cs),
(1583,709,o),
(1551,736,o),
(1516,736,cs),
(1471,736,o),
(1435,726,o),
(1400,726,cs),
(1335,726,o),
(1297,732,o),
(1121,732,c),
(1121,1012,l),
(1681,1003,ls),
(1713,1003,o),
(1745,1060,o),
(1745,1102,cs),
(1745,1191,o),
(1718,1201,o),
(1630,1201,cs),
(1444,1201,o),
(1317,1192,o),
(1188,1192,cs),
(1144,1192,o),
(1109,1231,o),
(1066,1231,cs),
(1021,1231,o),
(1003,1094,o),
(998,1042,c),
(932,1149,o),
(781,1221,o),
(655,1221,cs),
(382,1221,o),
(116,1050,o),
(116,590,cs),
(116,307,o),
(346,-23,o),
(625,-23,cs),
(732,-23,o),
(942,53,o),
(983,136,c),
(983,5,o),
(1021,-12,o),
(1066,-12,cs),
(1142,-12,o),
(1201,-2,o),
(1254,-2,cs),
(1620,-2,o),
(1565,-29,o),
(1625,-29,cs),
(1679,-29,o),
(1728,-5,o),
(1728,76,cs),
(1728,155,o),
(1709,193,o),
(1625,193,cs),
(1456,193,o),
(1299,208,o)
);
},
{
closed = 1;
nodes = (
(254,616,cs),
(254,891,o),
(458,1025,o),
(671,1025,cs),
(792,1025,o),
(934,924,o),
(999,814,c),
(999,781,o),
(998,722,o),
(998,691,c),
(987,679,o),
(977,652,o),
(977,626,cs),
(977,605,o),
(987,578,o),
(993,555,c),
(993,392,l),
(916,260,o),
(743,175,o),
(616,175,cs),
(426,175,o),
(254,403,o)
);
}
);
width = 1858;
}
);
unicode = 338;
userData = {
com.typemytype.robofont.mark = (
1,
0.6,
0.6,
1
);
};
},
{
glyphname = P;
lastChange = "2021-08-22 03:02:32 +0000";
layers = (
{
anchors = (
{
name = btm;
pos = (532,-297);
},
{
name = top;
pos = (535,1515);
}
);
layerId = "81641B54-5DFF-4E7E-9A9F-73CB636BC82D";
shapes = (
{
closed = 1;
nodes = (
(150,478,cs),
(150,461,o),
(160,427,o),
(167,413,c),
(147,203,ls),
(125,-24,o),
(192,-10,o),
(236,-10,cs),
(253,-10,o),
(302,-5,o),
(302,63,c),
(283,332,o),
(301,342,o),
(297,384,c),
(307,381,o),
(322,378,o),
(332,378,cs),
(678,378,o),
(914,533,o),
(914,875,cs),
(914,1076,o),
(836,1198,o),
(581,1198,c),
(481,1202,o),
(366,1140,o),
(317,1090,c),
(301,1090,o),
(279,1134,o),
(262,1134,cs),
(157,1129,o),
(167,874,o),
(167,639,cs),
(167,574,o),
(150,537,o)
);
},
{
closed = 1;
nodes = (
(295,600,c),
(305,904,o),
(312,944,o),
(312,952,c),
(337,983,o),
(473,1015,o),
(542,1015,cs),
(715,1015,o),
(791,934,o),
(791,822,cs),
(791,666,o),
(595,582,o),
(396,582,cs),
(354,582,o),
(327,590,o)
);
}
);
width = 988;
}
);
unicode = 80;
userData = {
com.typemytype.robofont.mark = (
1,
0.6,
0.6,
1
);
};
},
{
glyphname = Thorn;
lastChange = "2021-08-22 03:02:32 +0000";
layers = (
{
anchors = (
{
name = btm;
pos = (517,-297);
}
);
layerId = "81641B54-5DFF-4E7E-9A9F-73CB636BC82D";
shapes = (
{
closed = 1;
nodes = (
(356,223,l),
(518,223,o),
(732,313,o),
(802,384,cs),
(829,411,o),
(894,495,o),
(894,679,cs),
(894,881,o),
(767,988,o),
(515,988,cs),
(446,988,o),
(391,973,o),
(303,955,c),
(305,1216,ls),
(305,1236,o),
(277,1248,o),
(238,1248,cs),
(184,1248,o),
(159,1204,o),
(159,1114,c),
(144,99,ls),
(142,5,o),
(163,-29,o),
(223,-29,cs),
(248,-29,o),
(301,-20,o),
(301,45,cs),
(301,101,o),
(289,177,o),
(289,225,c)
);
},
{
closed = 1;
nodes = (
(521,798,cs),
(686,798,o),
(753,736,o),
(753,625,cs),
(753,466,o),
(580,423,o),
(399,423,cs),
(363,423,o),
(332,431,o),
(299,448,c),
(299,760,l),
(326,790,o),
(454,798,o)
);
}
);
width = 968;
}
);
unicode = 222;
userData = {
com.typemytype.robofont.mark = (
1,
0.6,
0.6,
1
);
};
},
{
glyphname = Q;
lastChange = "2021-08-22 03:02:32 +0000";
layers = (
{
anchors = (
{
name = btm;
pos = (649,-297);
},
{
name = top;
pos = (580,1429);
}
);
layerId = "81641B54-5DFF-4E7E-9A9F-73CB636BC82D";
shapes = (
{
closed = 1;
nodes = (
(105,610,cs),
(105,218,o),
(287,-23,o),
(590,-23,cs),
(853,-23,o),
(1139,153,o),
(1139,610,cs),
(1139,894,o),
(904,1221,o),
(625,1221,cs),
(356,1221,o),
(105,973,o)
);
},
{
closed = 1;
nodes = (
(633,1038,cs),
(825,1038,o),
(999,800,o),
(999,574,cs),
(999,301,o),
(790,169,o),
(578,169,cs),
(382,169,o),
(244,329,o),
(244,595,cs),
(244,879,o),
(426,1038,o)
);
},
{
closed = 1;
nodes = (
(1038,-144,cs),
(1060,-185,o),
(1109,-192,o),
(1132,-192,cs),
(1174,-192,o),
(1194,-158,o),
(1194,-105,cs),
(1194,-29,o),
(1005,254,o),
(916,352,cs),
(881,391,o),
(804,526,o),
(712,526,cs),
(681,526,o),
(660,486,o),
(660,426,cs),
(660,377,l),
(822,232,o),
(1028,-126,o)
);
}
);
width = 1270;
}
);
unicode = 81;
userData = {
com.typemytype.robofont.mark = (
1,
0.6,
0.6,
1
);
};
},
{
glyphname = R;
lastChange = "2021-08-22 03:02:32 +0000";
layers = (
{
anchors = (
{
name = btm;
pos = (555,-297);
},
{
name = top;
pos = (552,1515);
}
);
layerId = "81641B54-5DFF-4E7E-9A9F-73CB636BC82D";
shapes = (
{
closed = 1;
nodes = (
(293,481,c),
(344,507,o),
(448,533,o),
(483,533,cs),
(596,533,o),
(760,495,o),
(812,387,c),
(822,328,o),
(824,292,o),
(824,237,cs),
(824,184,o),
(822,134,o),
(822,85,cs),
(822,60,ls),
(822,-5,o),
(832,-60,o),
(887,-60,cs),
(959,-60,o),
(960,55,o),
(960,173,cs),
(960,421,o),
(930,605,o),
(715,678,c),
(781,720,o),
(844,792,o),
(844,914,cs),
(844,1109,o),
(705,1194,o),
(570,1194,cs),
(437,1194,o),
(315,1128,o),
(208,1023,c),
(155,967,o),
(150,823,o),
(150,730,cs),
(150,441,o),
(183,256,o),
(183,195,cs),
(183,167,o),
(175,130,o),
(175,101,cs),
(175,45,o),
(208,-14,o),
(248,-14,cs),
(299,-14,o),
(334,25,o),
(334,88,c),
(312,184,o),
(295,367,o)
);
},
{
closed = 1;
nodes = (
(277,856,cs),
(279,949,o),
(471,1013,o),
(572,1013,cs),
(641,1013,o),
(719,987,o),
(719,891,cs),
(719,814,o),
(429,722,o),
(282,694,c),
(277,724,o),
(274,757,o),
(274,794,cs),
(274,814,o),
(277,836,o)
);
}
);
width = 1060;
}
);
unicode = 82;
userData = {
com.typemytype.robofont.mark = (
1,
0.6,
0.6,
1
);
};
},
{
glyphname = S;
lastChange = "2021-08-22 03:02:32 +0000";
layers = (
{
anchors = (
{
name = btm;
pos = (481,-297);
},
{
name = top;
pos = (511,1515);
}
);
layerId = "81641B54-5DFF-4E7E-9A9F-73CB636BC82D";
shapes = (
{
closed = 1;
nodes = (
(850,344,cs),
(850,704,o),
(238,592,o),
(238,786,cs),
(238,909,o),
(426,1025,o),
(523,1025,cs),
(610,1025,o),
(666,998,o),
(666,905,cs),
(666,856,o),
(668,812,o),
(709,812,cs),
(771,812,o),
(777,916,o),
(777,990,cs),
(777,1109,o),
(686,1217,o),
(550,1217,cs),
(347,1217,o),
(114,1054,o),
(114,767,cs),
(114,437,o),
(725,497,o),
(725,334,cs),
(725,268,o),
(562,181,o),
(441,181,cs),
(342,181,o),
(309,183,o),
(248,303,cs),
(238,324,o),
(225,337,o),
(223,337,cs),
(187,337,o),
(157,240,o),
(157,203,cs),
(157,8,o),
(334,-12,o),
(421,-12,cs),
(537,-12,o),
(850,84,o)
);
}
);
width = 960;
}
);
unicode = 83;
userData = {
com.typemytype.robofont.mark = (
1,
0.6,
0.6,
1
);
};
},
{
glyphname = Germandbls;
lastChange = "2021-08-22 03:02:32 +0000";
layers = (
{
anchors = (
{
name = btm;
pos = (545,-297);
}
);
layerId = "81641B54-5DFF-4E7E-9A9F-73CB636BC82D";
shapes = (
{
closed = 1;
nodes = (
(839,346,cs),
(839,228,o),
(709,177,o),
(631,177,cs),
(586,177,o),
(525,189,o),
(525,213,cs),
(525,299,o),
(478,317,o),
(456,317,cs),
(411,317,o),
(384,240,o),
(384,179,cs),
(384,66,o),
(446,-29,o),
(605,-29,cs),
(781,-29,o),
(973,101,o),
(973,367,cs),
(973,478,o),
(905,559,o),
(773,599,cs),
(588,655,l),
(641,710,l),
(790,879,o),
(901,1023,o),
(901,1099,cs),
(901,1174,o),
(757,1256,o),
(612,1256,cs),
(423,1256,o),
(215,1156,o),
(153,967,cs),
(124,879,o),
(120,760,o),
(119,678,c),
(119,91,ls),
(119,10,o),
(129,-29,o),
(212,-29,cs),
(260,-29,o),
(267,-5,o),
(267,91,cs),
(267,223,o),
(253,356,o),
(253,492,cs),
(253,544,o),
(253,610,o),
(254,681,cs),
(258,833,o),
(263,1066,o),
(562,1066,cs),
(676,1066,o),
(697,1025,o),
(705,1008,c),
(691,983,o),
(685,950,o),
(579,849,c),
(516,774,o),
(409,625,o),
(409,582,cs),
(409,429,o),
(839,481,o)
);
}
);
width = 1020;
}
);
unicode = 7838;
userData = {
com.typemytype.robofont.mark = (
1,
0.6,
0.6,
1
);
};
},
{
glyphname = Schwa;
lastChange = "2021-08-22 03:02:32 +0000";
layers = (
{
layerId = "81641B54-5DFF-4E7E-9A9F-73CB636BC82D";
shapes = (
{
closed = 1;
nodes = (
(334,560,c),
(357,559,o),
(743,565,o),
(768,565,cs),
(816,565,o),
(864,585,o),
(864,666,cs),
(864,734,o),
(806,765,o),
(762,765,cs),
(727,765,o),
(309,765,o),
(257,759,c),
(259,822,ls),
(262,928,o),
(311,1044,o),
(495,1044,cs),
(696,1044,o),
(866,930,o),
(866,676,cs),
(866,463,o),
(661,179,o),
(492,179,cs),
(411,179,o),
(349,215,o),
(282,287,cs),
(262,307,o),
(230,345,o),
(215,345,cs),
(185,345,o),
(157,317,o),
(157,253,cs),
(157,88,o),
(311,-12,o),
(481,-12,cs),
(792,-12,o),
(977,441,o),
(977,649,cs),
(977,1020,o),
(829,1237,o),
(517,1231,cs),
(122,1223,o),
(103,750,o),
(103,652,cs),
(103,607,o),
(139,555,o),
(175,555,cs),
(232,555,o),
(282,560,o)
);
}
);
width = 1099;
}
);
unicode = 399;
},
{
glyphname = T;
lastChange = "2021-08-22 03:02:32 +0000";
layers = (
{
anchors = (
{
name = btm;
pos = (448,-297);
},
{
name = top;
pos = (456,1497);
}
);
layerId = "81641B54-5DFF-4E7E-9A9F-73CB636BC82D";
shapes = (
{
closed = 1;
nodes = (
(537,198,cs),
(537,205,o),
(537,193,o),
(508,1013,c),
(557,1020,o),
(643,1020,o),
(660,1020,cs),
(691,1020,o),
(726,977,o),
(755,977,cs),
(798,977,o),
(839,1062,o),
(839,1102,cs),
(839,1159,o),
(808,1206,o),
(757,1206,c),
(598,1196,l),
(177,1192,ls),
(119,1192,o),
(57,1166,o),
(57,1054,cs),
(57,998,o),
(88,975,o),
(150,975,cs),
(213,975,o),
(287,988,o),
(367,998,c),
(394,193,ls),
(394,175,o),
(392,153,o),
(392,134,cs),
(392,43,o),
(403,-12,o),
(483,-12,cs),
(547,-12,o),
(553,10,o),
(555,81,c),
(553,99,o),
(542,169,o)
);
}
);
width = 871;
}
);
unicode = 84;
userData = {
com.typemytype.robofont.mark = (
1,
0.6,
0.6,
1
);
};
},
{
glyphname = Tbar;
lastChange = "2021-08-22 03:02:32 +0000";
layers = (
{
layerId = "81641B54-5DFF-4E7E-9A9F-73CB636BC82D";
shapes = (
{
closed = 1;
nodes = (
(635,595,ls),
(676,596,o),
(710,595,o),
(710,691,cs),
(710,775,o),
(679,790,o),
(649,790,cs),
(537,790,o),
(399,769,o),
(309,769,cs),
(277,769,o),
(247,773,o),
(223,773,cs),
(198,773,o),
(157,720,o),
(157,674,cs),
(157,629,o),
(181,565,o),
(232,565,c)
);
},
{
pos = (5,0);
ref = T;
}
);
width = 874;
}
);
unicode = 358;
userData = {
com.typemytype.robofont.mark = (
0.6,
0.986,
1,
1
);
};
},
{
glyphname = U;
lastChange = "2021-08-22 03:02:32 +0000";
layers = (
{
anchors = (
{
name = btm;
pos = (542,-297);
},
{
name = top;
pos = (547,1515);
}
);
layerId = "81641B54-5DFF-4E7E-9A9F-73CB636BC82D";
shapes = (
{
closed = 1;
nodes = (
(884,413,cs),
(884,652,o),
(905,928,o),
(932,1052,c),
(936,1094,ls),
(936,1099,o),
(938,1102,o),
(938,1111,cs),
(938,1181,o),
(914,1231,o),
(884,1231,cs),
(815,1231,o),
(781,1144,o),
(771,894,c),
(740,391,ls),
(732,247,o),
(629,163,o),
(481,163,cs),
(305,163,o),
(284,429,o),
(284,635,cs),
(284,760,o),
(322,999,o),
(322,1128,cs),
(322,1176,o),
(309,1216,o),
(268,1216,cs),
(153,1216,o),
(144,804,o),
(144,629,cs),
(144,598,ls),
(144,319,o),
(200,-26,o),
(458,-26,cs),
(540,-26,o),
(671,25,o),
(747,132,c),
(750,25,o),
(773,-12,o),
(818,-12,cs),
(871,-12,o),
(904,20,o),
(904,67,cs),
(904,159,o),
(884,287,o)
);
}
);
width = 1050;
}
);
unicode = 85;
userData = {
com.typemytype.robofont.mark = (
1,
0.6,
0.6,
1
);
};
},
{
glyphname = Uhorn;
lastChange = "2021-08-22 03:02:32 +0000";
layers = (
{
anchors = (
{
name = btm;
pos = (501,-297);
},
{
name = top;
pos = (521,1515);
}
);
layerId = "81641B54-5DFF-4E7E-9A9F-73CB636BC82D";
shapes = (
{
closed = 1;
nodes = (
(1028,1390,cs),
(1064,1390,o),
(1132,1355,o),
(1132,1302,cs),
(1132,1162,o),
(871,1174,o),
(871,1047,cs),
(871,994,o),
(909,967,o),
(934,967,c),
(1076,1050,l),
(1149,1109,o),
(1273,1159,o),
(1273,1345,cs),
(1273,1474,o),
(1173,1565,o),
(1042,1565,cs),
(967,1565,o),
(841,1549,o),
(841,1408,cs),
(841,1367,o),
(850,1325,o),
(879,1325,cs),
(944,1325,o),
(942,1390,o)
);
},
{
closed = 1;
nodes = (
(884,413,cs),
(884,652,o),
(905,928,o),
(932,1052,c),
(936,1094,ls),
(936,1099,o),
(938,1102,o),
(938,1111,cs),
(938,1181,o),
(914,1231,o),
(884,1231,cs),
(815,1231,o),
(781,1144,o),
(771,894,c),
(740,391,ls),
(732,247,o),
(629,163,o),
(481,163,cs),
(305,163,o),
(284,429,o),
(284,635,cs),
(284,760,o),
(322,999,o),
(322,1128,cs),
(322,1176,o),
(309,1216,o),
(268,1216,cs),
(153,1216,o),
(144,804,o),
(144,629,cs),
(144,598,ls),
(144,319,o),
(200,-26,o),
(458,-26,cs),
(540,-26,o),
(671,25,o),
(747,132,c),
(750,25,o),
(773,-12,o),
(818,-12,cs),
(871,-12,o),
(904,20,o),
(904,67,cs),
(904,159,o),
(884,287,o)
);
}
);
width = 1050;
}
);
unicode = 431;
userData = {
com.typemytype.robofont.mark = (
1,
0.6,
0.6,
1
);
};
},
{
glyphname = V;
lastChange = "2021-08-22 03:02:32 +0000";
layers = (
{
anchors = (
{
name = btm;
pos = (550,-297);
},
{
name = top;
pos = (542,1497);
}
);
layerId = "81641B54-5DFF-4E7E-9A9F-73CB636BC82D";
shapes = (
{
closed = 1;
nodes = (
(74,1109,cs),
(74,955,o),
(349,-5,o),
(378,-5,cs),
(463,-5,o),
(473,23,o),
(497,71,cs),
(557,213,o),
(879,844,o),
(1003,1062,cs),
(1009,1076,o),
(1025,1117,o),
(1025,1146,cs),
(1025,1213,o),
(993,1243,o),
(977,1243,cs),
(897,1243,o),
(769,920,o),
(697,790,c),
(458,297,o),
(450,282,o),
(433,244,c),
(381,423,o),
(244,897,o),
(203,1139,c),
(192,1184,o),
(155,1216,o),
(129,1216,cs),
(76,1216,o),
(74,1147,o)
);
}
);
width = 1048;
}
);
unicode = 86;
userData = {
com.typemytype.robofont.mark = (
1,
0.6,
0.6,
1
);
};
},
{
glyphname = W;
lastChange = "2021-08-22 03:02:32 +0000";
layers = (
{
anchors = (
{
name = btm;
pos = (660,-297);
},
{
name = top;
pos = (649,1497);
}
);
layerId = "81641B54-5DFF-4E7E-9A9F-73CB636BC82D";
shapes = (
{
closed = 1;
nodes = (
(139,1219,cs),
(95,1219,o),
(69,1139,o),
(69,1102,cs),
(69,1068,o),
(79,1018,o),
(89,968,cs),
(153,657,o),
(218,367,o),
(258,81,cs),
(268,23,o),
(292,-23,o),
(347,-23,cs),
(382,-23,o),
(450,146,o),
(462,181,cs),
(515,349,o),
(584,638,o),
(629,764,c),
(662,586,o),
(649,578,o),
(719,205,cs),
(739,95,o),
(751,-5,o),
(814,-5,cs),
(899,-5,o),
(952,218,o),
(977,334,cs),
(1074,767,o),
(1138,922,o),
(1209,1038,cs),
(1231,1070,o),
(1252,1089,o),
(1252,1133,cs),
(1252,1183,o),
(1219,1247,o),
(1174,1247,cs),
(1121,1247,o),
(1087,1123,o),
(1062,1062,cs),
(1018,942,o),
(944,734,o),
(894,537,cs),
(834,322,l),
(818,433,o),
(790,537,o),
(771,676,cs),
(743,879,o),
(715,1087,o),
(661,1087,cs),
(600,1087,o),
(483,688,o),
(406,450,cs),
(364,324,l),
(352,356,o),
(346,394,o),
(346,423,cs),
(346,590,o),
(289,684,o),
(247,885,cs),
(222,998,o),
(215,1219,o)
);
}
);
width = 1248;
}
);
unicode = 87;
userData = {
com.typemytype.robofont.mark = (
1,
0.6,
0.6,
1
);
};
},
{
glyphname = X;
lastChange = "2021-08-22 03:02:32 +0000";
layers = (
{
anchors = (
{
name = btm;
pos = (387,-297);
},
{
name = top;
pos = (397,1497);
}
);
layerId = "81641B54-5DFF-4E7E-9A9F-73CB636BC82D";
shapes = (
{
closed = 1;
nodes = (
(691,1133,cs),
(696,1146,o),
(697,1157,o),
(697,1171,cs),
(697,1204,o),
(679,1231,o),
(652,1231,cs),
(557,1231,o),
(515,1052,o),
(374,783,c),
(319,879,o),
(212,1209,o),
(129,1219,c),
(101,1219,o),
(74,1156,o),
(74,1117,cs),
(74,1015,o),
(187,820,o),
(210,775,cs),
(250,684,o),
(279,647,o),
(292,621,c),
(256,537,ls),
(215,441,o),
(84,181,o),
(84,126,cs),
(84,45,o),
(112,-20,o),
(173,-20,cs),
(237,-20,o),
(244,55,o),
(244,129,cs),
(244,175,o),
(337,332,o),
(356,394,c),
(458,142,o),
(518,-29,o),
(651,-29,cs),
(691,-29,o),
(702,5,o),
(702,60,cs),
(702,173,o),
(643,175,o),
(607,240,cs),
(560,332,o),
(439,562,o),
(439,610,c),
(499,755,o),
(626,952,o)
);
}
);
width = 769;
}
);
unicode = 88;
userData = {
com.typemytype.robofont.mark = (
1,
0.6,
0.6,
1
);
};
},
{
glyphname = Y;
lastChange = "2021-08-22 03:02:32 +0000";
layers = (
{
anchors = (
{
name = btm;
pos = (427,-297);
},
{
name = top;
pos = (450,1497);
}
);
layerId = "81641B54-5DFF-4E7E-9A9F-73CB636BC82D";
shapes = (
{
closed = 1;
nodes = (
(205,74,cs),
(205,23,o),
(270,-29,o),
(292,-29,cs),
(313,-29,o),
(342,35,o),
(347,58,c),
(436,293,o),
(705,812,o),
(788,1013,cs),
(831,1109,o),
(849,1128,o),
(849,1147,cs),
(849,1191,o),
(833,1231,o),
(802,1231,cs),
(709,1231,o),
(616,977,o),
(515,769,cs),
(427,590,l),
(359,696,o),
(160,1102,o),
(122,1164,cs),
(98,1206,o),
(85,1216,o),
(63,1216,cs),
(33,1216,o),
(5,1174,o),
(5,1129,cs),
(5,1002,o),
(283,523,o),
(322,463,cs),
(329,454,o),
(334,433,o),
(334,427,cs),
(334,426,o),
(311,382,o),
(301,364,cs),
(248,268,o),
(208,146,o)
);
}
);
width = 798;
}
);
unicode = 89;
userData = {
com.typemytype.robofont.guides = (
{
angle = 0;
isGlobal = 0;
magnetic = 5;
x = 0;
y = 492;
}
);
com.typemytype.robofont.mark = (
1,
0.6,
0.6,
1
);
};
},
{
glyphname = Z;
lastChange = "2021-08-22 03:02:32 +0000";
layers = (
{
anchors = (
{
name = btm;
pos = (515,-297);
},
{
name = top;
pos = (499,1497);
}
);
layerId = "81641B54-5DFF-4E7E-9A9F-73CB636BC82D";
shapes = (
{
closed = 1;
nodes = (
(877,-14,cs),
(930,-14,o),
(952,67,o),
(952,126,cs),
(952,179,o),
(932,225,o),
(877,225,cs),
(834,225,o),
(790,183,o),
(739,183,cs),
(679,183,o),
(625,181,o),
(567,181,cs),
(553,181,o),
(537,181,o),
(525,181,cs),
(287,181,l),
(309,229,o),
(374,337,o),
(403,381,cs),
(485,502,o),
(786,977,o),
(786,1070,cs),
(786,1109,o),
(779,1166,o),
(751,1171,cs),
(694,1176,o),
(643,1178,o),
(590,1178,cs),
(499,1178,o),
(411,1173,o),
(326,1173,cs),
(277,1173,o),
(205,1181,o),
(157,1181,cs),
(114,1181,o),
(79,1147,o),
(79,1080,cs),
(79,1013,o),
(119,963,o),
(169,963,cs),
(277,963,o),
(427,980,o),
(550,980,cs),
(562,980,o),
(578,980,o),
(590,980,c),
(489,757,o),
(326,535,o),
(208,334,cs),
(159,253,o),
(124,173,o),
(124,84,cs),
(124,25,o),
(132,-5,o),
(175,-8,cs),
(277,-18,o),
(307,-18,o),
(342,-18,cs),
(505,-18,o),
(666,-5,o),
(802,-5,cs),
(829,-5,o),
(849,-14,o)
);
}
);
width = 960;
}
);
unicode = 90;
userData = {
com.typemytype.robofont.mark = (
1,
0.6,
0.6,
1
);
};
},
{
glyphname = a;
lastChange = "2021-08-22 03:02:32 +0000";
layers = (
{
anchors = (
{
name = btm;
pos = (545,-297);
},
{
name = top;
pos = (525,1515);
}
);
layerId = "81641B54-5DFF-4E7E-9A9F-73CB636BC82D";
shapes = (
{
closed = 1;
nodes = (
(920,169,cs),
(875,169,o),
(850,198,o),
(850,279,cs),
(850,399,o),
(879,472,o),
(879,570,cs),
(879,757,o),
(720,963,o),
(521,963,cs),
(258,963,o),
(45,661,o),
(45,374,cs),
(45,153,o),
(243,-23,o),
(409,-23,cs),
(540,-23,o),
(649,76,o),
(736,187,c),
(736,85,o),
(825,-12,o),
(904,-12,cs),
(987,-12,o),
(1048,67,o),
(1048,134,cs),
(1048,193,o),
(1031,218,o),
(990,218,c),
(970,212,o),
(944,169,o)
);
},
{
closed = 1;
nodes = (
(181,381,cs),
(181,562,o),
(319,769,o),
(535,769,cs),
(619,769,o),
(753,664,o),
(753,600,c),
(726,423,o),
(696,169,o),
(441,169,cs),
(317,169,o),
(181,254,o)
);
}
);
width = 1021;
}
);
unicode = 97;
userData = {
com.typemytype.robofont.mark = (
1,
0.6,
0.6,
1
);
};
},
{
glyphname = aogonek;
lastChange = "2021-08-22 03:02:32 +0000";
layers = (
{
layerId = "81641B54-5DFF-4E7E-9A9F-73CB636BC82D";
shapes = (
{
closed = 1;
nodes = (
(722,-277,cs),
(686,-277,o),
(641,-244,o),
(623,-192,c),
(623,8,o),
(853,36,o),
(853,144,cs),
(853,200,o),
(812,223,o),
(798,223,c),
(753,195,o),
(745,177,o),
(681,132,cs),
(598,76,o),
(481,-43,o),
(481,-232,cs),
(481,-359,o),
(582,-450,o),
(710,-450,cs),
(790,-450,o),
(891,-433,o),
(891,-293,cs),
(891,-254,o),
(877,-213,o),
(850,-213,cs),
(792,-213,o),
(786,-277,o)
);
},
{
closed = 1;
nodes = (
(856,523,l),
(856,808,o),
(706,965,o),
(481,965,cs),
(367,965,o),
(116,942,o),
(116,818,cs),
(116,739,o),
(136,716,o),
(195,716,cs),
(213,716,o),
(243,734,o),
(258,740,cs),
(287,753,ls),
(319,769,o),
(374,781,o),
(441,781,cs),
(560,781,o),
(736,767,o),
(736,521,c),
(743,382,l),
(849,175,l)
);
},
{
closed = 1;
nodes = (
(820,208,cs),
(833,222,o),
(833,229,o),
(833,243,cs),
(833,282,ls),
(833,505,o),
(706,625,o),
(450,625,cs),
(179,625,o),
(79,502,o),
(79,289,cs),
(79,119,o),
(198,-20,o),
(400,-20,cs),
(633,-20,o),
(757,101,o)
);
},
{
closed = 1;
nodes = (
(200,297,cs),
(203,400,o),
(301,441,o),
(450,441,cs),
(563,441,o),
(719,413,o),
(732,317,c),
(688,250,o),
(578,160,o),
(427,160,cs),
(277,160,o),
(200,229,o)
);
}
);
width = 965;
}
);
unicode = 261;
},
{
glyphname = ae;
lastChange = "2021-08-22 03:02:32 +0000";
layers = (
{
anchors = (
{
name = btm;
pos = (808,-297);
},
{
name = top;
pos = (812,1515);
}
);
layerId = "81641B54-5DFF-4E7E-9A9F-73CB636BC82D";
shapes = (
{
closed = 1;
nodes = (
(1209,192,cs),
(1111,192,o),
(934,212,o),
(884,368,c),
(1404,553,o),
(1426,553,o),
(1471,570,c),
(1515,580,o),
(1532,605,o),
(1532,676,cs),
(1532,879,o),
(1351,994,o),
(1202,994,cs),
(907,994,o),
(753,781,o),
(753,446,cs),
(753,205,o),
(934,10,o),
(1138,10,cs),
(1217,10,o),
(1538,20,o),
(1538,165,cs),
(1538,232,o),
(1516,258,o),
(1465,258,cs),
(1410,258,o),
(1307,192,o)
);
},
{
closed = 1;
nodes = (
(1178,812,cs),
(1196,815,o),
(1217,818,o),
(1236,818,cs),
(1318,818,o),
(1372,767,o),
(1394,724,c),
(1278,679,o),
(1040,595,o),
(875,511,c),
(922,705,o),
(1050,781,o)
);
},
{
closed = 1;
nodes = (
(856,523,l),
(856,808,o),
(706,965,o),
(481,965,cs),
(367,965,o),
(116,942,o),
(116,818,cs),
(116,739,o),
(136,716,o),
(195,716,cs),
(213,716,o),
(243,734,o),
(258,740,cs),
(287,753,ls),
(319,769,o),
(374,781,o),
(441,781,cs),
(560,781,o),
(736,767,o),
(736,521,c),
(743,382,l),
(849,175,l)
);
},
{
closed = 1;
nodes = (
(820,208,cs),
(833,222,o),
(833,229,o),
(833,243,cs),
(833,282,ls),
(833,505,o),
(706,625,o),
(450,625,cs),
(179,625,o),
(79,502,o),
(79,289,cs),
(79,119,o),
(198,-20,o),
(400,-20,cs),
(633,-20,o),
(757,101,o)
);
},
{
closed = 1;
nodes = (
(200,297,cs),
(203,400,o),
(301,441,o),
(450,441,cs),
(563,441,o),
(719,413,o),
(732,317,c),
(688,250,o),
(578,160,o),
(427,160,cs),
(277,160,o),
(200,229,o)
);
}
);
width = 1646;
}
);
unicode = 230;
userData = {
com.typemytype.robofont.mark = (
1,
0.6,
0.6,
1
);
};
},
{
glyphname = b;
lastChange = "2021-08-22 03:02:32 +0000";
layers = (
{
anchors = (
{
name = btm;
pos = (481,-297);
},
{
name = top;
pos = (557,1515);
}
);
layerId = "81641B54-5DFF-4E7E-9A9F-73CB636BC82D";
shapes = (
{
closed = 1;
nodes = (
(859,492,cs),
(859,802,o),
(732,960,o),
(486,960,cs),
(403,960,o),
(324,924,o),
(253,881,c),
(253,1119,o),
(260,1246,o),
(260,1390,cs),
(260,1436,o),
(218,1467,o),
(193,1467,cs),
(136,1467,o),
(122,1426,o),
(122,1372,cs),
(105,284,l),
(105,198,ls),
(105,69,o),
(114,-12,o),
(181,-12,cs),
(213,-12,o),
(228,12,o),
(256,12,c),
(301,-2,o),
(347,-10,o),
(394,-10,cs),
(562,-10,o),
(859,119,o)
);
},
{
closed = 1;
nodes = (
(253,668,c),
(292,722,o),
(391,769,o),
(461,769,cs),
(555,769,o),
(716,684,o),
(716,553,cs),
(716,478,o),
(702,371,o),
(676,324,cs),
(625,243,o),
(486,179,o),
(394,179,cs),
(352,179,o),
(292,181,o),
(266,195,c),
(256,215,o),
(250,250,o),
(250,458,cs),
(250,515,o),
(250,585,o)
);
}
);
width = 942;
}
);
unicode = 98;
userData = {
com.typemytype.robofont.mark = (
1,
0.6,
0.6,
1
);
};
},
{
glyphname = bstroke;
lastChange = "2021-08-22 03:02:32 +0000";
layers = (
{
layerId = "81641B54-5DFF-4E7E-9A9F-73CB636BC82D";
shapes = (
{
closed = 1;
nodes = (
(859,492,cs),
(859,802,o),
(732,960,o),
(486,960,cs),
(403,960,o),
(324,924,o),
(253,881,c),
(253,963,o),
(253,1030,o),
(254,1092,c),
(317,1087,o),
(373,1072,o),
(431,1072,cs),
(454,1072,o),
(523,1093,o),
(523,1164,cs),
(523,1227,o),
(497,1268,o),
(454,1268,cs),
(388,1268,o),
(324,1264,o),
(258,1262,c),
(260,1305,o),
(260,1347,o),
(260,1390,cs),
(260,1436,o),
(218,1467,o),
(193,1467,cs),
(136,1467,o),
(122,1426,o),
(122,1372,cs),
(120,1260,l),
(99,1260,ls),
(60,1260,o),
(77,1268,o),
(55,1268,cs),
(12,1268,o),
(-15,1236,o),
(-15,1178,cs),
(-15,1089,o),
(26,1076,o),
(63,1076,cs),
(81,1076,o),
(99,1076,o),
(116,1078,c),
(105,284,l),
(105,198,ls),
(105,69,o),
(114,-12,o),
(181,-12,cs),
(213,-12,o),
(228,12,o),
(256,12,c),
(301,-2,o),
(347,-10,o),
(394,-10,cs),
(562,-10,o),
(859,119,o)
);
},
{
closed = 1;
nodes = (
(253,668,c),
(292,722,o),
(391,769,o),
(461,769,cs),
(555,769,o),
(716,684,o),
(716,553,cs),
(716,478,o),
(702,371,o),
(676,324,c),
(625,243,o),
(486,179,o),
(394,179,cs),
(352,179,o),
(292,181,o),
(266,195,c),
(256,215,o),
(250,250,o),
(250,458,cs),
(250,515,o),
(250,585,o)
);
}
);
width = 942;
}
);
unicode = 384;
},
{
glyphname = c;
lastChange = "2021-08-22 03:02:32 +0000";
layers = (
{
anchors = (
{
name = btm;
pos = (431,-297);
},
{
name = top;
pos = (439,1515);
}
);
layerId = "81641B54-5DFF-4E7E-9A9F-73CB636BC82D";
shapes = (
{
closed = 1;
nodes = (
(563,181,cs),
(317,181,o),
(208,225,o),
(208,423,cs),
(208,590,o),
(324,755,o),
(495,755,cs),
(679,755,o),
(676,586,o),
(743,586,cs),
(777,586,o),
(788,660,o),
(788,694,cs),
(788,846,o),
(668,958,o),
(528,958,cs),
(237,958,o),
(74,688,o),
(74,364,cs),
(74,71,o),
(247,-10,o),
(454,-10,cs),
(523,-10,o),
(582,-2,o),
(651,-2,cs),
(710,-2,ls),
(740,-2,o),
(792,58,o),
(792,105,cs),
(792,198,o),
(736,225,o),
(715,225,c),
(657,212,o),
(631,181,o)
);
}
);
width = 875;
}
);
unicode = 99;
userData = {
com.typemytype.robofont.mark = (
1,
0.6,
0.6,
1
);
};
},
{
glyphname = d;
lastChange = "2021-08-22 03:02:32 +0000";
layers = (
{
anchors = (
{
name = btm;
pos = (489,-297);
},
{
name = top;
pos = (225,1515);
}
);
layerId = "81641B54-5DFF-4E7E-9A9F-73CB636BC82D";
shapes = (
{
closed = 1;
nodes = (
(74,427,cs),
(74,165,o),
(192,-12,o),
(437,-12,cs),
(515,-12,o),
(664,20,o),
(734,88,c),
(750,43,o),
(769,-14,o),
(800,-14,cs),
(875,-14,o),
(884,105,o),
(885,254,cs),
(889,427,ls),
(889,433,o),
(889,439,o),
(901,1062,cs),
(901,1112,o),
(904,1312,o),
(904,1361,cs),
(904,1406,o),
(891,1456,o),
(849,1456,cs),
(798,1456,o),
(773,1421,o),
(773,1351,cs),
(773,1256,o),
(769,875,o),
(769,779,c),
(757,889,o),
(649,963,o),
(528,963,cs),
(240,963,o),
(74,702,o)
);
},
{
closed = 1;
nodes = (
(213,433,cs),
(213,631,o),
(334,775,o),
(532,775,cs),
(647,775,o),
(753,649,o),
(753,511,cs),
(753,454,ls),
(753,400,o),
(755,342,o),
(740,293,cs),
(726,248,o),
(631,165,o),
(462,165,cs),
(322,165,o),
(213,266,o)
);
}
);
width = 1021;
}
);
unicode = 100;
userData = {
com.typemytype.robofont.mark = (
1,
0.6,
0.6,
1
);
};
},
{
glyphname = eth;
lastChange = "2021-08-22 03:02:32 +0000";
layers = (
{
anchors = (
{
name = btm;
pos = (491,-297);
}
);
layerId = "81641B54-5DFF-4E7E-9A9F-73CB636BC82D";
shapes = (
{
closed = 1;
nodes = (
(555,1058,l),
(570,1068,o),
(574,1074,o),
(643,1133,c),
(777,1226,o),
(859,1236,o),
(859,1357,cs),
(859,1414,o),
(820,1429,o),
(804,1429,cs),
(705,1429,o),
(560,1209,o),
(489,1162,c),
(332,1097,ls),
(311,1089,o),
(303,1044,o),
(303,998,cs),
(303,963,o),
(317,914,o),
(359,914,cs),
(409,914,o),
(431,944,o),
(557,1058,c)
);
},
{
closed = 1;
nodes = (
(907,532,cs),
(907,839,o),
(643,1436,o),
(232,1436,cs),
(155,1436,o),
(130,1402,o),
(130,1340,cs),
(130,1295,o),
(139,1257,o),
(238,1257,cs),
(492,1257,o),
(757,808,o),
(757,600,c),
(705,751,o),
(557,849,o),
(441,849,cs),
(225,849,o),
(76,668,o),
(76,400,cs),
(76,130,o),
(274,-29,o),
(478,-29,cs),
(739,-29,o),
(907,139,o)
);
},
{
closed = 1;
nodes = (
(508,169,cs),
(377,169,o),
(198,229,o),
(198,403,cs),
(198,501,o),
(256,655,o),
(437,655,cs),
(555,655,o),
(724,523,o),
(753,344,c),
(726,254,o),
(621,169,o)
);
}
);
width = 1005;
}
);
unicode = 240;
userData = {
com.typemytype.robofont.mark = (
1,
0.6,
0.6,
1
);
};
},
{
glyphname = dcroat;
lastChange = "2021-08-22 03:02:32 +0000";
layers = (
{
layerId = "81641B54-5DFF-4E7E-9A9F-73CB636BC82D";
shapes = (
{
closed = 1;
nodes = (
(836,1126,c),
(999,1097,o),
(1018,1097,o),
(1021,1097,cs),
(1040,1097,o),
(1109,1149,o),
(1109,1216,cs),
(1109,1341,o),
(1003,1315,o),
(932,1315,cs),
(657,1315,o),
(598,1309,o),
(598,1209,cs),
(598,1123,o),
(633,1109,o),
(674,1109,cs),
(729,1109,o),
(781,1126,o)
);
},
{
ref = d;
}
);
width = 1021;
}
);
unicode = 273;
},
{
glyphname = e;
lastChange = "2021-08-22 03:02:32 +0000";
layers = (
{
anchors = (
{
name = btm;
pos = (472,-297);
},
{
name = top;
pos = (496,1564);
}
);
layerId = "81641B54-5DFF-4E7E-9A9F-73CB636BC82D";
shapes = (
{
closed = 1;
nodes = (
(542,160,cs),
(443,160,o),
(253,167,o),
(205,319,c),
(810,535,ls),
(844,547,o),
(866,596,o),
(866,664,cs),
(866,874,o),
(688,985,o),
(540,985,cs),
(244,985,o),
(74,747,o),
(74,411,cs),
(74,167,o),
(273,-20,o),
(471,-20,cs),
(552,-20,o),
(874,-12,o),
(874,134,cs),
(874,200,o),
(849,229,o),
(800,229,cs),
(745,229,o),
(643,160,o)
);
},
{
closed = 1;
nodes = (
(511,798,cs),
(615,798,o),
(712,767,o),
(750,686,c),
(633,641,o),
(356,517,o),
(195,471,c),
(228,706,o),
(431,798,o)
);
}
);
width = 958;
}
);
unicode = 101;
userData = {
com.typemytype.robofont.mark = (
1,
0.6,
0.6,
1
);
};
},
{
glyphname = eogonek;
lastChange = "2021-08-22 03:02:32 +0000";
layers = (
{
layerId = "81641B54-5DFF-4E7E-9A9F-73CB636BC82D";
shapes = (
{
closed = 1;
nodes = (
(715,-293,cs),
(678,-293,o),
(633,-260,o),
(615,-208,c),
(615,-8,o),
(844,-14,o),
(844,94,cs),
(844,149,o),
(804,173,o),
(790,173,c),
(745,144,o),
(736,105,o),
(674,60,cs),
(590,4,o),
(472,-59,o),
(472,-248,cs),
(472,-377,o),
(574,-466,o),
(702,-466,cs),
(781,-466,o),
(884,-450,o),
(884,-309,cs),
(884,-270,o),
(868,-230,o),
(843,-230,cs),
(783,-230,o),
(777,-293,o)
);
},
{
ref = e;
}
);
width = 958;
}
);
unicode = 281;
},
{
glyphname = schwa;
lastChange = "2021-08-22 03:02:32 +0000";
layers = (
{
layerId = "81641B54-5DFF-4E7E-9A9F-73CB636BC82D";
shapes = (
{
closed = 1;
nodes = (
(387,804,cs),
(483,804,o),
(676,798,o),
(722,645,c),
(119,429,ls),
(84,418,o),
(60,368,o),
(60,301,cs),
(60,91,o),
(240,-20,o),
(388,-20,cs),
(684,-20,o),
(854,218,o),
(854,553,cs),
(854,798,o),
(655,985,o),
(458,985,cs),
(377,985,o),
(55,977,o),
(55,831,cs),
(55,765,o),
(79,734,o),
(129,734,cs),
(183,734,o),
(284,804,o)
);
},
{
closed = 1;
nodes = (
(418,167,cs),
(313,167,o),
(215,198,o),
(179,279,c),
(295,324,o),
(571,448,o),
(732,495,c),
(700,258,o),
(497,167,o)
);
}
);
width = 938;
}
);
unicode = 601;
},
{
glyphname = f;
lastChange = "2021-08-22 03:02:32 +0000";
layers = (
{
anchors = (
{
name = btm;
pos = (421,-297);
},
{
name = top;
pos = (79,1777);
}
);
layerId = "81641B54-5DFF-4E7E-9A9F-73CB636BC82D";
shapes = (
{
closed = 1;
nodes = (
(374,305,cs),
(377,495,o),
(387,647,o),
(387,810,cs),
(387,975,o),
(409,1310,o),
(596,1310,cs),
(668,1310,o),
(706,1248,o),
(769,1248,cs),
(804,1248,o),
(808,1317,o),
(808,1345,cs),
(808,1439,o),
(649,1501,o),
(596,1501,cs),
(322,1501,o),
(247,1005,o),
(240,671,cs),
(238,508,o),
(229,364,o),
(229,218,cs),
(229,23,o),
(248,-10,o),
(342,-10,cs),
(374,-10,o),
(397,12,o),
(397,74,cs),
(397,177,o),
(374,274,o)
);
},
{
closed = 1;
nodes = (
(409,726,cs),
(466,726,o),
(511,724,o),
(652,716,c),
(684,716,o),
(745,719,o),
(745,820,cs),
(745,897,o),
(712,913,o),
(684,913,cs),
(666,913,o),
(645,909,o),
(626,907,c),
(247,907,l),
(103,913,ls),
(69,913,o),
(36,860,o),
(36,814,cs),
(36,767,o),
(66,716,o),
(101,716,cs),
(200,716,o),
(284,726,o)
);
}
);
width = 767;
}
);
unicode = 102;
userData = {
com.typemytype.robofont.mark = (
1,
0.6,
0.6,
1
);
};
},
{
glyphname = g;
lastChange = "2021-08-22 03:02:32 +0000";
layers = (
{
anchors = (
{
name = btm;
pos = (462,-297);
},
{
name = top;
pos = (450,1515);
}
);
layerId = "81641B54-5DFF-4E7E-9A9F-73CB636BC82D";
shapes = (
{
closed = 1;
nodes = (
(356,-237,cs),
(305,-237,o),
(293,-279,o),
(293,-339,cs),
(293,-456,o),
(502,-483,o),
(555,-483,cs),
(814,-483,o),
(796,-159,o),
(833,60,cs),
(833,66,o),
(834,69,o),
(834,74,cs),
(853,547,l),
(853,720,o),
(660,958,o),
(454,958,cs),
(192,958,o),
(74,688,o),
(74,416,cs),
(74,124,o),
(203,-23,o),
(441,-23,cs),
(533,-23,o),
(674,33,o),
(697,129,c),
(679,-31,o),
(694,-284,o),
(567,-284,cs),
(384,-284,o),
(397,-237,o)
);
},
{
closed = 1;
nodes = (
(213,429,c),
(215,605,o),
(279,765,o),
(476,765,cs),
(657,765,o),
(697,586,o),
(715,448,c),
(686,334,o),
(596,163,o),
(463,163,cs),
(317,163,o),
(213,220,o)
);
}
);
width = 955;
}
);
unicode = 103;
userData = {
com.typemytype.robofont.mark = (
1,
0.6,
0.6,
1
);
};
},
{
glyphname = h;
lastChange = "2021-08-22 03:02:32 +0000";
layers = (
{
anchors = (
{
name = btm;
pos = (502,-297);
},
{
name = top;
pos = (202,1548);
}
);
layerId = "81641B54-5DFF-4E7E-9A9F-73CB636BC82D";
shapes = (
{
closed = 1;
nodes = (
(736,85,cs),
(736,25,o),
(765,-25,o),
(814,-25,cs),
(891,-25,o),
(889,95,o),
(891,150,cs),
(901,476,l),
(901,678,o),
(834,949,o),
(491,949,cs),
(399,949,o),
(266,875,o),
(248,760,c),
(253,881,l),
(253,1048,o),
(266,1233,o),
(266,1394,cs),
(266,1398,ls),
(266,1443,o),
(238,1484,o),
(205,1484,cs),
(155,1484,o),
(122,1400,o),
(122,1355,cs),
(122,1003,o),
(105,454,o),
(105,99,cs),
(105,2,o),
(159,-5,o),
(183,-5,cs),
(247,-5,o),
(247,63,o),
(248,120,c),
(248,590,ls),
(248,660,o),
(367,757,o),
(489,757,cs),
(740,757,o),
(760,586,o),
(760,462,cs),
(760,439,ls),
(760,317,o),
(736,212,o)
);
}
);
width = 998;
}
);
unicode = 104;
userData = {
com.typemytype.robofont.mark = (
1,
0.6,
0.6,
1
);
};
},
{
glyphname = i;
lastChange = "2021-08-22 03:02:32 +0000";
layers = (
{
anchors = (
{
name = btm;
pos = (238,-297);
},
{
name = top;
pos = (169,1429);
}
);
layerId = "81641B54-5DFF-4E7E-9A9F-73CB636BC82D";
shapes = (
{
closed = 1;
nodes = (
(268,436,cs),
(268,580,o),
(284,745,o),
(289,864,c),
(289,920,o),
(284,967,o),
(240,967,cs),
(126,967,o),
(126,463,o),
(126,284,cs),
(126,136,o),
(132,91,o),
(134,79,cs),
(149,4,o),
(177,-23,o),
(225,-23,cs),
(256,-23,o),
(293,14,o),
(293,85,cs),
(293,184,o),
(268,329,o)
);
},
{
closed = 1;
nodes = (
(248,1414,cs),
(203,1414,o),
(144,1345,o),
(144,1282,cs),
(144,1191,o),
(218,1174,o),
(256,1174,cs),
(319,1174,o),
(349,1217,o),
(349,1299,cs),
(349,1392,o),
(293,1414,o)
);
}
);
width = 399;
}
);
unicode = 105;
userData = {
com.typemytype.robofont.mark = (
1,
0.6,
0.6,
1
);
};
},
{
glyphname = idotless;
lastChange = "2021-08-22 03:02:32 +0000";
layers = (
{
anchors = (
{
name = btm;
pos = (210,-297);
},
{
name = top;
pos = (222,1515);
}
);
layerId = "81641B54-5DFF-4E7E-9A9F-73CB636BC82D";
shapes = (
{
closed = 1;
nodes = (
(268,436,cs),
(268,580,o),
(284,745,o),
(289,864,c),
(289,920,o),
(284,967,o),
(240,967,cs),
(126,967,o),
(126,463,o),
(126,284,cs),
(126,136,o),
(132,91,o),
(134,79,cs),
(149,4,o),
(177,-23,o),
(225,-23,cs),
(256,-23,o),
(293,14,o),
(293,85,cs),
(293,184,o),
(268,329,o)
);
}
);
width = 400;
}
);
unicode = 305;
userData = {
com.typemytype.robofont.mark = (
1,
0.6,
0.6,
1
);
};
},
{
glyphname = iogonek;
lastChange = "2021-08-22 03:02:32 +0000";
layers = (
{
layerId = "81641B54-5DFF-4E7E-9A9F-73CB636BC82D";
shapes = (
{
closed = 1;
nodes = (
(165,-293,cs),
(129,-293,o),
(84,-260,o),
(66,-208,c),
(66,-8,o),
(295,-35,o),
(295,74,cs),
(295,129,o),
(254,153,o),
(240,153,c),
(195,124,o),
(187,105,o),
(124,60,cs),
(40,4,o),
(-77,-59,o),
(-77,-248,cs),
(-77,-377,o),
(25,-466,o),
(153,-466,cs),
(232,-466,o),
(334,-450,o),
(334,-309,cs),
(334,-270,o),
(319,-230,o),
(293,-230,cs),
(234,-230,o),
(228,-293,o)
);
},
{
ref = i;
}
);
width = 399;
}
);
unicode = 303;
},
{
glyphname = j;
lastChange = "2021-08-22 03:02:32 +0000";
layers = (
{
anchors = (
{
name = btm;
pos = (142,-297);
},
{
name = top;
pos = (228,1429);
}
);
layerId = "81641B54-5DFF-4E7E-9A9F-73CB636BC82D";
shapes = (
{
closed = 1;
nodes = (
(423,866,c),
(418,913,o),
(399,968,o),
(349,968,cs),
(284,968,o),
(274,868,o),
(273,796,c),
(270,222,ls),
(268,-39,o),
(256,-303,o),
(-41,-303,cs),
(-71,-303,ls),
(-119,-303,o),
(-153,-317,o),
(-153,-392,cs),
(-153,-495,o),
(-53,-495,o),
(-14,-495,cs),
(409,-495,o),
(403,-163,o),
(403,270,cs),
(403,349,o),
(400,421,o),
(400,481,cs),
(400,612,o),
(423,747,o)
);
},
{
closed = 1;
nodes = (
(337,1459,cs),
(289,1459,o),
(229,1390,o),
(229,1327,cs),
(229,1236,o),
(305,1217,o),
(344,1217,cs),
(408,1217,o),
(437,1262,o),
(437,1341,cs),
(437,1435,o),
(381,1459,o)
);
}
);
width = 570;
}
);
unicode = 106;
userData = {
com.typemytype.robofont.mark = (
1,
0.6,
0.6,
1
);
};
},
{
glyphname = jdotless;
lastChange = "2021-08-22 03:02:32 +0000";
layers = (
{
anchors = (
{
name = btm;
pos = (223,-297);
},
{
name = top;
pos = (225,1429);
}
);
layerId = "81641B54-5DFF-4E7E-9A9F-73CB636BC82D";
shapes = (
{
closed = 1;
nodes = (
(297,846,c),
(292,894,o),
(273,949,o),
(223,949,cs),
(160,949,o),
(146,849,o),
(146,775,cs),
(144,329,ls),
(142,67,o),
(132,-292,o),
(-167,-292,cs),
(-198,-292,ls),
(-244,-292,o),
(-279,-307,o),
(-279,-381,cs),
(-279,-483,o),
(-179,-483,o),
(-142,-483,cs),
(283,-483,o),
(277,-155,o),
(277,277,cs),
(277,354,o),
(274,421,o),
(274,481,cs),
(274,612,o),
(297,726,o)
);
}
);
width = 399;
}
);
unicode = 567;
userData = {
com.typemytype.robofont.mark = (
1,
0.6,
0.6,
1
);
};
},
{
glyphname = k;
lastChange = "2021-08-22 03:02:32 +0000";
layers = (
{
anchors = (
{
name = btm;
pos = (471,-297);
},
{
name = top;
pos = (532,1515);
}
);
layerId = "81641B54-5DFF-4E7E-9A9F-73CB636BC82D";
shapes = (
{
closed = 1;
nodes = (
(130,175,cs),
(130,150,o),
(129,112,o),
(129,91,cs),
(129,57,o),
(149,-14,o),
(205,-14,cs),
(254,-14,o),
(284,50,o),
(284,98,cs),
(284,163,o),
(282,243,o),
(282,301,c),
(473,532,l),
(645,69,o),
(660,49,o),
(660,49,c),
(660,49,o),
(660,49,o),
(660,49,c),
(674,-5,o),
(694,-29,o),
(724,-29,cs),
(771,-29,o),
(814,20,o),
(814,85,cs),
(814,112,o),
(783,184,o),
(783,184,c),
(734,293,o),
(740,253,o),
(688,373,cs),
(647,462,o),
(619,560,o),
(580,651,c),
(668,734,o),
(814,850,o),
(814,922,cs),
(814,932,ls),
(814,994,o),
(798,1023,o),
(740,1023,cs),
(716,1023,o),
(689,998,o),
(671,970,cs),
(282,462,l),
(282,466,o),
(282,471,o),
(282,476,cs),
(282,796,o),
(317,1074,o),
(317,1372,cs),
(317,1439,o),
(274,1475,o),
(250,1475,cs),
(218,1475,o),
(177,1433,o),
(175,1375,cs),
(146,359,ls),
(144,303,o),
(132,270,o)
);
}
);
width = 894;
}
);
unicode = 107;
userData = {
com.typemytype.robofont.mark = (
1,
0.6,
0.6,
1
);
};
},
{
glyphname = l;
lastChange = "2021-08-22 03:02:32 +0000";
layers = (
{
anchors = (
{
name = btm;
pos = (324,-297);
},
{
name = top;
pos = (237,1714);
}
);
layerId = "81641B54-5DFF-4E7E-9A9F-73CB636BC82D";
shapes = (
{
closed = 1;
nodes = (
(349,181,cs),
(301,181,o),
(289,311,o),
(292,433,cs),
(305,1394,ls),
(305,1435,o),
(283,1487,o),
(247,1487,cs),
(193,1487,o),
(173,1421,o),
(173,1340,cs),
(160,243,ls),
(159,85,o),
(213,-5,o),
(347,-5,cs),
(399,-5,o),
(489,50,o),
(489,134,cs),
(489,179,o),
(472,228,o),
(433,228,cs),
(397,228,o),
(387,181,o)
);
}
);
width = 518;
}
);
unicode = 108;
userData = {
com.typemytype.robofont.mark = (
1,
0.6,
0.6,
1
);
};
},
{
glyphname = lslash;
lastChange = "2021-08-22 03:02:32 +0000";
layers = (
{
layerId = "81641B54-5DFF-4E7E-9A9F-73CB636BC82D";
shapes = (
{
closed = 1;
nodes = (
(363,678,c),
(413,715,o),
(502,769,o),
(502,859,cs),
(502,907,o),
(461,926,o),
(421,926,cs),
(382,926,o),
(301,849,o),
(256,805,c),
(99,679,ls),
(69,655,o),
(33,625,o),
(33,588,cs),
(33,526,o),
(95,491,o),
(119,491,cs),
(175,491,o),
(256,619,o)
);
},
{
pos = (20,0);
ref = l;
}
);
width = 552;
}
);
unicode = 322;
},
{
glyphname = m;
lastChange = "2021-08-22 03:02:32 +0000";
layers = (
{
anchors = (
{
name = btm;
pos = (745,-297);
},
{
name = top;
pos = (726,1515);
}
);
layerId = "81641B54-5DFF-4E7E-9A9F-73CB636BC82D";
shapes = (
{
closed = 1;
nodes = (
(1194,99,cs),
(1194,50,o),
(1236,-23,o),
(1288,-23,cs),
(1355,-23,o),
(1381,192,o),
(1381,406,cs),
(1381,769,o),
(1237,920,o),
(1013,920,cs),
(914,920,o),
(753,839,o),
(724,694,c),
(724,881,o),
(533,949,o),
(443,949,cs),
(356,949,o),
(268,877,o),
(240,802,c),
(240,804,o),
(240,810,o),
(240,820,cs),
(240,905,o),
(212,926,o),
(181,926,cs),
(103,926,o),
(112,745,o),
(112,436,cs),
(112,373,o),
(114,289,o),
(114,181,cs),
(114,165,o),
(112,150,o),
(112,134,cs),
(112,124,ls),
(112,14,o),
(144,-12,o),
(198,-12,cs),
(218,-12,o),
(273,25,o),
(274,89,c),
(256,319,ls),
(253,384,o),
(248,461,o),
(248,528,cs),
(248,567,ls),
(248,702,o),
(293,757,o),
(441,757,cs),
(555,757,o),
(626,616,o),
(625,502,cs),
(621,203,ls),
(621,183,o),
(610,105,o),
(610,101,cs),
(610,8,o),
(661,-8,o),
(709,-8,cs),
(747,-8,o),
(775,49,o),
(775,114,cs),
(775,120,o),
(767,169,o),
(767,175,cs),
(777,582,l),
(812,674,o),
(934,734,o),
(1005,734,cs),
(1156,734,o),
(1238,600,o),
(1238,492,cs),
(1238,437,o),
(1237,391,o),
(1237,337,cs),
(1237,228,o),
(1194,203,o)
);
}
);
width = 1496;
}
);
unicode = 109;
userData = {
com.typemytype.robofont.mark = (
1,
0.6,
0.6,
1
);
};
},
{
glyphname = n;
lastChange = "2021-08-22 03:02:32 +0000";
layers = (
{
anchors = (
{
name = btm;
pos = (507,-297);
},
{
name = top;
pos = (511,1547);
}
);
layerId = "81641B54-5DFF-4E7E-9A9F-73CB636BC82D";
shapes = (
{
closed = 1;
nodes = (
(734,84,cs),
(734,-23,o),
(769,-29,o),
(812,-29,cs),
(901,-29,o),
(909,237,o),
(909,439,cs),
(909,684,o),
(839,967,o),
(563,967,cs),
(478,967,o),
(292,889,o),
(244,720,c),
(248,760,o),
(253,798,o),
(253,829,cs),
(253,920,o),
(225,960,o),
(177,960,cs),
(120,960,o),
(105,818,o),
(105,726,cs),
(105,696,ls),
(105,671,o),
(105,643,o),
(116,501,c),
(112,109,ls),
(109,0,o),
(160,-12,o),
(205,-12,cs),
(268,-12,o),
(274,40,o),
(274,103,cs),
(274,195,o),
(243,274,o),
(243,367,cs),
(243,427,o),
(247,521,o),
(247,586,c),
(313,694,o),
(448,775,o),
(532,775,cs),
(745,775,o),
(775,540,o),
(775,384,cs),
(775,277,o),
(734,184,o)
);
}
);
width = 1005;
}
);
unicode = 110;
userData = {
com.typemytype.robofont.mark = (
1,
0.6,
0.6,
1
);
};
},
{
glyphname = eng;
lastChange = "2021-08-22 03:02:32 +0000";
layers = (
{
layerId = "81641B54-5DFF-4E7E-9A9F-73CB636BC82D";
shapes = (
{
closed = 1;
nodes = (
(757,10,l),
(753,-203,o),
(629,-228,o),
(489,-228,cs),
(473,-228,o),
(461,-228,o),
(443,-228,cs),
(387,-228,o),
(349,-247,o),
(349,-317,cs),
(349,-421,o),
(450,-421,o),
(491,-421,cs),
(846,-421,o),
(905,-189,o),
(909,139,cs),
(913,319,ls),
(916,615,o),
(877,967,o),
(563,967,cs),
(478,967,o),
(317,849,o),
(238,765,c),
(243,796,o),
(244,820,o),
(244,843,cs),
(244,926,o),
(218,960,o),
(177,960,cs),
(120,960,o),
(105,818,o),
(105,726,c),
(114,550,o),
(116,523,o),
(116,501,cs),
(112,98,ls),
(109,-10,o),
(160,-25,o),
(205,-25,cs),
(270,-25,o),
(273,31,o),
(274,94,cs),
(274,116,o),
(243,240,o),
(243,352,cs),
(243,427,o),
(247,521,o),
(247,586,c),
(313,694,o),
(448,775,o),
(532,775,cs),
(753,775,o),
(775,511,o),
(775,352,c)
);
}
);
width = 1005;
}
);
unicode = 331;
userData = {
com.typemytype.robofont.mark = (
0.967,
0.6,
1,
1
);
};
},
{
glyphname = o;
lastChange = "2021-08-22 03:02:32 +0000";
layers = (
{
anchors = (
{
name = btm;
pos = (478,-297);
},
{
name = top;
pos = (483,1515);
}
);
layerId = "81641B54-5DFF-4E7E-9A9F-73CB636BC82D";
shapes = (
{
closed = 1;
nodes = (
(884,462,cs),
(884,769,o),
(743,965,o),
(502,965,cs),
(293,965,o),
(76,829,o),
(76,462,cs),
(76,243,o),
(258,-23,o),
(478,-23,cs),
(684,-23,o),
(884,175,o)
);
},
{
closed = 1;
nodes = (
(468,163,cs),
(334,163,o),
(205,324,o),
(205,483,cs),
(205,678,o),
(374,775,o),
(526,775,cs),
(655,775,o),
(753,652,o),
(753,471,cs),
(753,274,o),
(612,163,o)
);
}
);
width = 968;
}
);
unicode = 111;
userData = {
com.typemytype.robofont.mark = (
1,
0.6,
0.6,
1
);
};
},
{
glyphname = ohorn;
lastChange = "2021-08-22 03:02:32 +0000";
layers = (
{
anchors = (
{
name = btm;
pos = (481,-297);
},
{
name = top;
pos = (499,1515);
}
);
layerId = "81641B54-5DFF-4E7E-9A9F-73CB636BC82D";
shapes = (
{
closed = 1;
nodes = (
(884,462,cs),
(884,769,o),
(743,965,o),
(502,965,cs),
(293,965,o),
(76,829,o),
(76,462,cs),
(76,243,o),
(258,-23,o),
(478,-23,cs),
(684,-23,o),
(884,175,o)
);
},
{
closed = 1;
nodes = (
(468,163,cs),
(334,163,o),
(205,324,o),
(205,483,cs),
(205,678,o),
(374,775,o),
(526,775,cs),
(655,775,o),
(753,652,o),
(753,471,cs),
(753,274,o),
(612,163,o)
);
},
{
closed = 1;
nodes = (
(909,970,cs),
(946,970,o),
(1013,936,o),
(1013,884,cs),
(1013,743,o),
(753,815,o),
(753,688,cs),
(753,636,o),
(792,607,o),
(815,607,c),
(1074,679,o),
(1156,740,o),
(1156,926,cs),
(1156,1054,o),
(1054,1146,o),
(924,1146,cs),
(849,1146,o),
(722,1109,o),
(722,1030,cs),
(722,988,o),
(732,946,o),
(760,946,cs),
(825,946,o),
(823,970,o)
);
}
);
width = 968;
}
);
unicode = 417;
userData = {
com.typemytype.robofont.mark = (
1,
0.6,
0.6,
1
);
};
},
{
glyphname = oslash;
lastChange = "2021-08-22 03:02:32 +0000";
layers = (
{
layerId = "81641B54-5DFF-4E7E-9A9F-73CB636BC82D";
shapes = (
{
closed = 1;
nodes = (
(105,29,cs),
(105,-26,o),
(136,-66,o),
(193,-66,cs),
(229,-66,o),
(282,23,o),
(289,39,c),
(337,14,o),
(429,-23,o),
(476,-23,cs),
(684,-23,o),
(884,175,o),
(884,462,cs),
(884,595,o),
(853,710,o),
(808,792,c),
(868,841,o),
(889,859,o),
(889,909,cs),
(889,960,o),
(871,988,o),
(831,988,cs),
(790,988,o),
(732,930,o),
(709,901,c),
(652,940,o),
(582,963,o),
(501,963,cs),
(297,963,o),
(79,829,o),
(79,462,cs),
(79,368,o),
(124,243,o),
(173,160,c),
(150,129,o),
(105,91,o)
);
},
{
closed = 1;
nodes = (
(205,481,cs),
(205,681,o),
(368,775,o),
(525,775,cs),
(562,775,o),
(578,775,o),
(592,767,c),
(517,660,ls),
(456,574,o),
(382,473,o),
(344,408,c),
(266,293,l),
(256,309,o),
(205,400,o)
);
},
{
closed = 1;
nodes = (
(753,463,cs),
(751,273,o),
(610,163,o),
(468,163,cs),
(433,163,o),
(399,175,o),
(373,187,c),
(462,315,o),
(600,535,o),
(696,666,c),
(736,629,o),
(753,532,o)
);
}
);
width = 968;
}
);
unicode = 248;
},
{
glyphname = oe;
lastChange = "2021-08-22 03:02:32 +0000";
layers = (
{
anchors = (
{
name = btm;
pos = (818,-297);
}
);
layerId = "81641B54-5DFF-4E7E-9A9F-73CB636BC82D";
shapes = (
{
closed = 1;
nodes = (
(863,448,cs),
(863,491,o),
(875,544,o),
(879,590,cs),
(879,600,o),
(879,615,o),
(875,625,cs),
(814,802,o),
(681,965,o),
(515,965,cs),
(301,965,o),
(84,829,o),
(84,462,cs),
(84,243,o),
(268,-23,o),
(489,-23,cs),
(623,-23,o),
(866,124,o),
(866,326,cs),
(866,377,o),
(863,406,o)
);
},
{
closed = 1;
nodes = (
(802,421,c),
(781,322,o),
(775,287,o),
(775,273,cs),
(775,266,o),
(775,263,o),
(777,260,cs),
(850,105,o),
(1009,-20,o),
(1152,-20,cs),
(1236,-20,o),
(1555,-12,o),
(1555,134,cs),
(1555,200,o),
(1532,229,o),
(1485,229,cs),
(1417,229,o),
(1325,160,o),
(1226,160,cs),
(1126,160,o),
(944,179,o),
(897,329,c),
(999,371,o),
(1126,411,o),
(1429,517,c),
(1489,528,o),
(1551,542,o),
(1551,643,cs),
(1551,850,o),
(1370,963,o),
(1221,963,cs),
(993,963,o),
(833,815,o),
(773,598,cs),
(773,595,o),
(773,590,o),
(773,586,cs),
(773,525,o),
(802,472,o)
);
},
{
closed = 1;
nodes = (
(1191,775,cs),
(1299,775,o),
(1381,745,o),
(1406,689,c),
(1295,645,o),
(1050,560,o),
(894,515,c),
(932,715,o),
(1112,775,o)
);
},
{
closed = 1;
nodes = (
(473,163,cs),
(342,163,o),
(212,324,o),
(212,483,cs),
(212,678,o),
(382,775,o),
(533,775,cs),
(666,775,o),
(771,652,o),
(771,471,cs),
(771,274,o),
(621,163,o)
);
}
);
width = 1662;
}
);
unicode = 339;
userData = {
com.typemytype.robofont.mark = (
1,
0.6,
0.6,
1
);
};
},
{
glyphname = p;
lastChange = "2021-08-22 03:02:32 +0000";
layers = (
{
anchors = (
{
name = btm;
pos = (507,-297);
},
{
name = top;
pos = (495,1515);
}
);
layerId = "81641B54-5DFF-4E7E-9A9F-73CB636BC82D";
shapes = (
{
closed = 1;
nodes = (
(189,-511,cs),
(223,-511,o),
(270,-483,o),
(270,-428,cs),
(270,-289,o),
(250,-212,o),
(250,-68,cs),
(250,14,l),
(319,0,o),
(368,-10,o),
(441,-10,cs),
(726,-10,o),
(907,215,o),
(907,562,cs),
(907,788,o),
(743,967,o),
(441,967,cs),
(342,967,o),
(189,922,o),
(124,777,c),
(105,-155,o),
(105,-240,o),
(105,-303,cs),
(105,-443,o),
(105,-511,o)
);
},
{
closed = 1;
nodes = (
(253,689,ls),
(254,747,o),
(378,779,o),
(439,779,cs),
(641,779,o),
(767,696,o),
(767,532,cs),
(767,287,o),
(582,179,o),
(381,179,cs),
(352,179,o),
(253,181,o),
(254,193,c),
(254,193,o),
(244,391,o),
(247,436,cs)
);
}
);
width = 1003;
}
);
unicode = 112;
userData = {
com.typemytype.robofont.mark = (
1,
0.6,
0.6,
1
);
};
},
{
glyphname = thorn;
lastChange = "2021-08-22 03:02:32 +0000";
layers = (
{
anchors = (
{
name = btm;
pos = (478,-297);
}
);
layerId = "81641B54-5DFF-4E7E-9A9F-73CB636BC82D";
shapes = (
{
closed = 1;
nodes = (
(859,492,cs),
(859,802,o),
(739,960,o),
(472,960,cs),
(403,960,o),
(311,932,o),
(256,866,c),
(256,936,o),
(266,1204,o),
(266,1372,cs),
(266,1433,o),
(223,1461,o),
(195,1461,cs),
(134,1461,o),
(129,1412,o),
(126,1328,cs),
(99,-258,l),
(101,-349,o),
(130,-381,o),
(187,-381,cs),
(218,-381,o),
(253,-347,o),
(253,-273,cs),
(253,-232,o),
(253,-142,o),
(243,33,c),
(292,-5,o),
(342,-10,o),
(368,-10,cs),
(565,-10,o),
(859,119,o)
);
},
{
closed = 1;
nodes = (
(253,668,l),
(293,720,o),
(391,769,o),
(462,769,cs),
(598,769,o),
(716,702,o),
(716,528,cs),
(716,319,o),
(563,181,o),
(382,181,cs),
(277,181,o),
(253,150,o),
(253,332,c),
(250,356,o),
(253,391,o),
(253,429,cs)
);
}
);
width = 970;
}
);
unicode = 254;
userData = {
com.typemytype.robofont.mark = (
1,
0.6,
0.6,
1
);
};
},
{
glyphname = q;
lastChange = "2021-08-22 03:02:32 +0000";
layers = (
{
anchors = (
{
name = btm;
pos = (476,-297);
},
{
name = top;
pos = (423,1515);
}
);
layerId = "81641B54-5DFF-4E7E-9A9F-73CB636BC82D";
shapes = (
{
closed = 1;
nodes = (
(696,-399,ls),
(696,-403,o),
(696,-408,o),
(696,-411,cs),
(696,-473,o),
(726,-491,o),
(775,-491,cs),
(800,-491,o),
(850,-471,o),
(850,-408,cs),
(850,-203,ls),
(850,165,o),
(866,377,o),
(866,574,cs),
(866,836,o),
(635,975,o),
(483,975,cs),
(254,975,o),
(85,743,o),
(85,443,cs),
(85,229,o),
(220,-5,o),
(461,-5,cs),
(553,-5,o),
(696,74,o),
(719,159,c),
(716,-14,l)
);
},
{
closed = 1;
nodes = (
(220,468,cs),
(220,661,o),
(354,788,o),
(507,788,cs),
(590,788,o),
(684,729,o),
(724,621,c),
(724,454,o),
(681,189,o),
(476,189,cs),
(297,189,o),
(220,342,o)
);
}
);
width = 968;
}
);
unicode = 113;
userData = {
com.typemytype.robofont.mark = (
1,
0.6,
0.6,
1
);
};
},
{
glyphname = r;
lastChange = "2021-08-22 03:02:32 +0000";
layers = (
{
anchors = (
{
name = btm;
pos = (202,-297);
},
{
name = top;
pos = (478,1515);
}
);
layerId = "81641B54-5DFF-4E7E-9A9F-73CB636BC82D";
shapes = (
{
closed = 1;
nodes = (
(580,783,cs),
(712,783,o),
(661,706,o),
(729,706,cs),
(773,706,o),
(818,751,o),
(818,814,cs),
(818,958,o),
(685,973,o),
(610,973,cs),
(513,973,o),
(332,868,o),
(289,732,c),
(292,752,o),
(292,825,o),
(292,841,cs),
(292,928,o),
(258,952,o),
(237,952,cs),
(187,952,o),
(163,907,o),
(159,844,cs),
(126,418,o),
(129,392,o),
(129,313,cs),
(129,297,o),
(129,282,o),
(129,253,cs),
(129,223,o),
(126,183,o),
(126,119,cs),
(126,35,o),
(144,-5,o),
(210,-5,cs),
(266,-5,o),
(284,71,o),
(284,98,cs),
(274,406,ls),
(274,418,o),
(274,429,o),
(274,441,cs),
(274,666,o),
(349,783,o),
(557,783,cs),
(563,783,o),
(570,783,o)
);
}
);
width = 808;
}
);
unicode = 114;
userData = {
com.typemytype.robofont.mark = (
1,
0.6,
0.6,
1
);
};
},
{
glyphname = s;
lastChange = "2021-08-22 03:02:32 +0000";
layers = (
{
anchors = (
{
name = btm;
pos = (462,-297);
},
{
name = top;
pos = (456,1515);
}
);
layerId = "81641B54-5DFF-4E7E-9A9F-73CB636BC82D";
shapes = (
{
closed = 1;
nodes = (
(820,247,cs),
(820,544,o),
(243,411,o),
(243,619,cs),
(243,709,o),
(403,792,o),
(501,792,cs),
(590,792,o),
(645,775,o),
(645,709,cs),
(645,657,o),
(649,623,o),
(681,623,cs),
(750,623,o),
(750,734,o),
(750,802,cs),
(750,899,o),
(660,988,o),
(525,988,cs),
(334,988,o),
(105,849,o),
(105,607,cs),
(105,274,o),
(686,382,o),
(686,237,cs),
(686,215,o),
(540,163,o),
(429,163,cs),
(332,163,o),
(292,173,o),
(240,240,cs),
(229,250,o),
(218,258,o),
(215,258,cs),
(183,258,o),
(150,187,o),
(150,153,cs),
(150,-10,o),
(322,-31,o),
(408,-31,cs),
(525,-31,o),
(820,40,o)
);
}
);
width = 916;
}
);
unicode = 115;
userData = {
com.typemytype.robofont.mark = (
1,
0.6,
0.6,
1
);
};
},
{
glyphname = germandbls;
lastChange = "2021-08-22 03:02:32 +0000";
layers = (
{
anchors = (
{
name = btm;
pos = (560,-297);
}
);
layerId = "81641B54-5DFF-4E7E-9A9F-73CB636BC82D";
shapes = (
{
closed = 1;
nodes = (
(270,679,c),
(270,829,o),
(292,1128,o),
(532,1128,cs),
(600,1128,o),
(664,1107,o),
(664,1064,cs),
(664,866,o),
(349,958,o),
(349,681,cs),
(349,378,o),
(853,499,o),
(853,344,cs),
(853,228,o),
(719,175,o),
(645,175,cs),
(557,175,o),
(497,184,o),
(497,212,cs),
(497,297,o),
(456,313,o),
(427,313,cs),
(384,313,o),
(356,248,o),
(356,184,cs),
(356,74,o),
(461,-20,o),
(619,-20,cs),
(796,-20,o),
(988,101,o),
(988,364,cs),
(988,691,o),
(495,651,o),
(495,696,cs),
(495,696,o),
(792,810,o),
(792,1068,cs),
(792,1204,o),
(678,1317,o),
(535,1317,cs),
(273,1317,o),
(142,1064,o),
(134,689,cs),
(134,635,o),
(134,521,o),
(139,448,c),
(132,119,ls),
(130,23,o),
(146,-25,o),
(225,-25,cs),
(279,-25,o),
(289,0,o),
(292,95,cs),
(292,103,o),
(287,132,o)
);
}
);
width = 1033;
}
);
unicode = 223;
userData = {
com.typemytype.robofont.guides = (
{
angle = 0;
isGlobal = 0;
magnetic = 5;
x = 0;
y = 1288;
}
);
com.typemytype.robofont.mark = (
1,
0.6,
0.6,
1
);
};
},
{
glyphname = t;
lastChange = "2021-08-22 03:02:32 +0000";
layers = (
{
anchors = (
{
name = btm;
pos = (400,-297);
},
{
name = top;
pos = (364,1672);
}
);
layerId = "81641B54-5DFF-4E7E-9A9F-73CB636BC82D";
shapes = (
{
closed = 1;
nodes = (
(497,-10,cs),
(567,-10,o),
(694,105,o),
(694,193,cs),
(694,237,o),
(686,256,o),
(651,256,cs),
(643,256,o),
(562,184,o),
(491,184,cs),
(392,184,o),
(377,329,o),
(377,483,cs),
(377,582,o),
(381,709,o),
(381,757,c),
(689,753,ls),
(719,753,o),
(757,783,o),
(757,844,cs),
(757,884,o),
(745,952,o),
(702,952,cs),
(595,952,o),
(489,946,o),
(382,946,c),
(391,987,ls),
(394,1020,o),
(406,1076,o),
(406,1204,cs),
(406,1257,o),
(371,1297,o),
(346,1297,cs),
(258,1297,o),
(250,1028,o),
(248,949,c),
(205,952,o),
(167,955,o),
(130,955,cs),
(88,955,o),
(45,907,o),
(45,849,cs),
(45,788,o),
(105,753,o),
(130,753,cs),
(173,753,o),
(205,757,o),
(238,757,c),
(268,489,o),
(181,-10,o)
);
}
);
width = 804;
}
);
unicode = 116;
userData = {
com.typemytype.robofont.mark = (
1,
0.6,
0.6,
1
);
};
},
{
glyphname = tbar;
lastChange = "2021-08-22 03:02:32 +0000";
layers = (
{
layerId = "81641B54-5DFF-4E7E-9A9F-73CB636BC82D";
shapes = (
{
closed = 1;
nodes = (
(639,421,ls),
(649,421,o),
(661,418,o),
(671,418,cs),
(694,418,o),
(712,429,o),
(712,497,cs),
(712,580,o),
(681,595,o),
(651,595,cs),
(540,595,o),
(292,571,o),
(203,571,cs),
(169,571,o),
(139,578,o),
(119,578,cs),
(91,578,o),
(50,525,o),
(50,476,cs),
(50,433,o),
(74,392,o),
(126,392,c)
);
},
{
ref = t;
}
);
width = 804;
}
);
unicode = 359;
userData = {
com.typemytype.robofont.mark = (
0.6,
0.986,
1,
1
);
};
},
{
glyphname = u;
lastChange = "2021-08-22 03:02:32 +0000";
layers = (
{
anchors = (
{
name = btm;
pos = (458,-297);
},
{
name = top;
pos = (462,1515);
}
);
layerId = "81641B54-5DFF-4E7E-9A9F-73CB636BC82D";
shapes = (
{
closed = 1;
nodes = (
(215,960,cs),
(116,960,o),
(88,674,o),
(88,495,cs),
(88,307,o),
(122,-29,o),
(421,-29,cs),
(523,-29,o),
(643,81,o),
(678,232,c),
(676,200,o),
(676,173,o),
(676,149,cs),
(676,5,o),
(696,-10,o),
(751,-10,cs),
(796,-10,o),
(814,8,o),
(815,85,cs),
(831,881,ls),
(831,934,o),
(798,960,o),
(771,960,cs),
(745,960,o),
(697,940,o),
(697,875,cs),
(694,596,ls),
(691,535,o),
(688,446,o),
(681,352,c),
(621,253,o),
(547,163,o),
(411,163,cs),
(247,163,o),
(222,408,o),
(222,518,cs),
(222,655,o),
(270,804,o),
(270,889,cs),
(270,932,o),
(256,960,o)
);
}
);
width = 938;
}
);
unicode = 117;
userData = {
com.typemytype.robofont.mark = (
1,
0.6,
0.6,
1
);
};
},
{
glyphname = uhorn;
lastChange = "2021-08-22 03:02:32 +0000";
layers = (
{
anchors = (
{
name = btm;
pos = (433,-297);
},
{
name = top;
pos = (347,1515);
}
);
layerId = "81641B54-5DFF-4E7E-9A9F-73CB636BC82D";
shapes = (
{
closed = 1;
nodes = (
(884,1107,cs),
(920,1107,o),
(987,1072,o),
(987,1020,cs),
(987,879,o),
(726,952,o),
(726,823,cs),
(726,773,o),
(765,745,o),
(790,745,c),
(1048,815,o),
(1129,877,o),
(1129,1062,cs),
(1129,1191,o),
(1028,1282,o),
(897,1282,cs),
(822,1282,o),
(696,1246,o),
(696,1166,cs),
(696,1126,o),
(706,1083,o),
(734,1083,cs),
(800,1083,o),
(798,1107,o)
);
},
{
closed = 1;
nodes = (
(215,960,cs),
(116,960,o),
(88,674,o),
(88,495,cs),
(88,307,o),
(122,-29,o),
(421,-29,cs),
(523,-29,o),
(643,81,o),
(678,232,c),
(676,200,o),
(676,173,o),
(676,149,cs),
(676,5,o),
(696,-10,o),
(751,-10,cs),
(796,-10,o),
(814,8,o),
(815,85,cs),
(831,881,ls),
(831,934,o),
(798,960,o),
(771,960,cs),
(745,960,o),
(697,940,o),
(697,875,cs),
(694,596,ls),
(691,535,o),
(688,440,o),
(681,346,c),
(621,247,o),
(547,163,o),
(411,163,cs),
(247,163,o),
(222,408,o),
(222,518,cs),
(222,655,o),
(270,804,o),
(270,889,cs),
(270,932,o),
(256,960,o)
);
}
);
width = 938;
}
);
unicode = 432;
userData = {
com.typemytype.robofont.mark = (
1,
0.6,
0.6,
1
);
};
},
{
glyphname = uogonek;
lastChange = "2021-08-22 03:02:32 +0000";
layers = (
{
layerId = "81641B54-5DFF-4E7E-9A9F-73CB636BC82D";
shapes = (
{
closed = 1;
nodes = (
(755,-293,cs),
(719,-293,o),
(674,-260,o),
(655,-208,c),
(655,-8,o),
(815,-35,o),
(815,74,cs),
(815,129,o),
(775,153,o),
(760,153,c),
(716,124,o),
(750,105,o),
(686,60,cs),
(602,4,o),
(512,-59,o),
(512,-248,cs),
(512,-377,o),
(615,-466,o),
(743,-466,cs),
(822,-466,o),
(924,-450,o),
(924,-309,cs),
(924,-270,o),
(909,-230,o),
(884,-230,cs),
(823,-230,o),
(818,-293,o)
);
},
{
ref = u;
}
);
width = 938;
}
);
unicode = 371;
},
{
glyphname = v;
lastChange = "2021-08-22 03:02:32 +0000";
layers = (
{
anchors = (
{
name = btm;
pos = (461,-297);
},
{
name = top;
pos = (426,1515);
}
);
layerId = "81641B54-5DFF-4E7E-9A9F-73CB636BC82D";
shapes = (
{
closed = 1;
nodes = (
(101,952,cs),
(53,952,o),
(49,894,o),
(49,849,cs),
(49,800,o),
(66,753,o),
(81,719,c),
(181,356,o),
(297,-29,o),
(382,-29,cs),
(476,-29,o),
(641,347,o),
(722,540,c),
(849,786,o),
(874,829,o),
(874,874,cs),
(874,934,o),
(853,983,o),
(818,983,cs),
(786,983,o),
(743,905,o),
(666,751,c),
(472,305,o),
(429,232,o),
(411,213,c),
(301,461,o),
(258,645,o),
(195,846,cs),
(175,916,o),
(159,952,o)
);
}
);
width = 907;
}
);
unicode = 118;
userData = {
com.typemytype.robofont.mark = (
1,
0.6,
0.6,
1
);
};
},
{
glyphname = w;
lastChange = "2021-08-22 03:02:32 +0000";
layers = (
{
anchors = (
{
name = btm;
pos = (706,-297);
},
{
name = top;
pos = (681,1515);
}
);
layerId = "81641B54-5DFF-4E7E-9A9F-73CB636BC82D";
shapes = (
{
closed = 1;
nodes = (
(1310,571,cs),
(1310,681,o),
(1276,783,o),
(1276,881,c),
(1268,968,o),
(1226,990,o),
(1201,990,cs),
(1147,990,o),
(1123,940,o),
(1123,874,cs),
(1123,836,o),
(1144,798,o),
(1154,773,c),
(1181,697,o),
(1183,574,o),
(1183,525,cs),
(1183,303,o),
(999,183,o),
(864,183,cs),
(755,183,o),
(753,364,o),
(753,540,cs),
(753,641,ls),
(753,775,o),
(750,885,o),
(688,885,cs),
(625,885,o),
(598,802,o),
(598,760,cs),
(598,679,o),
(610,525,o),
(610,508,cs),
(607,334,o),
(491,150,o),
(381,139,c),
(273,238,o),
(244,508,o),
(244,678,cs),
(244,732,o),
(250,796,o),
(250,863,cs),
(250,875,ls),
(250,930,o),
(238,960,o),
(198,960,cs),
(165,960,o),
(103,891,o),
(103,647,cs),
(103,544,o),
(105,-69,o),
(377,-69,cs),
(478,-69,o),
(602,58,o),
(649,222,c),
(686,67,o),
(765,-31,o),
(859,-31,cs),
(1087,-31,o),
(1310,243,o)
);
}
);
width = 1402;
}
);
unicode = 119;
userData = {
com.typemytype.robofont.mark = (
1,
0.6,
0.6,
1
);
};
},
{
glyphname = x;
lastChange = "2021-08-22 03:02:32 +0000";
layers = (
{
anchors = (
{
name = btm;
pos = (423,-297);
},
{
name = top;
pos = (387,1515);
}
);
layerId = "81641B54-5DFF-4E7E-9A9F-73CB636BC82D";
shapes = (
{
closed = 1;
nodes = (
(334,729,ls),
(282,841,o),
(218,968,o),
(183,968,cs),
(139,968,o),
(116,926,o),
(116,884,cs),
(116,846,o),
(126,786,o),
(150,757,c),
(215,655,o),
(248,552,o),
(305,461,c),
(237,359,o),
(175,282,o),
(122,203,cs),
(101,175,o),
(74,144,o),
(74,84,cs),
(74,0,o),
(116,-18,o),
(165,-18,cs),
(212,-18,o),
(238,74,o),
(243,120,c),
(349,274,o),
(363,284,o),
(368,301,c),
(423,210,o),
(570,-25,o),
(696,-25,cs),
(732,-25,o),
(773,4,o),
(773,101,cs),
(773,149,o),
(753,179,o),
(712,179,cs),
(621,179,o),
(499,392,o),
(468,466,c),
(542,590,o),
(626,706,o),
(726,804,c),
(757,843,o),
(771,864,o),
(771,889,cs),
(771,934,o),
(753,973,o),
(706,973,cs),
(631,973,o),
(511,777,o),
(399,590,c)
);
}
);
width = 808;
}
);
unicode = 120;
userData = {
com.typemytype.robofont.guides = (
{
angle = 0;
isGlobal = 0;
magnetic = 5;
x = 0;
y = 1515;
}
);
com.typemytype.robofont.mark = (
1,
0.6,
0.6,
1
);
};
},
{
glyphname = y;
lastChange = "2021-08-22 03:02:32 +0000";
layers = (
{
anchors = (
{
name = btm;
pos = (726,-297);
},
{
name = top;
pos = (452,1515);
}
);
layerId = "81641B54-5DFF-4E7E-9A9F-73CB636BC82D";
shapes = (
{
closed = 1;
nodes = (
(142,-392,cs),
(142,-437,o),
(210,-501,o),
(243,-501,cs),
(284,-501,o),
(311,-436,o),
(311,-383,cs),
(311,-203,o),
(557,225,o),
(660,437,cs),
(734,592,o),
(802,679,o),
(839,740,cs),
(899,836,o),
(913,856,o),
(913,891,cs),
(913,924,o),
(897,968,o),
(868,968,cs),
(820,968,o),
(769,932,o),
(736,868,cs),
(270,-36,l),
(213,-136,o),
(144,-320,o)
);
},
{
closed = 1;
nodes = (
(456,254,l),
(421,315,o),
(273,686,o),
(203,885,cs),
(187,928,o),
(175,968,o),
(142,968,cs),
(101,968,o),
(66,926,o),
(63,859,cs),
(63,839,o),
(71,800,o),
(85,767,cs),
(149,612,o),
(319,183,o),
(374,74,c)
);
}
);
width = 881;
}
);
unicode = 121;
userData = {
com.typemytype.robofont.mark = (
1,
0.6,
0.6,
1
);
};
},
{
glyphname = z;
lastChange = "2021-08-22 03:02:32 +0000";
layers = (
{
anchors = (
{
name = btm;
pos = (446,-297);
},
{
name = top;
pos = (436,1515);
}
);
layerId = "81641B54-5DFF-4E7E-9A9F-73CB636BC82D";
shapes = (
{
closed = 1;
nodes = (
(497,755,cs),
(515,755,o),
(525,755,o),
(528,753,c),
(463,578,o),
(181,173,o),
(181,101,cs),
(181,-8,o),
(274,-8,o),
(347,-8,cs),
(443,-8,o),
(528,-2,o),
(612,-2,cs),
(645,-2,o),
(674,-12,o),
(705,-12,cs),
(760,-12,o),
(800,49,o),
(800,98,cs),
(800,144,o),
(779,243,o),
(734,243,cs),
(732,243,o),
(722,240,o),
(719,238,cs),
(651,198,o),
(535,175,o),
(446,175,cs),
(418,175,o),
(392,177,o),
(371,183,c),
(562,518,o),
(652,645,o),
(689,822,c),
(689,868,o),
(678,958,o),
(625,958,cs),
(567,958,o),
(507,940,o),
(448,940,cs),
(144,940,ls),
(105,940,o),
(91,864,o),
(91,825,cs),
(91,729,o),
(139,736,o),
(189,736,cs),
(293,736,o),
(392,755,o)
);
}
);
width = 829;
}
);
unicode = 122;
userData = {
com.typemytype.robofont.mark = (
1,
0.6,
0.6,
1
);
};
},
{
glyphname = f_f_i_dflt;
lastChange = "2021-08-22 03:02:32 +0000";
layers = (
{
layerId = "81641B54-5DFF-4E7E-9A9F-73CB636BC82D";
shapes = (
{
closed = 1;
nodes = (
(1675,864,c),
(1675,920,o),
(1670,967,o),
(1621,967,cs),
(1510,967,o),
(1518,426,o),
(1518,253,cs),
(1518,4,o),
(1536,-23,o),
(1615,-23,cs),
(1642,-23,o),
(1678,14,o),
(1678,85,cs),
(1678,139,o),
(1672,215,o),
(1662,277,c),
(1660,344,ls),
(1659,378,o),
(1652,409,o),
(1654,437,cs),
(1654,456,ls),
(1654,580,o),
(1670,747,o)
);
},
{
closed = 1;
nodes = (
(765,1050,c),
(800,1050,o),
(804,1119,o),
(804,1146,cs),
(804,1243,o),
(647,1302,o),
(596,1302,cs),
(400,1302,o),
(260,1102,o),
(253,834,cs),
(250,773,ls),
(248,716,o),
(250,643,o),
(238,215,c),
(238,18,o),
(254,-10,o),
(347,-10,cs),
(381,-10,o),
(400,12,o),
(403,74,c),
(384,238,o),
(381,277,o),
(381,307,cs),
(381,384,ls),
(381,557,o),
(357,691,o),
(367,810,cs),
(378,973,o),
(359,1112,o),
(596,1112,cs),
(684,1112,o),
(688,1054,o)
);
},
{
closed = 1;
nodes = (
(1241,907,c),
(250,907,l),
(112,913,ls),
(79,913,o),
(43,860,o),
(43,814,cs),
(43,767,o),
(74,719,o),
(105,716,c),
(244,722,ls),
(303,724,o),
(334,726,o),
(382,726,cs),
(394,726,o),
(408,726,o),
(423,726,cs),
(528,722,o),
(907,716,o),
(1176,716,cs),
(1209,716,o),
(1238,716,o),
(1268,716,cs),
(1297,716,o),
(1360,719,o),
(1360,820,cs),
(1360,897,o),
(1325,913,o),
(1297,913,cs),
(1278,913,o),
(1257,909,o)
);
},
{
closed = 1;
nodes = (
(945,834,c),
(960,999,o),
(994,1152,o),
(1184,1152,cs),
(1246,1152,o),
(1291,1092,o),
(1351,1092,cs),
(1392,1092,o),
(1396,1157,o),
(1396,1186,cs),
(1396,1283,o),
(1233,1343,o),
(1184,1343,cs),
(866,1343,o),
(820,958,o),
(820,287,cs),
(820,218,o),
(820,146,o),
(829,69,cs),
(833,8,o),
(844,-10,o),
(930,-10,cs),
(960,-10,o),
(977,12,o),
(983,74,c),
(983,153,o),
(965,232,o),
(960,307,c),
(963,499,o),
(942,679,o)
);
}
);
width = 1785;
}
);
userData = {
com.typemytype.robofont.mark = (
0.967,
0.6,
1,
1
);
};
},
{
glyphname = f_i_trk;
lastChange = "2021-08-22 03:02:32 +0000";
layers = (
{
layerId = "81641B54-5DFF-4E7E-9A9F-73CB636BC82D";
shapes = (
{
closed = 1;
nodes = (
(671,1139,cs),
(716,1139,o),
(739,1181,o),
(739,1221,cs),
(739,1299,o),
(679,1343,o),
(574,1343,cs),
(347,1343,o),
(277,1078,o),
(254,907,c),
(181,907,o),
(144,913,o),
(105,913,cs),
(69,913,o),
(36,866,o),
(36,814,cs),
(36,760,o),
(66,716,o),
(105,716,cs),
(120,716,o),
(150,716,o),
(247,720,c),
(244,629,o),
(229,472,o),
(229,319,cs),
(229,240,o),
(237,163,o),
(244,95,c),
(244,10,o),
(268,-10,o),
(342,-10,cs),
(373,-10,o),
(399,12,o),
(399,74,cs),
(399,163,o),
(374,244,o),
(374,324,cs),
(374,463,o),
(387,607,o),
(387,729,c),
(448,729,ls),
(596,729,o),
(661,722,o),
(732,719,c),
(720,578,o),
(710,450,o),
(710,319,cs),
(710,5,o),
(719,-23,o),
(812,-23,cs),
(844,-23,o),
(871,20,o),
(874,95,cs),
(874,119,o),
(871,149,o),
(844,439,c),
(849,517,o),
(875,688,o),
(875,818,cs),
(875,891,o),
(846,920,o),
(815,920,cs),
(800,920,o),
(777,916,o),
(753,907,c),
(399,907,l),
(409,1040,o),
(421,1152,o),
(571,1152,cs),
(607,1152,o),
(626,1139,o)
);
}
);
width = 1005;
}
);
userData = {
com.typemytype.robofont.mark = (
0.967,
0.6,
1,
1
);
};
},
{
glyphname = fi;
lastChange = "2021-08-22 03:02:32 +0000";
layers = (
{
layerId = "81641B54-5DFF-4E7E-9A9F-73CB636BC82D";
shapes = (
{
closed = 1;
nodes = (
(808,1068,cs),
(834,1068,o),
(942,1149,o),
(942,1219,cs),
(942,1278,o),
(920,1325,o),
(866,1325,c),
(849,1318,o),
(810,1270,o),
(788,1270,cs),
(745,1270,o),
(679,1343,o),
(600,1343,cs),
(403,1343,o),
(292,1162,o),
(254,907,c),
(184,907,o),
(189,913,o),
(105,913,cs),
(69,913,o),
(36,866,o),
(36,814,cs),
(36,760,o),
(66,716,o),
(105,716,cs),
(120,716,o),
(150,716,o),
(247,720,c),
(243,600,o),
(229,492,o),
(229,293,cs),
(229,228,o),
(244,167,o),
(244,95,cs),
(244,10,o),
(268,-10,o),
(342,-10,cs),
(374,-10,o),
(397,12,o),
(399,74,cs),
(399,81,o),
(399,95,o),
(397,101,c),
(378,237,o),
(374,277,o),
(374,324,cs),
(374,463,o),
(387,607,o),
(387,729,c),
(448,729,ls),
(596,729,o),
(661,722,o),
(732,719,c),
(720,578,o),
(710,450,o),
(710,319,cs),
(710,5,o),
(719,-23,o),
(812,-23,cs),
(844,-23,o),
(871,20,o),
(874,95,cs),
(874,119,o),
(871,149,o),
(844,439,c),
(849,517,o),
(875,688,o),
(875,818,cs),
(875,891,o),
(846,920,o),
(815,920,cs),
(800,920,o),
(777,916,o),
(753,907,c),
(399,907,l),
(409,1040,o),
(446,1152,o),
(598,1152,cs),
(706,1152,o),
(719,1068,o)
);
}
);
width = 1005;
}
);
unicode = 64257;
userData = {
com.typemytype.robofont.mark = (
0.967,
0.6,
1,
1
);
};
},
{
glyphname = fl;
lastChange = "2021-08-22 03:02:32 +0000";
layers = (
{
hints = (
{
horizontal = 1;
name = hr00;
origin = (0,0);
target = (0,0);
type = Tag;
}
);
layerId = "81641B54-5DFF-4E7E-9A9F-73CB636BC82D";
shapes = (
{
closed = 1;
nodes = (
(812,1092,cs),
(850,1092,o),
(856,1157,o),
(856,1186,cs),
(856,1283,o),
(679,1343,o),
(623,1343,cs),
(260,1343,o),
(232,814,o),
(232,293,cs),
(232,244,ls),
(232,23,o),
(260,-10,o),
(346,-10,cs),
(374,-10,o),
(399,14,o),
(400,76,c),
(384,130,o),
(381,189,o),
(381,248,cs),
(381,621,o),
(392,696,o),
(392,810,cs),
(392,975,o),
(416,1152,o),
(623,1152,cs),
(694,1152,o),
(747,1092,o)
);
},
{
closed = 1;
nodes = (
(938,181,c),
(877,181,o),
(874,329,o),
(875,427,cs),
(891,1247,ls),
(891,1288,o),
(874,1341,o),
(833,1341,cs),
(757,1341,o),
(750,1123,o),
(750,960,c),
(736,411,l),
(736,225,o),
(745,-5,o),
(934,-5,cs),
(987,-5,o),
(1070,50,o),
(1070,134,cs),
(1070,179,o),
(1058,228,o),
(1021,228,cs),
(985,228,o),
(975,179,o)
);
},
{
closed = 1;
nodes = (
(187,716,l),
(289,720,o),
(349,722,o),
(391,722,cs),
(462,722,o),
(394,720,o),
(533,716,cs),
(563,716,ls),
(595,716,o),
(649,719,o),
(649,820,cs),
(649,897,o),
(619,913,o),
(592,913,cs),
(578,913,o),
(562,909,o),
(547,907,c),
(105,913,ls),
(74,913,o),
(39,863,o),
(39,814,cs),
(39,760,o),
(67,716,o),
(105,716,cs)
);
}
);
width = 1087;
}
);
unicode = 64258;
userData = {
com.adobe.type.autohint = "ICA8aGludFNldExpc3Q+CiAgICA8aGludHNldCBw";
com.typemytype.robofont.mark = (
0.967,
0.6,
1,
1
);
};
},
{
glyphname = ordfeminine;
lastChange = "2021-08-22 03:02:32 +0000";
layers = (
{
anchors = (
{
name = top;
pos = (311,1649);
}
);
layerId = "81641B54-5DFF-4E7E-9A9F-73CB636BC82D";
shapes = (
{
closed = 1;
nodes = (
(431,1266,cs),
(517,1266,o),
(629,1264,o),
(629,1133,cs),
(626,905,l),
(753,697,l),
(755,1146,ls),
(755,1347,o),
(633,1449,o),
(468,1449,cs),
(374,1449,o),
(183,1431,o),
(183,1317,cs),
(183,1238,o),
(203,1213,o),
(256,1213,cs),
(283,1213,o),
(303,1237,o),
(322,1247,cs),
(349,1264,o),
(382,1266,o)
);
},
{
closed = 1;
nodes = (
(771,621,cs),
(831,621,o),
(894,678,o),
(894,750,cs),
(894,814,o),
(875,841,o),
(834,841,cs),
(812,841,o),
(792,815,o),
(790,805,c),
(760,805,o),
(753,820,o),
(753,860,cs),
(753,1020,o),
(641,1132,o),
(458,1132,cs),
(256,1132,o),
(184,1033,o),
(184,859,cs),
(184,712,o),
(274,607,o),
(421,607,cs),
(515,607,o),
(574,641,o),
(633,706,c),
(666,661,o),
(716,621,o)
);
},
{
closed = 1;
nodes = (
(319,868,cs),
(322,930,o),
(378,952,o),
(468,952,cs),
(533,952,o),
(598,934,o),
(619,891,c),
(605,863,o),
(555,777,o),
(436,777,cs),
(363,777,o),
(319,829,o)
);
},
{
closed = 1;
nodes = (
(517,421,cs),
(454,421,o),
(406,378,o),
(406,283,cs),
(406,195,o),
(473,181,o),
(528,181,cs),
(582,181,o),
(641,258,o),
(641,301,cs),
(641,381,o),
(552,421,o)
);
}
);
width = 1109;
}
);
unicode = 170;
},
{
glyphname = ordmasculine;
lastChange = "2021-08-22 03:02:32 +0000";
layers = (
{
anchors = (
{
name = top;
pos = (403,1649);
}
);
layerId = "81641B54-5DFF-4E7E-9A9F-73CB636BC82D";
shapes = (
{
closed = 1;
nodes = (
(788,1020,cs),
(788,1268,o),
(679,1449,o),
(492,1449,cs),
(329,1449,o),
(153,1310,o),
(153,1020,cs),
(153,843,o),
(303,602,o),
(473,602,cs),
(639,602,o),
(788,790,o)
);
},
{
closed = 1;
nodes = (
(463,783,cs),
(371,783,o),
(283,930,o),
(283,1035,cs),
(283,1164,o),
(403,1266,o),
(508,1266,cs),
(596,1266,o),
(661,1152,o),
(661,1028,cs),
(661,895,o),
(567,783,o)
);
},
{
closed = 1;
nodes = (
(492,439,cs),
(426,439,o),
(382,399,o),
(382,305,cs),
(382,215,o),
(448,200,o),
(502,200,cs),
(555,200,o),
(615,279,o),
(615,319,cs),
(615,400,o),
(523,439,o)
);
}
);
width = 965;
}
);
unicode = 186;
},
{
glyphname = Delta;
lastChange = "2021-08-22 03:02:32 +0000";
layers = (
{
layerId = "81641B54-5DFF-4E7E-9A9F-73CB636BC82D";
shapes = (
{
closed = 1;
nodes = (
(967,-5,l),
(998,-2,o),
(1044,4,o),
(1044,95,cs),
(1044,163,o),
(1028,189,o),
(1003,195,c),
(932,401,o),
(800,786,o),
(716,1058,cs),
(698,1116,o),
(689,1159,o),
(639,1159,cs),
(450,1159,o),
(463,960,o),
(189,462,c),
(105,329,ls),
(71,274,o),
(43,228,o),
(43,205,cs),
(43,146,o),
(88,-5,o),
(150,-5,cs)
);
},
{
closed = 1;
nodes = (
(197,187,c),
(401,607,o),
(526,790,o),
(588,864,c),
(595,864,o),
(595,863,o),
(598,863,c),
(694,616,o),
(757,399,o),
(836,198,c),
(649,195,o),
(347,187,o)
);
}
);
width = 1087;
}
);
unicode = 916;
},
{
glyphname = Omega;
lastChange = "2021-08-22 03:02:32 +0000";
layers = (
{
layerId = "81641B54-5DFF-4E7E-9A9F-73CB636BC82D";
shapes = (
{
closed = 1;
nodes = (
(437,-20,c),
(471,-20,o),
(517,0,o),
(517,85,cs),
(517,139,o),
(507,177,o),
(481,189,c),
(399,256,o),
(212,489,o),
(212,709,cs),
(212,985,o),
(403,1030,o),
(615,1030,cs),
(808,1030,o),
(968,955,o),
(968,696,cs),
(968,515,o),
(800,279,o),
(679,179,c),
(661,160,o),
(657,122,o),
(657,79,cs),
(657,0,o),
(694,-20,o),
(734,-20,c),
(895,-12,l),
(960,-15,o),
(990,-18,o),
(1058,-20,cs),
(1078,-20,o),
(1146,39,o),
(1146,103,cs),
(1146,169,o),
(1121,208,o),
(1080,208,cs),
(1030,208,o),
(942,205,o),
(860,200,c),
(970,334,o),
(1102,454,o),
(1102,686,cs),
(1102,1080,o),
(916,1252,o),
(612,1252,cs),
(342,1252,o),
(76,1147,o),
(76,676,cs),
(76,514,o),
(228,309,o),
(312,200,c),
(260,200,o),
(179,208,o),
(129,208,cs),
(88,208,o),
(60,167,o),
(60,99,cs),
(60,35,o),
(105,-2,o),
(126,-5,cs),
(189,-15,o),
(213,-12,o),
(274,-12,cs),
(334,-12,o),
(384,-20,o)
);
}
);
width = 1171;
}
);
unicode = 937;
},
{
glyphname = mu;
lastChange = "2021-08-22 03:02:32 +0000";
layers = (
{
layerId = "81641B54-5DFF-4E7E-9A9F-73CB636BC82D";
shapes = (
{
closed = 1;
nodes = (
(240,967,cs),
(134,967,o),
(119,689,o),
(119,535,cs),
(119,495,o),
(119,378,o),
(122,297,c),
(116,-284,ls),
(116,-324,o),
(134,-381,o),
(177,-381,cs),
(229,-381,o),
(247,-303,o),
(247,-213,cs),
(247,-158,o),
(210,53,o),
(210,99,c),
(266,25,o),
(363,-5,o),
(448,-5,cs),
(540,-5,o),
(657,79,o),
(705,175,c),
(706,81,o),
(716,25,o),
(781,25,cs),
(825,25,o),
(841,40,o),
(843,120,cs),
(859,909,ls),
(859,965,o),
(820,988,o),
(802,988,cs),
(773,988,o),
(729,970,o),
(729,904,cs),
(724,641,ls),
(722,585,o),
(722,507,o),
(705,406,c),
(660,329,o),
(571,187,o),
(439,187,cs),
(268,187,o),
(253,458,o),
(253,562,cs),
(253,655,o),
(287,796,o),
(287,881,cs),
(287,932,o),
(277,967,o)
);
}
);
width = 973;
}
);
unicode = 956;
},
{
glyphname = pi;
lastChange = "2021-08-22 03:02:32 +0000";
layers = (
{
layerId = "81641B54-5DFF-4E7E-9A9F-73CB636BC82D";
shapes = (
{
closed = 1;
nodes = (
(319,163,c),
(364,431,ls),
(377,525,o),
(392,647,o),
(394,739,c),
(555,739,l),
(544,590,o),
(532,471,o),
(532,309,c),
(532,130,o),
(565,-25,o),
(719,-25,cs),
(800,-25,o),
(924,50,o),
(924,142,cs),
(924,193,o),
(920,222,o),
(884,222,cs),
(841,222,o),
(820,189,o),
(769,189,cs),
(691,189,o),
(676,273,o),
(676,374,cs),
(671,473,o),
(696,600,o),
(696,739,c),
(849,739,ls),
(885,739,o),
(924,739,o),
(924,841,cs),
(924,916,o),
(897,946,o),
(860,946,cs),
(802,946,o),
(684,949,o),
(562,952,cs),
(411,952,o),
(292,958,o),
(144,958,c),
(112,958,o),
(84,884,o),
(84,839,cs),
(84,796,o),
(103,739,o),
(153,739,cs),
(247,739,l),
(247,486,o),
(218,416,o),
(173,248,cs),
(155,187,o),
(134,119,o),
(134,74,cs),
(134,33,o),
(155,-26,o),
(203,-26,cs),
(258,-26,o),
(287,2,o)
);
}
);
width = 1009;
}
);
unicode = 960;
},
{
glyphname = "a-deva";
lastChange = "2021-08-22 03:02:32 +0000";
layers = (
{
anchors = (
{
name = bin;
pos = (657,1257);
},
{
name = bottom;
pos = (1317,-59);
},
{
name = top;
pos = (1474,1266);
}
);
guides = (
{
pos = (974,1262);
}
);
layerId = "81641B54-5DFF-4E7E-9A9F-73CB636BC82D";
shapes = (
{
closed = 1;
nodes = (
(1575,1264,l),
(1522,1340,o),
(1489,1414,o),
(1454,1414,cs),
(1404,1414,o),
(1370,1343,o),
(1370,1264,c),
(1280,1264,ls),
(1241,1264,o),
(1144,1286,o),
(1099,1286,cs),
(1066,1286,o),
(1054,1266,o),
(1054,1233,cs),
(1054,1147,o),
(1121,1078,o),
(1176,1078,cs),
(1219,1078,o),
(1288,1123,o),
(1335,1123,cs),
(1375,1123,l),
(1375,1002,o),
(1398,588,o),
(1398,473,c),
(1392,473,l),
(1299,567,l),
(1183,567,o),
(1058,540,o),
(913,473,c),
(907,473,l),
(814,571,l),
(916,671,o),
(988,775,o),
(988,881,cs),
(988,1097,o),
(859,1286,o),
(681,1286,cs),
(528,1286,o),
(299,1202,o),
(299,1123,cs),
(299,1054,o),
(359,916,o),
(409,916,cs),
(497,916,o),
(392,998,o),
(563,1087,cs),
(631,1121,o),
(674,1139,o),
(740,1139,cs),
(825,1139,o),
(895,1076,o),
(895,994,cs),
(895,905,o),
(822,781,o),
(671,678,c),
(666,678,l),
(643,689,o),
(598,694,o),
(535,694,cs),
(473,694,o),
(413,655,o),
(413,610,cs),
(413,544,o),
(505,433,o),
(553,433,cs),
(619,433,o),
(697,462,o),
(739,511,c),
(743,511,l),
(805,461,o),
(849,359,o),
(849,268,cs),
(849,89,o),
(745,23,o),
(623,23,cs),
(374,23,o),
(228,183,o),
(228,363,cs),
(228,391,o),
(263,429,o),
(263,463,cs),
(263,547,o),
(192,610,o),
(153,610,cs),
(124,610,o),
(114,595,o),
(114,567,cs),
(114,179,o),
(349,-149,o),
(668,-149,cs),
(856,-149,o),
(1015,-18,o),
(1015,155,cs),
(1015,195,o),
(1008,240,o),
(988,299,c),
(990,299,l),
(1064,354,o),
(1206,400,o),
(1394,418,cs),
(1398,418,l),
(1398,223,o),
(1345,63,o),
(1280,63,cs),
(1254,63,o),
(1231,50,o),
(1231,35,cs),
(1231,-26,o),
(1350,-149,o),
(1404,-149,cs),
(1504,-149,o),
(1557,60,o),
(1557,299,cs),
(1557,552,o),
(1530,1064,o),
(1530,1060,cs),
(1530,1092,o),
(1534,1114,o),
(1546,1123,c),
(1793,1123,l),
(1793,1264,l)
);
}
);
width = 1773;
},
{
anchors = (
{
name = bin;
pos = (1109,1167);
},
{
name = bottom;
pos = (1107,28);
},
{
name = top;
pos = (1107,1168);
}
);
associatedMasterId = "81641B54-5DFF-4E7E-9A9F-73CB636BC82D";
layerId = "BCB442AC-78C1-4CD5-BEFB-6CF11CFB9584";
name = "Regular Feb 18 15, 23:22";
shapes = (
{
closed = 1;
nodes = (
(313,732,l),
(512,672,o),
(588,603,o),
(588,472,cs),
(588,346,o),
(502,283,o),
(378,283,cs),
(283,283,o),
(181,316,o),
(69,413,c),
(-9,314,l),
(120,193,o),
(252,142,o),
(392,142,cs),
(586,142,o),
(746,262,o),
(746,460,cs),
(746,635,o),
(622,747,o),
(400,768,c)
);
},
{
closed = 1;
nodes = (
(282,1282,o),
(196,1259,o),
(104,1219,c),
(149,1097,l),
(240,1133,o),
(312,1148,o),
(374,1148,cs),
(473,1148,o),
(548,1113,o),
(548,999,cs),
(548,890,o),
(480,824,o),
(316,795,cs),
(292,791,o),
(272,787,o),
(236,784,c),
(246,657,l),
(323,657,o),
(427,671,o),
(517,724,cs),
(634,788,o),
(693,877,o),
(693,1012,cs),
(693,1184,o),
(570,1282,o),
(380,1282,cs)
);
},
{
closed = 1;
nodes = (
(938,687,o),
(776,659,o),
(629,664,c),
(686,547,l),
(793,537,o),
(977,565,o),
(1090,643,c),
(1085,796,l)
);
},
{
closed = 1;
nodes = (
(1028,1203,l),
(1028,1,l),
(1185,1,l),
(1185,1203,l)
);
},
{
closed = 1;
nodes = (
(841,1262,l),
(841,1129,l),
(1400,1129,l),
(1400,1262,l)
);
}
);
visible = 1;
width = 1386;
}
);
unicode = 2309;
},
{
glyphname = "i-deva";
lastChange = "2021-08-22 03:02:32 +0000";
layers = (
{
anchors = (
{
name = bin;
pos = (268,1257);
},
{
name = bottom;
pos = (445,-173);
},
{
name = top;
pos = (886,1257);
}
);
layerId = "81641B54-5DFF-4E7E-9A9F-73CB636BC82D";
shapes = (
{
closed = 1;
nodes = (
(-14,1123,l),
(792,1123,l),
(792,1028,ls),
(792,977,o),
(769,932,o),
(747,932,cs),
(688,932,o),
(499,987,o),
(443,987,cs),
(289,987,o),
(177,877,o),
(177,767,cs),
(177,574,o),
(367,364,o),
(542,364,cs),
(610,364,o),
(846,418,o),
(930,418,cs),
(983,418,o),
(1031,373,o),
(1031,322,cs),
(1031,203,o),
(831,103,o),
(668,103,cs),
(533,103,l),
(427,150,o),
(334,200,o),
(268,200,cs),
(187,200,o),
(153,150,o),
(153,76,cs),
(153,-63,o),
(270,-105,o),
(443,-105,cs),
(655,-105,l),
(765,-222,l),
(884,-339,o),
(960,-397,o),
(990,-397,cs),
(1044,-397,o),
(1074,-356,o),
(1074,-307,cs),
(1074,-266,o),
(963,-260,o),
(765,-68,c),
(767,-68,l),
(965,-43,o),
(1144,95,o),
(1144,244,cs),
(1144,409,o),
(983,585,o),
(850,585,cs),
(771,585,o),
(508,532,o),
(431,532,cs),
(352,532,o),
(309,578,o),
(309,623,cs),
(309,724,o),
(363,820,o),
(557,820,cs),
(625,820,o),
(843,777,o),
(913,777,cs),
(952,777,o),
(973,796,o),
(973,818,cs),
(973,859,o),
(965,975,o),
(965,1013,cs),
(965,1050,o),
(965,1092,o),
(977,1123,c),
(1291,1123,l),
(1291,1264,l),
(1009,1264,l),
(955,1347,o),
(894,1400,o),
(841,1400,cs),
(810,1400,o),
(792,1372,o),
(792,1330,cs),
(792,1264,l),
(-14,1264,l)
);
}
);
width = 1271;
}
);
unicode = 2311;
},
{
glyphname = "u-deva";
lastChange = "2021-08-22 03:02:32 +0000";
layers = (
{
anchors = (
{
name = bin;
pos = (183,1257);
},
{
name = bottom;
pos = (787,-65);
},
{
name = top;
pos = (872,1257);
}
);
layerId = "81641B54-5DFF-4E7E-9A9F-73CB636BC82D";
shapes = (
{
closed = 1;
nodes = (
(-23,1123,l),
(747,1123,l),
(757,1021,o),
(760,940,o),
(760,881,cs),
(760,818,o),
(757,760,o),
(747,710,c),
(629,710,ls),
(553,710,o),
(502,661,o),
(502,610,cs),
(502,550,o),
(585,406,o),
(641,406,cs),
(689,406,o),
(760,443,o),
(846,532,c),
(850,532,l),
(904,473,o),
(940,387,o),
(940,311,cs),
(940,175,o),
(810,63,o),
(655,63,cs),
(478,63,o),
(248,263,o),
(248,431,cs),
(248,454,o),
(282,542,o),
(282,567,cs),
(282,616,o),
(210,732,o),
(167,732,cs),
(130,732,o),
(119,709,o),
(119,661,cs),
(119,228,o),
(426,-120,o),
(796,-120,cs),
(958,-120,o),
(1080,33,o),
(1080,208,cs),
(1080,364,o),
(999,511,o),
(891,585,c),
(922,616,o),
(932,783,o),
(932,994,cs),
(932,1066,o),
(949,1123,o),
(973,1123,cs),
(1257,1123,l),
(1257,1264,l),
(994,1264,l),
(913,1360,o),
(844,1400,o),
(812,1400,cs),
(775,1400,o),
(747,1341,o),
(747,1264,c),
(-23,1264,l)
);
}
);
width = 877;
}
);
unicode = 2313;
},
{
glyphname = "uu-deva";
lastChange = "2021-08-22 03:02:32 +0000";
layers = (
{
anchors = (
{
name = bin;
pos = (1451,1257);
},
{
name = bottom;
pos = (760,-58);
},
{
name = top;
pos = (899,1257);
}
);
background = {
shapes = (
{
closed = 0;
nodes = (
(1159,442,l)
);
},
{
closed = 0;
nodes = (
(1159,442,l)
);
}
);
};
layerId = "81641B54-5DFF-4E7E-9A9F-73CB636BC82D";
shapes = (
{
closed = 1;
nodes = (
(1254,1264,l),
(1254,1123,l),
(1747,1123,l),
(1742,1264,l)
);
},
{
closed = 1;
nodes = (
(1054,353,o),
(1059,364,o),
(1065,374,cs),
(1149,532,o),
(1285,652,o),
(1388,652,cs),
(1467,652,o),
(1524,567,o),
(1524,473,cs),
(1524,274,o),
(1413,98,o),
(1254,49,c),
(1281,-35,o),
(1329,-95,o),
(1378,-95,cs),
(1526,-95,o),
(1642,116,o),
(1642,347,cs),
(1642,547,o),
(1476,805,o),
(1327,805,cs),
(1176,805,o),
(1040,684,o),
(950,497,c),
(1049,343,l)
);
},
{
ref = "u-deva";
}
);
width = 1727;
}
);
unicode = 2314;
},
{
glyphname = "rVocalic-deva";
lastChange = "2021-08-22 03:02:32 +0000";
layers = (
{
anchors = (
{
name = bin;
pos = (1811,1257);
},
{
name = bottom;
pos = (1185,-68);
},
{
name = top;
pos = (1240,1262);
}
);
layerId = "81641B54-5DFF-4E7E-9A9F-73CB636BC82D";
shapes = (
{
closed = 1;
nodes = (
(633,49,cs),
(590,49,o),
(544,76,o),
(544,116,cs),
(544,175,o),
(664,263,o),
(765,299,c),
(765,187,o),
(691,49,o)
);
},
{
closed = 1;
nodes = (
(1340,1264,l),
(1295,1332,o),
(1236,1390,o),
(1211,1390,cs),
(1173,1390,o),
(1152,1357,o),
(1152,1264,c),
(-63,1264,l),
(-63,1123,l),
(1152,1123,l),
(1152,932,ls),
(1152,753,o),
(1157,605,o),
(1176,497,c),
(1171,497,l),
(1132,540,o),
(1070,557,o),
(1009,557,cs),
(960,557,o),
(922,552,o),
(871,532,c),
(834,724,o),
(686,874,o),
(511,874,cs),
(292,874,o),
(91,722,o),
(91,557,cs),
(91,491,o),
(198,374,o),
(258,374,cs),
(282,374,o),
(292,391,o),
(292,418,cs),
(292,433,o),
(244,461,o),
(244,489,cs),
(244,592,o),
(439,722,o),
(580,722,cs),
(679,722,o),
(750,610,o),
(750,489,c),
(560,381,o),
(443,237,o),
(443,142,cs),
(443,66,o),
(540,-81,o),
(615,-81,cs),
(729,-81,o),
(853,105,o),
(897,347,c),
(899,347,l),
(928,368,o),
(967,374,o),
(1040,374,cs),
(1087,374,o),
(1138,368,o),
(1174,347,c),
(1176,347,l),
(1176,210,o),
(1158,61,o),
(1100,61,cs),
(1096,61,o),
(1060,71,o),
(1058,71,cs),
(1038,71,o),
(1023,59,o),
(1023,33,cs),
(1023,-38,o),
(1138,-120,o),
(1192,-120,cs),
(1283,-120,o),
(1330,39,o),
(1330,222,cs),
(1330,364,l),
(1335,364,ls),
(1402,364,o),
(1485,374,o),
(1536,406,c),
(1551,344,o),
(1594,284,o),
(1675,223,cs),
(1738,177,o),
(1767,134,o),
(1767,101,cs),
(1767,-57,o),
(1538,35,o),
(1538,-114,cs),
(1538,-167,o),
(1555,-210,o),
(1606,-210,cs),
(1778,-210,o),
(1922,-84,o),
(1922,63,cs),
(1922,136,o),
(1854,225,o),
(1740,305,c),
(1697,326,o),
(1666,400,o),
(1666,489,c),
(1752,535,o),
(1807,621,o),
(1807,710,cs),
(1807,804,o),
(1735,874,o),
(1644,874,cs),
(1555,874,o),
(1496,796,o),
(1496,694,cs),
(1496,660,o),
(1501,616,o),
(1520,567,c),
(1454,547,o),
(1365,532,o),
(1330,532,cs),
(1312,532,o),
(1309,868,o),
(1309,916,cs),
(1309,1002,o),
(1315,1087,o),
(1337,1123,c),
(2087,1123,l),
(2087,1264,l)
);
}
);
width = 2067;
}
);
unicode = 2315;
},
{
glyphname = "rrVocalic-deva";
lastChange = "2021-08-22 03:02:32 +0000";
layers = (
{
anchors = (
{
name = bin;
pos = (1833,1257);
},
{
name = bottom;
pos = (1176,-60);
},
{
name = top;
pos = (1237,1262);
}
);
layerId = "81641B54-5DFF-4E7E-9A9F-73CB636BC82D";
shapes = (
{
closed = 1;
nodes = (
(641,49,cs),
(590,49,o),
(544,76,o),
(544,116,cs),
(544,175,o),
(664,263,o),
(765,299,c),
(765,187,o),
(691,49,o)
);
},
{
closed = 1;
nodes = (
(1351,1264,l),
(1305,1320,o),
(1246,1398,o),
(1211,1398,cs),
(1168,1398,o),
(1154,1367,o),
(1154,1312,cs),
(1154,1264,l),
(-36,1264,l),
(-36,1123,l),
(1156,1123,l),
(1156,932,ls),
(1156,753,o),
(1162,605,o),
(1176,497,c),
(1173,497,l),
(1132,540,o),
(1076,557,o),
(1009,557,cs),
(963,557,o),
(922,552,o),
(871,532,c),
(864,532,l),
(834,724,o),
(686,874,o),
(515,874,cs),
(292,874,o),
(94,722,o),
(94,557,cs),
(94,491,o),
(203,374,o),
(258,374,cs),
(282,374,o),
(293,391,o),
(293,418,cs),
(293,433,o),
(244,461,o),
(244,489,cs),
(244,592,o),
(439,722,o),
(580,722,cs),
(679,722,o),
(751,610,o),
(751,489,c),
(750,489,l),
(560,381,o),
(443,237,o),
(443,142,cs),
(443,66,o),
(542,-81,o),
(616,-81,cs),
(732,-81,o),
(853,105,o),
(897,347,c),
(928,368,o),
(967,374,o),
(1040,374,cs),
(1087,374,o),
(1138,368,o),
(1176,347,c),
(1176,124,o),
(1168,40,o),
(1111,40,cs),
(1107,40,o),
(1070,53,o),
(1068,53,cs),
(1048,53,o),
(1033,39,o),
(1033,12,cs),
(1033,-59,o),
(1138,-120,o),
(1192,-120,cs),
(1283,-120,o),
(1337,39,o),
(1337,222,cs),
(1337,364,l),
(1402,364,o),
(1501,382,o),
(1577,431,c),
(1583,431,l),
(1596,399,o),
(1639,364,o),
(1670,322,c),
(1669,322,l),
(1546,256,o),
(1453,149,o),
(1453,49,cs),
(1453,-122,o),
(1646,-342,o),
(1795,-342,cs),
(1936,-342,o),
(2090,-250,o),
(2090,-149,cs),
(2090,-110,o),
(2057,-68,o),
(2015,-41,c),
(1939,-155,o),
(1825,-232,o),
(1714,-232,cs),
(1631,-232,o),
(1565,-155,o),
(1565,-68,cs),
(1565,50,o),
(1660,163,o),
(1773,195,c),
(1775,195,l),
(1796,200,o),
(1812,253,o),
(1812,270,cs),
(1812,354,o),
(1685,427,o),
(1678,489,c),
(1679,489,l),
(1740,535,o),
(1783,605,o),
(1783,706,cs),
(1783,798,o),
(1723,864,o),
(1649,864,cs),
(1575,864,o),
(1526,790,o),
(1526,688,cs),
(1526,657,o),
(1532,615,o),
(1546,563,c),
(1544,563,l),
(1494,547,o),
(1361,523,o),
(1328,523,c),
(1325,553,o),
(1315,868,o),
(1315,916,cs),
(1315,1002,o),
(1315,1123,o),
(1328,1123,cs),
(2179,1123,l),
(2179,1264,l)
);
}
);
width = 2159;
}
);
unicode = 2400;
},
{
glyphname = "lVocalic-deva";
lastChange = "2021-08-22 03:02:32 +0000";
layers = (
{
anchors = (
{
name = bin;
pos = (1460,1257);
},
{
name = bottom;
pos = (900,-353);
},
{
name = top;
pos = (932,1257);
}
);
layerId = "81641B54-5DFF-4E7E-9A9F-73CB636BC82D";
shapes = (
{
closed = 1;
nodes = (
(-29,1123,l),
(843,1123,l),
(849,1093,o),
(853,1047,o),
(853,973,cs),
(853,881,o),
(790,788,o),
(712,722,c),
(706,722,l),
(674,846,o),
(578,942,o),
(476,942,cs),
(289,942,o),
(146,760,o),
(146,547,cs),
(146,167,o),
(318,-76,o),
(570,-76,cs),
(592,-76,o),
(600,-52,o),
(600,-23,cs),
(600,21,o),
(557,58,o),
(510,58,cs),
(356,58,o),
(292,201,o),
(292,431,cs),
(292,607,o),
(397,753,o),
(523,753,cs),
(560,753,o),
(623,716,o),
(661,661,c),
(633,623,o),
(621,585,o),
(621,557,cs),
(621,511,o),
(702,418,o),
(747,418,cs),
(755,418,o),
(765,431,o),
(769,454,cs),
(805,595,o),
(913,694,o),
(1021,694,cs),
(1114,694,o),
(1186,605,o),
(1186,497,cs),
(1186,346,o),
(1092,208,o),
(973,208,cs),
(846,208,o),
(745,103,o),
(745,-39,cs),
(745,-287,o),
(936,-481,o),
(1144,-481,cs),
(1181,-481,ls),
(1347,-481,o),
(1435,-450,o),
(1435,-392,cs),
(1435,-359,o),
(1355,-287,o),
(1320,-287,cs),
(1280,-287,o),
(1159,-342,o),
(1111,-342,cs),
(963,-342,o),
(863,-279,o),
(863,-173,cs),
(863,-25,o),
(946,49,o),
(1084,49,cs),
(1223,49,o),
(1350,212,o),
(1350,418,cs),
(1350,623,o),
(1181,804,o),
(977,841,cs),
(973,841,l),
(994,899,o),
(993,1123,o),
(1035,1123,cs),
(1497,1123,l),
(1497,1264,l),
(1047,1264,l),
(993,1341,o),
(938,1400,o),
(881,1400,cs),
(849,1400,o),
(831,1363,o),
(831,1264,c),
(-29,1264,l)
);
}
);
width = 1477;
}
);
unicode = 2316;
},
{
glyphname = "llVocalic-deva";
lastChange = "2021-08-22 03:02:32 +0000";
layers = (
{
anchors = (
{
name = bin;
pos = (1501,1264);
},
{
name = bottom;
pos = (702,-290);
},
{
name = top;
pos = (941,1257);
}
);
layerId = "81641B54-5DFF-4E7E-9A9F-73CB636BC82D";
shapes = (
{
closed = 1;
nodes = (
(1040,1264,l),
(993,1320,o),
(934,1398,o),
(899,1398,cs),
(856,1398,o),
(843,1367,o),
(843,1312,cs),
(843,1264,l),
(-14,1264,l),
(-14,1123,l),
(843,1123,l),
(849,1093,o),
(853,1047,o),
(853,973,cs),
(853,881,o),
(790,788,o),
(712,722,c),
(706,722,l),
(674,846,o),
(578,942,o),
(476,942,cs),
(289,942,o),
(146,760,o),
(146,547,cs),
(146,167,o),
(373,-173,o),
(625,-173,cs),
(647,-173,o),
(655,-149,o),
(655,-120,cs),
(655,-76,o),
(612,-39,o),
(565,-39,cs),
(411,-39,o),
(292,181,o),
(292,431,cs),
(292,607,o),
(397,753,o),
(523,753,cs),
(560,753,o),
(623,716,o),
(661,661,c),
(633,623,o),
(621,585,o),
(621,557,cs),
(621,511,o),
(702,418,o),
(747,418,cs),
(755,418,o),
(765,431,o),
(769,454,cs),
(805,595,o),
(913,694,o),
(1021,694,cs),
(1114,694,o),
(1186,605,o),
(1186,497,cs),
(1186,326,o),
(1083,208,o),
(967,208,cs),
(853,208,o),
(760,119,o),
(760,35,cs),
(760,-66,o),
(810,-153,o),
(894,-187,c),
(863,-220,o),
(846,-263,o),
(846,-303,cs),
(846,-411,o),
(1008,-533,o),
(1159,-533,cs),
(1408,-533,o),
(1630,-437,o),
(1630,-342,cs),
(1630,-273,o),
(1594,-222,o),
(1555,-222,cs),
(1551,-222,o),
(1538,-225,o),
(1528,-232,c),
(1481,-275,l),
(1375,-352,o),
(1247,-392,o),
(1097,-392,cs),
(1030,-392,o),
(970,-359,o),
(970,-320,cs),
(970,-277,o),
(1015,-244,o),
(1080,-244,cs),
(1223,-244,ls),
(1262,-244,o),
(1283,-230,o),
(1283,-210,cs),
(1283,-163,o),
(1216,-95,o),
(1188,-95,cs),
(1159,-95,o),
(1038,-120,o),
(1002,-120,cs),
(940,-120,o),
(885,-89,o),
(885,-53,cs),
(885,-5,o),
(905,49,o),
(987,49,cs),
(1233,49,o),
(1363,184,o),
(1363,399,cs),
(1363,602,o),
(1181,804,o),
(977,841,cs),
(973,841,l),
(993,891,o),
(1008,967,o),
(1008,1052,cs),
(1008,1092,o),
(1020,1123,o),
(1038,1123,cs),
(1501,1123,l),
(1501,1264,l)
);
}
);
width = 1490;
}
);
unicode = 2401;
},
{
glyphname = "e-deva";
lastChange = "2021-08-22 03:02:32 +0000";
layers = (
{
anchors = (
{
name = bin;
pos = (601,1257);
},
{
name = bottom;
pos = (468,-96);
},
{
name = top;
pos = (1028,1257);
}
);
layerId = "81641B54-5DFF-4E7E-9A9F-73CB636BC82D";
shapes = (
{
closed = 1;
nodes = (
(-5,1123,l),
(240,1123,l),
(223,1076,o),
(212,1028,o),
(212,987,cs),
(212,934,o),
(228,779,o),
(228,732,cs),
(228,607,o),
(189,473,o),
(139,400,c),
(139,392,o),
(134,382,o),
(134,374,cs),
(134,347,o),
(159,317,o),
(210,299,c),
(416,179,o),
(639,43,o),
(844,-79,c),
(993,-185,o),
(1083,-297,o),
(1083,-378,cs),
(1083,-423,o),
(1070,-454,o),
(1048,-478,c),
(1097,-555,o),
(1138,-590,o),
(1171,-590,cs),
(1201,-590,o),
(1231,-523,o),
(1231,-431,cs),
(1231,-240,o),
(993,-29,o),
(349,322,c),
(347,322,l),
(384,371,o),
(400,448,o),
(400,547,cs),
(400,598,o),
(387,815,o),
(387,874,cs),
(387,1002,o),
(406,1092,o),
(439,1123,c),
(846,1123,l),
(846,1028,ls),
(846,973,o),
(856,792,o),
(856,732,cs),
(856,657,o),
(808,585,o),
(757,585,cs),
(736,585,o),
(660,623,o),
(647,623,cs),
(625,623,o),
(610,612,o),
(610,596,cs),
(610,526,o),
(753,406,o),
(810,406,cs),
(1133,406,o),
(932,1123,o),
(1097,1123,cs),
(1213,1123,l),
(1213,1264,l),
(-5,1264,l)
);
}
);
width = 1191;
}
);
unicode = 2319;
},
{
glyphname = "oe-deva";
lastChange = "2021-08-22 03:02:32 +0000";
layers = (
{
layerId = "81641B54-5DFF-4E7E-9A9F-73CB636BC82D";
shapes = (
{
closed = 1;
nodes = (
(1384,1264,l),
(1539,1264,l),
(1539,1665,l),
(1384,1665,l)
);
},
{
ref = "a-deva";
}
);
width = 1773;
}
);
unicode = 2419;
},
{
glyphname = "ooe-deva";
lastChange = "2021-08-22 03:02:32 +0000";
layers = (
{
layerId = "81641B54-5DFF-4E7E-9A9F-73CB636BC82D";
shapes = (
{
closed = 1;
nodes = (
(1885,1264,l),
(2040,1264,l),
(2040,1665,l),
(1885,1665,l)
);
},
{
ref = "aa-deva";
}
);
width = 2237;
}
);
unicode = 2420;
},
{
glyphname = "aw-deva";
lastChange = "2021-08-22 03:02:32 +0000";
layers = (
{
layerId = "81641B54-5DFF-4E7E-9A9F-73CB636BC82D";
shapes = (
{
closed = 1;
nodes = (
(2129,1555,o),
(2018,1813,o),
(1768,1813,cs),
(1601,1813,o),
(1354,1783,o),
(1354,1889,cs),
(1354,1921,o),
(1317,1951,o),
(1272,1951,cs),
(1232,1951,o),
(1198,1917,o),
(1198,1879,cs),
(1198,1662,o),
(1525,1697,o),
(1770,1697,cs),
(1927,1697,o),
(2030,1464,o),
(2030,1264,c),
(1941,1264,l),
(1923,1404,o),
(1846,1583,o),
(1644,1583,cs),
(1416,1583,o),
(1178,1559,o),
(1178,1669,cs),
(1178,1703,o),
(1138,1728,o),
(1099,1728,cs),
(1061,1728,o),
(1024,1699,o),
(1024,1651,cs),
(1024,1439,o),
(1345,1464,o),
(1636,1464,cs),
(1781,1464,o),
(1819,1337,o),
(1846,1264,c),
(2014,1200,l),
(2131,1264,l)
);
},
{
ref = "aa-deva";
}
);
width = 2237;
},
{
associatedMasterId = "81641B54-5DFF-4E7E-9A9F-73CB636BC82D";
layerId = "959211E7-FDC9-4679-8737-F310E355C6B0";
name = "Regular Feb 19 15, 14:49";
shapes = (
{
closed = 1;
nodes = (
(1027,1793,o),
(1016,1762,o),
(1016,1733,cs),
(1016,1659,o),
(1081,1589,o),
(1204,1568,cs),
(1452,1527,ls),
(1602,1500,o),
(1679,1465,o),
(1679,1354,cs),
(1679,1323,o),
(1676,1284,o),
(1654,1229,c),
(1713,1195,l),
(1765,1277,o),
(1785,1348,o),
(1785,1409,cs),
(1785,1540,o),
(1688,1610,o),
(1508,1641,cs),
(1287,1677,ls),
(1158,1699,o),
(1121,1730,o),
(1118,1779,cs),
(1118,1788,o),
(1118,1798,o),
(1120,1808,c),
(1051,1822,l)
);
},
{
closed = 1;
nodes = (
(887,1647,o),
(879,1612,o),
(879,1579,cs),
(879,1478,o),
(953,1387,o),
(1121,1366,cs),
(1425,1328,ls),
(1576,1307,o),
(1610,1286,o),
(1610,1194,cs),
(1610,1172,o),
(1608,1146,o),
(1606,1115,c),
(1662,1098,l),
(1676,1146,o),
(1686,1193,o),
(1686,1233,cs),
(1686,1367,o),
(1616,1416,o),
(1427,1445,cs),
(1165,1485,ls),
(1015,1508,o),
(980,1563,o),
(978,1631,cs),
(978,1642,o),
(979,1654,o),
(981,1666,c),
(904,1680,l)
);
},
{
ref = "aa-deva";
}
);
visible = 1;
width = 1942;
}
);
unicode = 2421;
},
{
glyphname = "aaMatra-deva";
lastChange = "2021-08-22 03:02:32 +0000";
layers = (
{
anchors = (
{
name = top;
pos = (215,1257);
}
);
layerId = "81641B54-5DFF-4E7E-9A9F-73CB636BC82D";
shapes = (
{
closed = 1;
nodes = (
(-11,1123,l),
(105,1123,l),
(105,283,ls),
(105,157,o),
(61,49,o),
(-13,49,cs),
(-33,49,o),
(-60,36,o),
(-60,14,cs),
(-60,-29,o),
(58,-120,o),
(101,-120,cs),
(181,-120,o),
(259,-2,o),
(259,142,cs),
(259,955,ls),
(259,1050,o),
(299,1123,o),
(339,1123,cs),
(484,1123,l),
(484,1264,l),
(336,1264,l),
(218,1367,ls),
(186,1396,o),
(167,1396,o),
(157,1400,c),
(117,1400,o),
(78,1367,o),
(78,1312,cs),
(78,1264,l),
(-11,1264,l)
);
}
);
width = 464;
}
);
unicode = 2366;
},
{
glyphname = "iMatra-deva";
lastChange = "2021-08-22 03:02:32 +0000";
layers = (
{
anchors = (
{
name = bin;
pos = (1345,1257);
},
{
name = imatra;
pos = (1228,1427);
},
{
name = top;
pos = (1302,1425);
}
);
layerId = "81641B54-5DFF-4E7E-9A9F-73CB636BC82D";
shapes = (
{
closed = 1;
nodes = (
(8,1123,l),
(287,1123,l),
(287,283,ls),
(287,157,o),
(247,49,o),
(169,49,cs),
(149,49,o),
(122,36,o),
(122,14,cs),
(122,-29,o),
(244,-120,o),
(283,-120,cs),
(363,-120,o),
(441,-2,o),
(441,142,cs),
(441,955,ls),
(441,1050,o),
(481,1123,o),
(521,1123,cs),
(686,1123,l),
(686,1264,l),
(443,1264,l),
(363,1282,o),
(305,1439,o),
(305,1532,cs),
(305,1713,o),
(426,1775,o),
(580,1775,cs),
(810,1775,o),
(1062,1670,o),
(1252,1474,c),
(1282,1431,o),
(1312,1400,o),
(1337,1400,c),
(1345,1406,o),
(1357,1425,o),
(1357,1461,c),
(1297,1678,o),
(864,1948,o),
(525,1948,cs),
(299,1948,o),
(149,1780,o),
(149,1565,cs),
(149,1449,o),
(198,1328,o),
(284,1264,c),
(8,1264,l)
);
}
);
width = 652;
}
);
unicode = 2367;
},
{
glyphname = "iiMatra-deva";
lastChange = "2021-08-22 03:02:32 +0000";
layers = (
{
anchors = (
{
name = bin;
pos = (625,1257);
},
{
name = iimatra;
pos = (379,1257);
},
{
name = top;
pos = (416,1264);
}
);
layerId = "81641B54-5DFF-4E7E-9A9F-73CB636BC82D";
shapes = (
{
closed = 1;
nodes = (
(-363,1580,cs),
(-363,1431,o),
(-293,1286,o),
(-253,1264,c),
(-114,1264,l),
(-179,1320,o),
(-198,1426,o),
(-198,1506,cs),
(-198,1733,o),
(-126,1786,o),
(-29,1786,cs),
(76,1786,o),
(258,1594,o),
(329,1264,c),
(0,1264,l),
(0,1123,l),
(287,1123,l),
(287,283,ls),
(287,157,o),
(247,49,o),
(169,49,cs),
(150,49,o),
(122,36,o),
(122,14,cs),
(122,-29,o),
(244,-120,o),
(283,-120,cs),
(364,-120,o),
(441,-2,o),
(441,142,cs),
(441,955,ls),
(441,1050,o),
(450,1123,o),
(491,1123,cs),
(681,1123,l),
(681,1264,l),
(416,1264,l),
(349,1679,o),
(153,1948,o),
(-53,1948,cs),
(-189,1948,o),
(-363,1823,o)
);
}
);
width = 661;
}
);
unicode = 2368;
},
{
glyphname = "oMatra_anusvara-deva";
lastChange = "2021-08-22 03:02:32 +0000";
layers = (
{
layerId = "81641B54-5DFF-4E7E-9A9F-73CB636BC82D";
shapes = (
{
closed = 1;
nodes = (
(407,1693,cs),
(360,1693,o),
(303,1623,o),
(303,1560,cs),
(303,1468,o),
(376,1452,o),
(415,1452,cs),
(478,1452,o),
(508,1495,o),
(508,1577,cs),
(508,1669,o),
(452,1693,o)
);
},
{
ref = "aaMatra-deva";
},
{
pos = (-51,0);
ref = "eMatra-deva";
}
);
width = 464;
}
);
},
{
glyphname = "prishthaMatraE-deva";
lastChange = "2021-08-22 03:02:32 +0000";
layers = (
{
anchors = (
{
name = bottom;
pos = (81,-21);
},
{
name = top;
pos = (240,1257);
}
);
layerId = "81641B54-5DFF-4E7E-9A9F-73CB636BC82D";
shapes = (
{
closed = 1;
nodes = (
(105,1123,l),
(105,283,ls),
(105,157,o),
(61,49,o),
(-13,49,cs),
(-33,49,o),
(-60,36,o),
(-60,14,cs),
(-60,-29,o),
(58,-120,o),
(101,-120,cs),
(181,-120,o),
(259,-2,o),
(259,142,cs),
(259,955,ls),
(259,1050,o),
(299,1123,o),
(339,1123,cs),
(484,1123,l),
(484,1264,l),
(336,1264,l),
(218,1367,ls),
(186,1396,o),
(167,1396,o),
(157,1400,c),
(117,1400,o),
(78,1367,o),
(78,1312,cs),
(78,1264,l)
);
}
);
width = 464;
}
);
unicode = 2382;
},
{
glyphname = "ooeMatra-deva";
lastChange = "2021-08-22 03:02:32 +0000";
layers = (
{
layerId = "81641B54-5DFF-4E7E-9A9F-73CB636BC82D";
shapes = (
{
closed = 1;
nodes = (
(80,1206,l),
(235,1206,l),
(235,1607,l),
(80,1607,l)
);
},
{
ref = "aaMatra-deva";
}
);
width = 464;
}
);
unicode = 2363;
},
{
glyphname = "awMatra-deva";
lastChange = "2021-08-22 03:02:32 +0000";
layers = (
{
layerId = "81641B54-5DFF-4E7E-9A9F-73CB636BC82D";
shapes = (
{
closed = 1;
nodes = (
(335,1548,o),
(208,1923,o),
(-42,1923,cs),
(-209,1923,o),
(-456,1893,o),
(-456,1999,cs),
(-456,2031,o),
(-493,2061,o),
(-538,2061,cs),
(-578,2061,o),
(-612,2027,o),
(-612,1989,cs),
(-612,1712,o),
(-285,1807,o),
(-40,1807,cs),
(117,1807,o),
(252,1465,o),
(252,1265,c),
(163,1265,l),
(145,1405,o),
(36,1633,o),
(-166,1633,cs),
(-394,1633,o),
(-632,1609,o),
(-632,1719,cs),
(-632,1753,o),
(-672,1778,o),
(-711,1778,cs),
(-749,1778,o),
(-786,1749,o),
(-786,1701,cs),
(-786,1489,o),
(-465,1514,o),
(-174,1514,cs),
(-29,1514,o),
(54,1330,o),
(81,1257,c),
(208,1226,l),
(337,1257,l)
);
},
{
ref = "aaMatra-deva";
}
);
width = 464;
}
);
unicode = 2383;
},
{
glyphname = "iMatra-deva.0";
lastChange = "2021-08-22 03:02:32 +0000";
layers = (
{
anchors = (
{
name = bin;
pos = (1049,1257);
},
{
name = imatra;
pos = (1100,1257);
},
{
name = top;
pos = (1019,1347);
}
);
layerId = "81641B54-5DFF-4E7E-9A9F-73CB636BC82D";
shapes = (
{
closed = 1;
nodes = (
(-20,1123,l),
(287,1123,l),
(287,283,ls),
(287,157,o),
(243,49,o),
(169,49,cs),
(149,49,o),
(122,36,o),
(122,14,cs),
(122,-29,o),
(240,-120,o),
(283,-120,cs),
(363,-120,o),
(441,-2,o),
(441,142,cs),
(441,955,ls),
(441,1050,o),
(481,1123,o),
(521,1123,cs),
(678,1123,l),
(678,1264,l),
(450,1264,l),
(354,1286,o),
(299,1404,o),
(299,1520,cs),
(299,1666,o),
(399,1785,o),
(528,1785,cs),
(734,1785,o),
(863,1609,o),
(977,1355,c),
(985,1335,o),
(1008,1325,o),
(1028,1325,cs),
(1033,1325,o),
(1038,1343,o),
(1038,1386,c),
(998,1624,o),
(821,1948,o),
(505,1948,cs),
(287,1948,o),
(149,1783,o),
(149,1565,cs),
(149,1449,o),
(198,1328,o),
(284,1264,c),
(-20,1264,l)
);
}
);
width = 656;
}
);
},
{
glyphname = "iMatra-deva.01";
lastChange = "2021-08-22 03:02:32 +0000";
layers = (
{
anchors = (
{
name = bin;
pos = (1477,1332);
},
{
name = imatra;
pos = (1339,1384);
},
{
name = top;
pos = (1436,1281);
}
);
layerId = "81641B54-5DFF-4E7E-9A9F-73CB636BC82D";
shapes = (
{
closed = 1;
nodes = (
(-20,1123,l),
(287,1123,l),
(287,283,ls),
(287,157,o),
(243,49,o),
(169,49,cs),
(149,49,o),
(122,36,o),
(122,14,cs),
(122,-29,o),
(240,-120,o),
(283,-120,cs),
(363,-120,o),
(441,-2,o),
(441,142,cs),
(441,955,ls),
(441,1050,o),
(481,1123,o),
(521,1123,cs),
(678,1123,l),
(678,1264,l),
(450,1264,l),
(354,1286,o),
(299,1404,o),
(299,1520,cs),
(299,1666,o),
(429,1785,o),
(558,1785,cs),
(934,1785,o),
(1198,1609,o),
(1312,1355,c),
(1320,1335,o),
(1343,1325,o),
(1363,1325,cs),
(1368,1325,o),
(1373,1343,o),
(1373,1386,c),
(1333,1624,o),
(1015,1948,o),
(555,1948,cs),
(317,1948,o),
(149,1783,o),
(149,1565,cs),
(149,1449,o),
(198,1328,o),
(284,1264,c),
(-20,1264,l)
);
}
);
width = 557;
}
);
},
{
glyphname = "iMatra-deva.02";
lastChange = "2021-08-22 03:02:32 +0000";
layers = (
{
anchors = (
{
name = bin;
pos = (1671,1332);
},
{
name = imatra;
pos = (1560,1388);
},
{
name = top;
pos = (1691,1371);
}
);
layerId = "81641B54-5DFF-4E7E-9A9F-73CB636BC82D";
shapes = (
{
closed = 1;
nodes = (
(-20,1123,l),
(287,1123,l),
(287,283,ls),
(287,157,o),
(243,49,o),
(169,49,cs),
(149,49,o),
(122,36,o),
(122,14,cs),
(122,-29,o),
(240,-120,o),
(283,-120,cs),
(363,-120,o),
(441,-2,o),
(441,142,cs),
(441,955,ls),
(441,1050,o),
(481,1123,o),
(521,1123,cs),
(678,1123,l),
(678,1264,l),
(450,1264,l),
(354,1286,o),
(299,1404,o),
(299,1520,cs),
(299,1666,o),
(489,1785,o),
(638,1785,cs),
(1133,1785,o),
(1427,1609,o),
(1541,1355,c),
(1549,1335,o),
(1572,1325,o),
(1592,1325,cs),
(1597,1325,o),
(1602,1343,o),
(1602,1386,c),
(1562,1624,o),
(1173,1948,o),
(615,1948,cs),
(374,1948,o),
(149,1783,o),
(149,1565,cs),
(149,1449,o),
(198,1328,o),
(284,1264,c),
(-20,1264,l)
);
}
);
width = 556;
}
);
},
{
glyphname = "iMatra-deva.03";
lastChange = "2021-08-22 03:02:32 +0000";
layers = (
{
anchors = (
{
name = bin;
pos = (1672,1340);
},
{
name = imatra;
pos = (1666,1385);
},
{
name = top;
pos = (1672,1355);
}
);
layerId = "81641B54-5DFF-4E7E-9A9F-73CB636BC82D";
shapes = (
{
closed = 1;
nodes = (
(-20,1123,l),
(287,1123,l),
(287,283,ls),
(287,157,o),
(243,49,o),
(169,49,cs),
(149,49,o),
(122,36,o),
(122,14,cs),
(122,-29,o),
(240,-120,o),
(283,-120,cs),
(363,-120,o),
(441,-2,o),
(441,142,cs),
(441,955,ls),
(441,1050,o),
(481,1123,o),
(521,1123,cs),
(678,1123,l),
(678,1264,l),
(450,1264,l),
(354,1286,o),
(299,1404,o),
(299,1520,cs),
(299,1666,o),
(489,1785,o),
(638,1785,cs),
(1133,1785,o),
(1527,1609,o),
(1641,1355,c),
(1649,1335,o),
(1672,1325,o),
(1692,1325,cs),
(1697,1325,o),
(1702,1343,o),
(1702,1386,c),
(1662,1624,o),
(1173,1948,o),
(615,1948,cs),
(374,1948,o),
(149,1783,o),
(149,1565,cs),
(149,1449,o),
(198,1328,o),
(284,1264,c),
(-20,1264,l)
);
}
);
width = 556;
}
);
},
{
glyphname = "iMatra-deva.05";
lastChange = "2021-08-22 03:02:32 +0000";
layers = (
{
anchors = (
{
name = bin;
pos = (1852,1332);
},
{
name = imatra;
pos = (1781,1384);
},
{
name = top;
pos = (1856,1371);
}
);
layerId = "81641B54-5DFF-4E7E-9A9F-73CB636BC82D";
shapes = (
{
closed = 1;
nodes = (
(-20,1123,l),
(287,1123,l),
(287,283,ls),
(287,157,o),
(243,49,o),
(169,49,cs),
(149,49,o),
(122,36,o),
(122,14,cs),
(122,-29,o),
(240,-120,o),
(283,-120,cs),
(363,-120,o),
(441,-2,o),
(441,142,cs),
(441,955,ls),
(441,1050,o),
(481,1123,o),
(521,1123,cs),
(678,1123,l),
(678,1264,l),
(450,1264,l),
(354,1286,o),
(299,1404,o),
(299,1520,cs),
(299,1666,o),
(449,1785,o),
(678,1785,cs),
(1173,1785,o),
(1631,1609,o),
(1745,1355,c),
(1753,1335,o),
(1776,1325,o),
(1796,1325,cs),
(1801,1325,o),
(1806,1343,o),
(1806,1386,c),
(1766,1624,o),
(1213,1948,o),
(655,1948,cs),
(364,1948,o),
(149,1783,o),
(149,1565,cs),
(149,1449,o),
(198,1328,o),
(284,1264,c),
(-20,1264,l)
);
}
);
width = 556;
}
);
},
{
glyphname = "iMatra-deva.08";
lastChange = "2021-08-22 03:02:32 +0000";
layers = (
{
anchors = (
{
name = bin;
pos = (1957,1332);
},
{
name = imatra;
pos = (1890,1381);
},
{
name = top;
pos = (1968,1373);
}
);
layerId = "81641B54-5DFF-4E7E-9A9F-73CB636BC82D";
shapes = (
{
closed = 1;
nodes = (
(-20,1123,l),
(287,1123,l),
(287,283,ls),
(287,157,o),
(243,49,o),
(169,49,cs),
(149,49,o),
(122,36,o),
(122,14,cs),
(122,-29,o),
(240,-120,o),
(283,-120,cs),
(363,-120,o),
(441,-2,o),
(441,142,cs),
(441,955,ls),
(441,1050,o),
(481,1123,o),
(521,1123,cs),
(678,1123,l),
(678,1264,l),
(450,1264,l),
(354,1286,o),
(299,1404,o),
(299,1520,cs),
(299,1666,o),
(449,1785,o),
(678,1785,cs),
(1248,1785,o),
(1741,1609,o),
(1855,1355,c),
(1863,1335,o),
(1886,1325,o),
(1906,1325,cs),
(1911,1325,o),
(1916,1343,o),
(1916,1386,c),
(1876,1624,o),
(1344,1948,o),
(655,1948,cs),
(364,1948,o),
(149,1783,o),
(149,1565,cs),
(149,1449,o),
(198,1328,o),
(284,1264,c),
(-20,1264,l)
);
}
);
width = 556;
}
);
},
{
glyphname = "iMatra-deva.10";
lastChange = "2021-08-22 03:02:32 +0000";
layers = (
{
anchors = (
{
name = bin;
pos = (2056,1332);
},
{
name = imatra;
pos = (1998,1387);
},
{
name = top;
pos = (2080,1368);
}
);
layerId = "81641B54-5DFF-4E7E-9A9F-73CB636BC82D";
shapes = (
{
closed = 1;
nodes = (
(-20,1123,l),
(287,1123,l),
(287,283,ls),
(287,157,o),
(243,49,o),
(169,49,cs),
(149,49,o),
(122,36,o),
(122,14,cs),
(122,-29,o),
(240,-120,o),
(283,-120,cs),
(363,-120,o),
(441,-2,o),
(441,142,cs),
(441,955,ls),
(441,1050,o),
(481,1123,o),
(521,1123,cs),
(678,1123,l),
(678,1264,l),
(450,1264,l),
(354,1286,o),
(299,1404,o),
(299,1520,cs),
(299,1666,o),
(449,1785,o),
(678,1785,cs),
(1353,1785,o),
(1805,1553,o),
(1965,1355,c),
(1973,1335,o),
(1996,1325,o),
(2016,1325,cs),
(2021,1325,o),
(2026,1343,o),
(2026,1386,c),
(1993,1567,o),
(1484,1948,o),
(655,1948,cs),
(364,1948,o),
(149,1783,o),
(149,1565,cs),
(149,1449,o),
(198,1328,o),
(284,1264,c),
(-20,1264,l)
);
}
);
width = 556;
}
);
},
{
glyphname = "iMatra-deva.15";
lastChange = "2021-08-22 03:02:32 +0000";
layers = (
{
anchors = (
{
name = bin;
pos = (2179,1332);
},
{
name = imatra;
pos = (2106,1379);
},
{
name = top;
pos = (2202,1372);
}
);
layerId = "81641B54-5DFF-4E7E-9A9F-73CB636BC82D";
shapes = (
{
closed = 1;
nodes = (
(-20,1123,l),
(287,1123,l),
(287,283,ls),
(287,157,o),
(243,49,o),
(169,49,cs),
(149,49,o),
(122,36,o),
(122,14,cs),
(122,-29,o),
(240,-120,o),
(283,-120,cs),
(363,-120,o),
(441,-2,o),
(441,142,cs),
(441,955,ls),
(441,1050,o),
(481,1123,o),
(521,1123,cs),
(678,1123,l),
(678,1264,l),
(450,1264,l),
(354,1286,o),
(299,1404,o),
(299,1520,cs),
(299,1666,o),
(449,1785,o),
(678,1785,cs),
(1353,1785,o),
(1925,1553,o),
(2085,1355,c),
(2093,1335,o),
(2116,1325,o),
(2136,1325,cs),
(2141,1325,o),
(2146,1343,o),
(2146,1386,c),
(2113,1567,o),
(1484,1948,o),
(655,1948,cs),
(364,1948,o),
(149,1783,o),
(149,1565,cs),
(149,1449,o),
(198,1328,o),
(284,1264,c),
(-20,1264,l)
);
}
);
width = 556;
}
);
},
{
glyphname = "iMatra-deva.20";
lastChange = "2021-08-22 03:02:32 +0000";
layers = (
{
anchors = (
{
name = bin;
pos = (2294,1332);
},
{
name = imatra;
pos = (2219,1380);
},
{
name = top;
pos = (2369,1382);
}
);
layerId = "81641B54-5DFF-4E7E-9A9F-73CB636BC82D";
shapes = (
{
closed = 1;
nodes = (
(-20,1123,l),
(287,1123,l),
(287,283,ls),
(287,157,o),
(243,49,o),
(169,49,cs),
(149,49,o),
(122,36,o),
(122,14,cs),
(122,-29,o),
(240,-120,o),
(283,-120,cs),
(363,-120,o),
(441,-2,o),
(441,142,cs),
(441,955,ls),
(441,1050,o),
(481,1123,o),
(521,1123,cs),
(678,1123,l),
(678,1264,l),
(450,1264,l),
(354,1286,o),
(299,1404,o),
(299,1520,cs),
(299,1666,o),
(449,1785,o),
(678,1785,cs),
(1353,1785,o),
(2035,1553,o),
(2195,1355,c),
(2203,1335,o),
(2226,1325,o),
(2246,1325,cs),
(2251,1325,o),
(2256,1343,o),
(2256,1386,c),
(2223,1567,o),
(1484,1948,o),
(655,1948,cs),
(364,1948,o),
(149,1783,o),
(149,1565,cs),
(149,1449,o),
(198,1328,o),
(284,1264,c),
(-20,1264,l)
);
}
);
width = 556;
}
);
},
{
glyphname = "iMatra-deva.25";
lastChange = "2021-08-22 03:02:32 +0000";
layers = (
{
anchors = (
{
name = bin;
pos = (2463,1340);
},
{
name = imatra;
pos = (2461,1439);
},
{
name = top;
pos = (2460,1386);
}
);
layerId = "81641B54-5DFF-4E7E-9A9F-73CB636BC82D";
shapes = (
{
closed = 1;
nodes = (
(-20,1123,l),
(287,1123,l),
(287,283,ls),
(287,157,o),
(243,49,o),
(169,49,cs),
(149,49,o),
(122,36,o),
(122,14,cs),
(122,-29,o),
(240,-120,o),
(283,-120,cs),
(363,-120,o),
(441,-2,o),
(441,142,cs),
(441,955,ls),
(441,1050,o),
(481,1123,o),
(521,1123,cs),
(678,1123,l),
(678,1264,l),
(450,1264,l),
(354,1286,o),
(299,1404,o),
(299,1520,cs),
(299,1666,o),
(449,1785,o),
(678,1785,cs),
(1353,1785,o),
(2145,1553,o),
(2305,1355,c),
(2313,1335,o),
(2336,1325,o),
(2356,1325,cs),
(2361,1325,o),
(2366,1343,o),
(2366,1386,c),
(2333,1567,o),
(1484,1948,o),
(655,1948,cs),
(364,1948,o),
(149,1783,o),
(149,1565,cs),
(149,1449,o),
(198,1328,o),
(284,1264,c),
(-20,1264,l)
);
}
);
width = 556;
}
);
},
{
glyphname = "iMatra-deva.30";
lastChange = "2021-08-22 03:02:32 +0000";
layers = (
{
anchors = (
{
name = bin;
pos = (2492,1332);
},
{
name = imatra;
pos = (2439,1383);
},
{
name = top;
pos = (2533,1368);
}
);
layerId = "81641B54-5DFF-4E7E-9A9F-73CB636BC82D";
shapes = (
{
closed = 1;
nodes = (
(-20,1123,l),
(287,1123,l),
(287,283,ls),
(287,157,o),
(243,49,o),
(169,49,cs),
(149,49,o),
(122,36,o),
(122,14,cs),
(122,-29,o),
(240,-120,o),
(283,-120,cs),
(363,-120,o),
(441,-2,o),
(441,142,cs),
(441,955,ls),
(441,1050,o),
(481,1123,o),
(521,1123,cs),
(678,1123,l),
(678,1264,l),
(450,1264,l),
(354,1286,o),
(299,1404,o),
(299,1520,cs),
(299,1666,o),
(449,1785,o),
(678,1785,cs),
(1353,1785,o),
(2260,1553,o),
(2420,1355,c),
(2428,1335,o),
(2451,1325,o),
(2471,1325,cs),
(2476,1325,o),
(2481,1343,o),
(2481,1386,c),
(2448,1567,o),
(1484,1948,o),
(655,1948,cs),
(364,1948,o),
(149,1783,o),
(149,1565,cs),
(149,1449,o),
(198,1328,o),
(284,1264,c),
(-20,1264,l)
);
}
);
width = 556;
}
);
},
{
glyphname = "iMatra-deva.35";
lastChange = "2021-08-22 03:02:32 +0000";
layers = (
{
anchors = (
{
name = bin;
pos = (2577,1332);
},
{
name = imatra;
pos = (2545,1382);
},
{
name = top;
pos = (2651,1376);
}
);
layerId = "81641B54-5DFF-4E7E-9A9F-73CB636BC82D";
shapes = (
{
closed = 1;
nodes = (
(-20,1123,l),
(287,1123,l),
(287,283,ls),
(287,157,o),
(243,49,o),
(169,49,cs),
(149,49,o),
(122,36,o),
(122,14,cs),
(122,-29,o),
(240,-120,o),
(283,-120,cs),
(363,-120,o),
(441,-2,o),
(441,142,cs),
(441,955,ls),
(441,1050,o),
(481,1123,o),
(521,1123,cs),
(678,1123,l),
(678,1264,l),
(450,1264,l),
(354,1286,o),
(299,1404,o),
(299,1520,cs),
(299,1666,o),
(449,1785,o),
(678,1785,cs),
(1353,1785,o),
(2364,1553,o),
(2524,1355,c),
(2532,1335,o),
(2555,1325,o),
(2575,1325,cs),
(2580,1325,o),
(2585,1343,o),
(2585,1386,c),
(2552,1567,o),
(1484,1948,o),
(655,1948,cs),
(364,1948,o),
(149,1783,o),
(149,1565,cs),
(149,1449,o),
(198,1328,o),
(284,1264,c),
(-20,1264,l)
);
}
);
width = 556;
}
);
},
{
glyphname = "iiMatra-deva.02";
lastChange = "2021-08-22 03:02:32 +0000";
layers = (
{
anchors = (
{
name = bin;
pos = (632,1262);
},
{
name = iimatra;
pos = (-725,1257);
},
{
name = top;
pos = (439,1262);
}
);
layerId = "81641B54-5DFF-4E7E-9A9F-73CB636BC82D";
shapes = (
{
closed = 1;
nodes = (
(-894,1532,cs),
(-894,1436,o),
(-836,1309,o),
(-777,1262,c),
(-674,1262,l),
(-732,1343,o),
(-753,1451,o),
(-753,1515,cs),
(-753,1685,o),
(-581,1770,o),
(-448,1770,cs),
(-95,1770,o),
(172,1522,o),
(264,1264,c),
(-68,1264,l),
(-68,1123,l),
(227,1123,l),
(227,283,ls),
(227,157,o),
(183,49,o),
(109,49,cs),
(89,49,o),
(62,36,o),
(62,14,cs),
(62,-29,o),
(180,-120,o),
(223,-120,cs),
(303,-120,o),
(381,-2,o),
(381,142,cs),
(381,955,ls),
(381,1050,o),
(421,1123,o),
(461,1123,cs),
(601,1123,l),
(601,1264,l),
(353,1264,l),
(222,1642,o),
(-105,1948,o),
(-466,1948,cs),
(-736,1948,o),
(-894,1775,o)
);
}
);
width = 581;
}
);
},
{
glyphname = "ka-deva";
lastChange = "2021-08-22 03:02:32 +0000";
layers = (
{
anchors = (
{
name = bin;
pos = (1038,1266);
},
{
name = bottom;
pos = (975,-120);
},
{
name = nukta;
pos = (184,108);
},
{
name = top;
pos = (1076,1267);
}
);
layerId = "81641B54-5DFF-4E7E-9A9F-73CB636BC82D";
shapes = (
{
closed = 1;
nodes = (
(-59,1123,l),
(977,1123,l),
(977,732,l),
(901,846,o),
(745,916,o),
(574,916,cs),
(297,916,o),
(112,800,o),
(112,623,cs),
(112,468,o),
(392,232,o),
(592,232,cs),
(729,232,o),
(856,283,o),
(977,364,c),
(977,232,ls),
(977,144,o),
(924,63,o),
(836,63,cs),
(815,63,o),
(786,50,o),
(786,35,cs),
(786,-25,o),
(901,-120,o),
(946,-120,cs),
(1062,-120,o),
(1133,-8,o),
(1133,142,cs),
(1133,567,l),
(1213,615,o),
(1325,639,o),
(1433,639,cs),
(1504,639,o),
(1563,582,o),
(1563,497,cs),
(1563,359,o),
(1467,232,o),
(1337,232,cs),
(1312,232,o),
(1288,218,o),
(1288,195,cs),
(1288,183,o),
(1297,160,o),
(1310,149,c),
(1381,76,l),
(1538,76,o),
(1679,203,o),
(1679,364,cs),
(1679,540,o),
(1470,805,o),
(1318,805,cs),
(1246,805,o),
(1176,798,o),
(1138,777,c),
(1133,1013,ls),
(1133,1076,o),
(1147,1123,o),
(1202,1123,cs),
(1837,1123,l),
(1837,1264,l),
(1176,1264,l),
(1123,1347,o),
(1070,1396,o),
(1021,1396,cs),
(999,1396,o),
(977,1355,o),
(977,1302,cs),
(977,1264,l),
(-59,1264,l)
);
},
{
closed = 1;
nodes = (
(491,387,cs),
(342,387,o),
(218,468,o),
(218,547,cs),
(218,639,o),
(436,732,o),
(629,732,cs),
(745,732,o),
(977,652,o),
(977,596,cs),
(977,517,o),
(661,387,o)
);
}
);
width = 1817;
}
);
unicode = 2325;
},
{
glyphname = "kha-deva";
lastChange = "2021-08-22 03:02:32 +0000";
layers = (
{
anchors = (
{
name = bin;
pos = (862,1262);
},
{
name = bottom;
pos = (1617,-79);
},
{
name = nukta;
pos = (159,58);
},
{
name = top;
pos = (1726,1257);
}
);
layerId = "81641B54-5DFF-4E7E-9A9F-73CB636BC82D";
shapes = (
{
closed = 1;
nodes = (
(745,14,cs),
(625,14,o),
(491,109,o),
(391,268,c),
(437,268,ls),
(563,268,o),
(647,418,o),
(647,652,cs),
(647,706,o),
(639,866,o),
(639,916,cs),
(639,1020,o),
(643,1084,o),
(664,1123,c),
(1628,1123,l),
(1628,955,ls),
(1628,875,o),
(1656,596,o),
(1656,517,c),
(1649,517,l),
(1557,724,o),
(1402,860,o),
(1243,860,cs),
(1025,860,o),
(849,722,o),
(849,557,cs),
(849,406,o),
(999,238,o),
(1183,155,c),
(1060,74,o),
(901,14,o)
);
},
{
closed = 1;
nodes = (
(1157,322,cs),
(1060,322,o),
(967,382,o),
(967,473,cs),
(967,592,o),
(1133,694,o),
(1337,694,cs),
(1470,694,o),
(1573,598,o),
(1588,473,c),
(1587,473,l),
(1494,371,o),
(1340,322,o)
);
},
{
closed = 1;
nodes = (
(293,406,cs),
(254,406,o),
(218,448,o),
(218,517,cs),
(218,612,o),
(289,694,o),
(371,694,cs),
(408,694,o),
(454,661,o),
(489,623,c),
(491,623,l),
(476,497,o),
(387,406,o)
);
},
{
closed = 1;
nodes = (
(1809,1264,l),
(1765,1355,o),
(1714,1400,o),
(1675,1400,cs),
(1649,1400,o),
(1628,1372,o),
(1628,1264,c),
(655,1264,l),
(610,1355,o),
(562,1400,o),
(521,1400,cs),
(495,1400,o),
(473,1372,o),
(473,1264,c),
(-18,1264,l),
(-18,1123,l),
(473,1123,l),
(473,942,o),
(478,829,o),
(491,777,c),
(483,777,l),
(416,805,o),
(349,818,o),
(317,818,cs),
(210,818,o),
(114,726,o),
(114,610,cs),
(114,481,o),
(205,334,o),
(378,149,cs),
(557,-43,o),
(715,-130,o),
(831,-130,cs),
(1025,-130,o),
(1318,12,o),
(1651,299,c),
(1656,299,l),
(1659,279,o),
(1659,263,o),
(1659,244,cs),
(1659,139,o),
(1587,49,o),
(1512,49,cs),
(1494,49,o),
(1487,33,o),
(1487,-2,cs),
(1487,-43,o),
(1587,-130,o),
(1652,-130,cs),
(1760,-130,o),
(1812,71,o),
(1812,311,cs),
(1812,413,o),
(1783,773,o),
(1783,874,cs),
(1783,983,o),
(1786,1123,o),
(1804,1123,cs),
(2080,1123,l),
(2080,1264,l)
);
}
);
width = 2060;
}
);
unicode = 2326;
},
{
glyphname = "ga-deva";
lastChange = "2021-08-22 03:02:32 +0000";
layers = (
{
anchors = (
{
name = bin;
pos = (428,1257);
},
{
name = bottom;
pos = (831,-93);
},
{
name = nukta;
pos = (253,49);
},
{
name = top;
pos = (953,1267);
}
);
layerId = "81641B54-5DFF-4E7E-9A9F-73CB636BC82D";
shapes = (
{
closed = 1;
nodes = (
(-20,1123,l),
(336,1123,l),
(336,777,l),
(329,777,l),
(317,798,o),
(281,805,o),
(234,805,cs),
(159,805,o),
(104,726,o),
(104,639,cs),
(104,483,o),
(281,311,o),
(438,311,cs),
(532,311,o),
(491,532,o),
(560,532,cs),
(576,532,o),
(611,497,o),
(621,497,cs),
(637,497,o),
(651,523,o),
(651,547,cs),
(651,580,o),
(625,596,o),
(506,661,c),
(505,899,ls),
(503,1020,o),
(540,1123,o),
(611,1123,cs),
(864,1123,l),
(864,283,ls),
(864,155,o),
(805,49,o),
(727,49,cs),
(706,49,o),
(677,36,o),
(677,14,cs),
(677,-29,o),
(805,-120,o),
(859,-120,cs),
(948,-120,o),
(1028,-2,o),
(1028,142,cs),
(1028,955,ls),
(1028,1050,o),
(1058,1123,o),
(1091,1123,cs),
(1310,1123,l),
(1310,1264,l),
(1089,1264,l),
(985,1367,l),
(950,1394,o),
(932,1398,o),
(922,1400,c),
(885,1400,o),
(844,1367,o),
(844,1312,cs),
(844,1264,l),
(566,1264,l),
(517,1347,o),
(448,1400,o),
(393,1400,cs),
(362,1400,o),
(336,1372,o),
(336,1330,cs),
(336,1264,l),
(-20,1264,l)
);
},
{
closed = 1;
nodes = (
(293,473,cs),
(236,473,o),
(188,535,o),
(188,610,cs),
(188,652,o),
(220,694,o),
(257,694,cs),
(302,694,o),
(336,664,o),
(336,639,cs),
(336,574,o),
(314,473,o)
);
}
);
width = 1290;
}
);
unicode = 2327;
},
{
glyphname = "gha-deva";
lastChange = "2021-08-22 03:02:32 +0000";
layers = (
{
anchors = (
{
name = bin;
pos = (660,1262);
},
{
name = bottom;
pos = (1039,-126);
},
{
name = nukta;
pos = (170,-24);
},
{
name = top;
pos = (1133,1267);
}
);
layerId = "81641B54-5DFF-4E7E-9A9F-73CB636BC82D";
shapes = (
{
closed = 1;
nodes = (
(-29,1123,l),
(279,1123,l),
(203,1052,o),
(157,973,o),
(157,899,cs),
(157,825,o),
(225,760,o),
(303,710,c),
(215,649,o),
(149,542,o),
(149,431,cs),
(149,279,o),
(443,63,o),
(626,63,cs),
(753,63,o),
(895,144,o),
(1052,299,c),
(1058,299,l),
(1058,175,o),
(1021,66,o),
(978,49,c),
(958,49,o),
(928,33,o),
(928,-2,cs),
(928,-68,o),
(994,-120,o),
(1084,-120,cs),
(1156,-120,o),
(1204,20,o),
(1204,195,cs),
(1204,942,ls),
(1204,1038,o),
(1243,1123,o),
(1286,1123,cs),
(1431,1123,l),
(1431,1264,l),
(1283,1264,l),
(1231,1305,l),
(1178,1365,o),
(1133,1400,o),
(1119,1400,cs),
(1074,1400,o),
(1028,1357,o),
(1028,1302,cs),
(1028,1264,l),
(-29,1264,l)
);
},
{
closed = 1;
nodes = (
(526,208,cs),
(347,208,o),
(263,266,o),
(263,374,cs),
(263,476,o),
(456,623,o),
(555,623,cs),
(565,623,o),
(592,616,o),
(619,610,c),
(621,610,l),
(645,602,o),
(661,596,o),
(671,596,cs),
(697,596,o),
(719,621,o),
(719,652,cs),
(719,760,o),
(676,805,o),
(567,805,cs),
(563,805,o),
(557,804,o),
(552,800,c),
(439,771,ls),
(423,767,o),
(406,767,o),
(403,767,cs),
(352,767,o),
(319,790,o),
(319,831,cs),
(319,932,o),
(462,1052,o),
(555,1052,cs),
(588,1052,o),
(623,1083,o),
(623,1123,c),
(1057,1123,l),
(1057,489,l),
(1048,489,l),
(1002,544,l),
(1005,537,l),
(998,544,o),
(993,547,o),
(988,547,cs),
(977,547,o),
(958,507,o),
(944,454,c),
(860,317,o),
(696,208,o)
);
}
);
width = 1411;
}
);
unicode = 2328;
},
{
glyphname = "nga-deva";
lastChange = "2021-08-22 03:02:32 +0000";
layers = (
{
anchors = (
{
name = bin;
pos = (704,1257);
},
{
name = bottom;
pos = (819,-70);
},
{
name = top;
pos = (1057,1257);
}
);
layerId = "81641B54-5DFF-4E7E-9A9F-73CB636BC82D";
shapes = (
{
closed = 1;
nodes = (
(1356,1264,l),
(1356,1123,l),
(1635,1123,l),
(1635,1264,l)
);
},
{
closed = 1;
nodes = (
(1442,506,cs),
(1448,506,o),
(1458,506,o),
(1468,516,cs),
(1545,608,l),
(1554,626,o),
(1561,636,o),
(1561,659,cs),
(1561,677,o),
(1548,687,o),
(1521,706,cs),
(1442,761,ls),
(1426,769,o),
(1414,779,o),
(1397,779,cs),
(1383,779,o),
(1363,766,o),
(1351,754,cs),
(1285,675,ls),
(1273,660,o),
(1257,639,o),
(1257,616,cs),
(1257,604,o),
(1271,586,o),
(1311,563,cs),
(1373,522,l),
(1397,512,o),
(1421,506,o)
);
},
{
ref = "dda-deva";
}
);
width = 1615;
}
);
metricLeft = "dda-deva";
unicode = 2329;
},
{
glyphname = "ca-deva";
lastChange = "2021-08-22 03:02:32 +0000";
layers = (
{
anchors = (
{
name = bin;
pos = (772,1267);
},
{
name = bottom;
pos = (1255,-39);
},
{
name = nukta;
pos = (428,0);
},
{
name = top;
pos = (1408,1267);
}
);
layerId = "81641B54-5DFF-4E7E-9A9F-73CB636BC82D";
shapes = (
{
closed = 1;
nodes = (
(4,1123,l),
(1307,1123,l),
(1309,922,o),
(1315,719,o),
(1317,517,c),
(1309,517,l),
(1305,544,o),
(1278,557,o),
(1254,557,cs),
(1238,557,o),
(1126,411,o),
(1021,368,cs),
(949,337,o),
(871,322,o),
(792,322,cs),
(647,322,o),
(565,364,o),
(565,443,cs),
(565,550,o),
(767,678,o),
(907,678,cs),
(938,678,o),
(1035,652,o),
(1068,652,cs),
(1084,652,o),
(1102,661,o),
(1102,678,cs),
(1102,743,o),
(1008,881,o),
(949,881,cs),
(924,881,o),
(881,875,o),
(859,860,c),
(712,800,o),
(517,767,o),
(282,767,c),
(232,775,o),
(126,818,o),
(116,818,cs),
(101,818,o),
(85,790,o),
(85,767,cs),
(85,674,o),
(215,574,o),
(307,567,c),
(384,565,ls),
(411,565,o),
(437,565,o),
(443,567,cs),
(450,567,l),
(450,374,o),
(674,155,o),
(856,155,cs),
(1002,155,o),
(1157,208,o),
(1320,322,c),
(1328,322,l),
(1328,189,o),
(1292,56,o),
(1208,56,cs),
(1182,56,o),
(1162,40,o),
(1162,15,cs),
(1162,-43,o),
(1262,-120,o),
(1312,-120,cs),
(1408,-120,o),
(1487,88,o),
(1487,311,cs),
(1487,899,ls),
(1487,1013,o),
(1512,1107,o),
(1549,1123,c),
(1697,1123,l),
(1697,1264,l),
(1528,1264,l),
(1485,1343,o),
(1408,1400,o),
(1345,1400,cs),
(1327,1400,o),
(1307,1341,o),
(1307,1264,c),
(4,1264,l)
);
}
);
width = 1677;
}
);
unicode = 2330;
},
{
glyphname = "cha-deva";
lastChange = "2021-08-22 03:02:32 +0000";
layers = (
{
anchors = (
{
name = bin;
pos = (666,1257);
},
{
name = bottom;
pos = (716,-87);
},
{
name = nukta;
pos = (37,0);
},
{
name = top;
pos = (1251,1257);
}
);
layerId = "81641B54-5DFF-4E7E-9A9F-73CB636BC82D";
shapes = (
{
closed = 1;
nodes = (
(-39,1123,l),
(326,1123,l),
(243,1060,o),
(187,973,o),
(187,874,cs),
(187,781,o),
(244,676,o),
(326,610,c),
(215,552,o),
(139,433,o),
(139,337,cs),
(139,132,o),
(471,-120,o),
(702,-120,cs),
(885,-120,o),
(1076,-23,o),
(1217,155,c),
(1310,116,l),
(1332,116,o),
(1350,139,o),
(1350,167,cs),
(1350,189,o),
(1291,228,o),
(1270,248,c),
(1268,248,l),
(1309,307,o),
(1330,367,o),
(1330,431,cs),
(1330,492,o),
(1312,562,o),
(1272,610,cs),
(1264,619,o),
(1257,629,o),
(1257,639,cs),
(1257,684,o),
(1315,621,o),
(1315,777,cs),
(1315,818,o),
(1307,970,o),
(1307,1013,cs),
(1307,1080,o),
(1347,1123,o),
(1392,1123,cs),
(1518,1123,l),
(1518,1264,l),
(1350,1264,l),
(1243,1386,ls),
(1223,1408,o),
(1211,1408,o),
(1196,1412,c),
(1167,1412,o),
(1133,1375,o),
(1133,1330,cs),
(1133,1264,l),
(-39,1264,l)
);
},
{
closed = 1;
nodes = (
(661,35,cs),
(436,35,o),
(297,114,o),
(297,248,cs),
(297,374,o),
(461,473,o),
(643,473,cs),
(647,473,o),
(661,471,o),
(681,466,c),
(684,466,l),
(709,461,o),
(736,454,o),
(750,454,cs),
(757,454,o),
(771,458,o),
(771,473,cs),
(771,565,o),
(743,652,o),
(688,652,cs),
(631,652,ls),
(515,652,o),
(439,649,o),
(406,639,cs),
(400,639,l),
(356,664,o),
(339,724,o),
(339,777,cs),
(339,899,o),
(439,1008,o),
(555,1040,c),
(607,1047,o),
(649,1083,o),
(649,1123,c),
(1133,1123,l),
(1131,1102,o),
(1131,1083,o),
(1131,1054,cs),
(1131,977,o),
(1126,875,o),
(1146,767,c),
(1142,767,ls),
(1048,767,o),
(975,657,o),
(975,547,cs),
(975,426,o),
(1018,326,o),
(1084,268,c),
(1087,268,l),
(967,122,o),
(802,35,o)
);
},
{
closed = 1;
nodes = (
(1171,347,cs),
(1123,347,o),
(1092,406,o),
(1092,473,cs),
(1092,535,o),
(1129,585,o),
(1171,585,cs),
(1202,585,o),
(1226,540,o),
(1226,489,cs),
(1226,426,o),
(1191,347,o)
);
}
);
width = 1498;
}
);
unicode = 2331;
},
{
glyphname = "ja-deva";
lastChange = "2021-08-22 03:02:32 +0000";
layers = (
{
anchors = (
{
name = bin;
pos = (787,1257);
},
{
name = bottom;
pos = (1338,-70);
},
{
name = nukta;
pos = (157,73);
},
{
name = top;
pos = (1473,1257);
}
);
layerId = "81641B54-5DFF-4E7E-9A9F-73CB636BC82D";
shapes = (
{
closed = 1;
nodes = (
(1579,1264,l),
(1522,1332,o),
(1471,1398,o),
(1441,1398,cs),
(1394,1398,o),
(1386,1361,o),
(1386,1288,cs),
(1386,1280,o),
(1386,1272,o),
(1386,1264,c),
(-23,1264,l),
(-23,1123,l),
(1386,1123,l),
(1386,678,l),
(1340,777,o),
(1310,825,o),
(1286,839,c),
(1272,825,o),
(1246,818,o),
(1231,818,cs),
(719,818,l),
(719,818,o),
(633,831,o),
(626,831,cs),
(612,831,o),
(588,814,o),
(588,790,cs),
(588,736,o),
(647,585,o),
(706,585,cs),
(719,585,o),
(765,623,o),
(790,623,cs),
(863,623,o),
(930,565,o),
(930,489,cs),
(930,344,o),
(792,222,o),
(639,222,cs),
(437,222,o),
(250,409,o),
(250,639,cs),
(250,661,o),
(289,739,o),
(289,767,cs),
(289,798,o),
(187,860,o),
(134,860,cs),
(112,860,o),
(99,839,o),
(99,818,cs),
(99,448,o),
(433,35,o),
(719,35,cs),
(922,35,o),
(1092,175,o),
(1092,364,cs),
(1092,448,o),
(1035,553,o),
(958,610,c),
(999,626,o),
(1074,639,o),
(1168,639,cs),
(1236,639,o),
(1317,623,o),
(1377,596,c),
(1392,562,o),
(1396,492,o),
(1396,347,cs),
(1396,146,o),
(1351,53,o),
(1270,53,cs),
(1248,53,o),
(1233,39,o),
(1233,25,cs),
(1233,-45,o),
(1309,-120,o),
(1381,-120,cs),
(1494,-120,o),
(1549,98,o),
(1549,337,cs),
(1549,437,o),
(1528,810,o),
(1528,916,cs),
(1528,1111,o),
(1534,1123,o),
(1569,1123,cs),
(1780,1123,l),
(1780,1264,l),
(1577,1264,l)
);
}
);
width = 1760;
}
);
unicode = 2332;
},
{
glyphname = "jha-deva";
lastChange = "2021-08-22 03:02:32 +0000";
layers = (
{
anchors = (
{
name = bin;
pos = (742,1257);
},
{
name = bottom;
pos = (1279,-32);
},
{
name = nukta;
pos = (132,-252);
},
{
name = top;
pos = (1369,1257);
}
);
layerId = "81641B54-5DFF-4E7E-9A9F-73CB636BC82D";
shapes = (
{
closed = 1;
nodes = (
(1209,580,o),
(1051,543,o),
(932,555,c),
(986,440,l),
(1092,425,o),
(1281,465,o),
(1345,525,c),
(1325,669,l)
);
},
{
ref = "i-deva";
},
{
pos = (1172,0);
ref = "aaMatra-deva";
}
);
width = 1636;
}
);
metricLeft = "i-deva";
metricRight = "aaMatra-deva";
unicode = 2333;
},
{
glyphname = "nya-deva";
lastChange = "2021-08-22 03:02:32 +0000";
layers = (
{
anchors = (
{
name = bin;
pos = (927,1267);
},
{
name = bottom;
pos = (1527,-87);
},
{
name = nukta;
pos = (211,-29);
},
{
name = top;
pos = (1621,1267);
}
);
layerId = "81641B54-5DFF-4E7E-9A9F-73CB636BC82D";
shapes = (
{
closed = 1;
nodes = (
(1701,1264,l),
(1660,1330,o),
(1621,1400,o),
(1596,1400,cs),
(1520,1400,o),
(1520,1264,o),
(1520,1264,c),
(-5,1264,l),
(-5,1123,l),
(1520,1123,l),
(1525,812,o),
(1542,605,o),
(1544,497,c),
(1499,547,o),
(1449,567,o),
(1400,567,cs),
(1343,567,o),
(1291,557,o),
(1219,532,c),
(1213,532,l),
(1149,753,o),
(977,899,o),
(796,899,cs),
(657,899,o),
(535,849,o),
(400,753,c),
(553,586,l),
(645,666,o),
(743,722,o),
(849,722,cs),
(1020,722,o),
(1157,607,o),
(1157,473,cs),
(1157,311,o),
(1018,195,o),
(796,195,cs),
(547,195,o),
(256,409,o),
(256,623,cs),
(256,666,o),
(248,722,o),
(228,722,cs),
(144,722,o),
(105,705,o),
(105,661,cs),
(105,542,o),
(193,378,o),
(374,225,c),
(555,69,o),
(740,-12,o),
(881,-12,cs),
(1064,-12,o),
(1211,134,o),
(1226,322,c),
(1227,322,l),
(1302,352,o),
(1404,367,o),
(1485,367,cs),
(1512,367,o),
(1532,367,o),
(1555,364,c),
(1555,195,o),
(1522,18,o),
(1454,18,cs),
(1433,18,o),
(1414,0,o),
(1414,-31,cs),
(1414,-74,o),
(1491,-120,o),
(1591,-120,cs),
(1672,-120,o),
(1703,-8,o),
(1703,129,c),
(1697,397,o),
(1685,664,o),
(1679,932,c),
(1679,1102,o),
(1683,1123,o),
(1714,1123,cs),
(1936,1123,l),
(1936,1264,l)
);
}
);
width = 1916;
}
);
unicode = 2334;
},
{
glyphname = "tta-deva";
lastChange = "2021-08-22 03:02:32 +0000";
layers = (
{
anchors = (
{
name = bin;
pos = (525,1257);
},
{
name = bottom;
pos = (631,0);
},
{
name = nukta;
pos = (38,-20);
},
{
name = top;
pos = (924,1257);
}
);
layerId = "81641B54-5DFF-4E7E-9A9F-73CB636BC82D";
shapes = (
{
closed = 1;
nodes = (
(-20,1123,l),
(818,1123,l),
(818,910,ls),
(818,868,o),
(771,827,o),
(724,827,cs),
(337,827,o),
(120,725,o),
(120,513,cs),
(120,229,o),
(391,-20,o),
(649,-20,cs),
(804,-20,o),
(1092,78,o),
(1092,171,cs),
(1092,219,o),
(1030,332,o),
(987,332,cs),
(967,332,o),
(944,318,o),
(930,295,c),
(928,295,l),
(781,205,o),
(660,163,o),
(553,163,cs),
(377,163,o),
(237,245,o),
(237,381,cs),
(237,551,o),
(423,617,o),
(775,617,cs),
(885,617,o),
(983,702,o),
(983,817,cs),
(983,1040,ls),
(983,1102,o),
(993,1123,o),
(1023,1123,cs),
(1216,1123,l),
(1216,1264,l),
(1015,1264,l),
(960,1337,o),
(914,1400,o),
(889,1400,cs),
(812,1400,o),
(812,1264,o),
(812,1264,c),
(-20,1264,l)
);
}
);
width = 1196;
}
);
unicode = 2335;
},
{
glyphname = "ttha-deva";
lastChange = "2021-08-22 03:02:32 +0000";
layers = (
{
anchors = (
{
name = bin;
pos = (545,1267);
},
{
name = bottom;
pos = (640,-113);
},
{
name = nukta;
pos = (53,58);
},
{
name = top;
pos = (917,1267);
}
);
layerId = "81641B54-5DFF-4E7E-9A9F-73CB636BC82D";
shapes = (
{
closed = 1;
nodes = (
(-23,1123,l),
(820,1123,l),
(820,921,ls),
(820,828,o),
(753,793,o),
(631,793,cs),
(313,793,o),
(112,655,o),
(112,446,cs),
(112,182,o),
(397,-80,o),
(678,-80,cs),
(875,-80,o),
(1052,83,o),
(1052,272,cs),
(1052,414,o),
(977,551,o),
(881,659,c),
(1009,671,o),
(958,1123,o),
(994,1123,cs),
(1211,1123,l),
(1211,1264,l),
(1021,1264,l),
(932,1343,o),
(884,1388,o),
(850,1388,cs),
(834,1388,o),
(814,1361,o),
(814,1330,cs),
(814,1286,l),
(810,1273,o),
(814,1264,o),
(810,1264,cs),
(-23,1264,l)
);
},
{
closed = 1;
nodes = (
(458,116,ls),
(334,116,o),
(248,223,o),
(248,359,cs),
(248,558,o),
(476,620,o),
(815,630,c),
(818,630,l),
(884,587,o),
(932,494,o),
(932,414,cs),
(932,245,o),
(773,116,o),
(607,116,cs)
);
}
);
width = 1191;
}
);
unicode = 2336;
},
{
glyphname = "dda-deva";
lastChange = "2021-08-22 03:02:32 +0000";
layers = (
{
anchors = (
{
name = bin;
pos = (618,1269);
},
{
name = bottom;
pos = (791,-120);
},
{
name = nukta;
pos = (183,-190);
},
{
name = top;
pos = (1022,1267);
}
);
layerId = "81641B54-5DFF-4E7E-9A9F-73CB636BC82D";
shapes = (
{
closed = 1;
nodes = (
(-20,1123,l),
(915,1123,l),
(935,955,l),
(928,955,l),
(904,970,o),
(826,975,o),
(699,975,cs),
(626,975,ls),
(452,975,o),
(289,881,o),
(289,777,cs),
(289,588,o),
(507,347,o),
(675,347,cs),
(739,347,o),
(975,418,o),
(1052,418,cs),
(1107,418,o),
(1146,371,o),
(1146,322,cs),
(1146,192,o),
(900,63,o),
(675,63,cs),
(467,63,o),
(277,187,o),
(213,374,c),
(208,456,o),
(178,547,o),
(129,547,cs),
(92,547,o),
(76,502,o),
(76,454,cs),
(76,167,o),
(446,-120,o),
(791,-120,cs),
(1054,-120,o),
(1278,31,o),
(1278,208,cs),
(1278,367,o),
(1106,567,o),
(962,567,cs),
(898,567,o),
(631,517,o),
(556,517,cs),
(492,517,o),
(426,557,o),
(426,610,cs),
(426,724,o),
(542,805,o),
(727,805,cs),
(793,805,o),
(1014,777,o),
(1067,777,cs),
(1093,777,o),
(1114,796,o),
(1114,818,cs),
(1114,859,o),
(1092,1009,o),
(1092,1052,cs),
(1092,1092,o),
(1133,1123,o),
(1169,1123,cs),
(1399,1123,l),
(1399,1264,l),
(1148,1264,l),
(1062,1341,o),
(993,1388,o),
(943,1388,cs),
(923,1388,o),
(904,1330,o),
(904,1264,c),
(-20,1264,l)
);
}
);
width = 1379;
}
);
unicode = 2337;
},
{
glyphname = "ddha-deva";
lastChange = "2021-08-22 03:02:32 +0000";
layers = (
{
anchors = (
{
name = bin;
pos = (753,1267);
},
{
name = bottom;
pos = (792,-3);
},
{
name = nukta;
pos = (247,124);
},
{
name = top;
pos = (1358,1267);
}
);
layerId = "81641B54-5DFF-4E7E-9A9F-73CB636BC82D";
shapes = (
{
closed = 1;
nodes = (
(-20,1123,l),
(1247,1123,l),
(1249,922,o),
(1255,719,o),
(1257,517,c),
(1249,517,l),
(1245,544,o),
(1218,557,o),
(1194,557,cs),
(1178,557,o),
(1066,411,o),
(961,368,cs),
(889,337,o),
(811,322,o),
(732,322,cs),
(587,322,o),
(505,364,o),
(505,443,cs),
(505,550,o),
(707,678,o),
(847,678,cs),
(878,678,o),
(975,652,o),
(1008,652,cs),
(1024,652,o),
(1042,661,o),
(1042,678,cs),
(1042,743,o),
(948,881,o),
(889,881,cs),
(864,881,o),
(821,875,o),
(799,860,c),
(652,800,o),
(457,767,o),
(222,767,c),
(172,775,o),
(66,818,o),
(56,818,cs),
(41,818,o),
(25,790,o),
(25,767,cs),
(25,674,o),
(155,574,o),
(247,567,c),
(324,565,ls),
(351,565,o),
(377,565,o),
(383,567,cs),
(390,567,l),
(390,374,o),
(614,155,o),
(796,155,cs),
(942,155,o),
(1097,208,o),
(1260,322,c),
(1268,322,l),
(1268,189,o),
(1212,76,o),
(1128,76,cs),
(1102,76,o),
(1082,60,o),
(1082,35,cs),
(1082,-23,o),
(1202,-120,o),
(1252,-120,cs),
(1348,-120,o),
(1427,88,o),
(1427,311,cs),
(1427,899,ls),
(1427,1013,o),
(1452,1107,o),
(1489,1123,c),
(1637,1123,l),
(1637,1264,l),
(1468,1264,l),
(1425,1343,o),
(1348,1400,o),
(1285,1400,cs),
(1267,1400,o),
(1247,1341,o),
(1247,1264,c),
(-20,1264,l)
);
}
);
width = 1617;
}
);
unicode = 2338;
},
{
glyphname = "nna-deva";
lastChange = "2021-08-22 03:02:32 +0000";
layers = (
{
anchors = (
{
name = bin;
pos = (767,1267);
},
{
name = bottom;
pos = (1139,-80);
},
{
name = nukta;
pos = (271,58);
},
{
name = top;
pos = (1228,1267);
}
);
layerId = "81641B54-5DFF-4E7E-9A9F-73CB636BC82D";
shapes = (
{
closed = 1;
nodes = (
(483,349,cs),
(368,349,o),
(311,439,o),
(311,567,cs),
(311,767,o),
(313,946,o),
(406,1123,c),
(691,1123,l),
(755,1052,o),
(792,940,o),
(792,818,cs),
(792,563,o),
(647,349,o)
);
},
{
closed = 1;
nodes = (
(483,1264,l),
(431,1337,o),
(368,1412,o),
(334,1412,cs),
(283,1412,o),
(248,1341,o),
(248,1264,c),
(-20,1264,l),
(-20,1123,l),
(212,1123,l),
(169,993,o),
(149,834,o),
(149,652,cs),
(149,468,o),
(427,167,o),
(590,167,cs),
(765,167,o),
(907,418,o),
(907,710,cs),
(907,856,o),
(866,1003,o),
(773,1123,c),
(1142,1123,l),
(1142,633,o),
(1171,76,o),
(1018,76,cs),
(994,76,o),
(977,66,o),
(977,49,cs),
(977,-12,o),
(1083,-120,o),
(1139,-120,cs),
(1226,-120,o),
(1291,36,o),
(1291,222,cs),
(1288,1028,ls),
(1288,1033,o),
(1288,1040,o),
(1288,1048,cs),
(1288,1089,o),
(1297,1123,o),
(1327,1123,cs),
(1510,1123,l),
(1510,1264,l),
(1345,1264,l),
(1295,1337,o),
(1246,1412,o),
(1211,1412,cs),
(1159,1412,o),
(1126,1341,o),
(1126,1264,c)
);
}
);
width = 1490;
}
);
unicode = 2339;
},
{
glyphname = "ta-deva";
lastChange = "2021-08-22 03:02:32 +0000";
layers = (
{
anchors = (
{
name = bin;
pos = (605,1267);
},
{
name = bottom;
pos = (1002,-59);
},
{
name = nukta;
pos = (38,-50);
},
{
name = top;
pos = (1109,1267);
}
);
layerId = "81641B54-5DFF-4E7E-9A9F-73CB636BC82D";
shapes = (
{
closed = 1;
nodes = (
(-20,1123,l),
(987,1123,l),
(977,1070,o),
(970,1023,o),
(970,973,cs),
(970,944,o),
(973,889,o),
(985,814,c),
(999,689,l),
(993,689,l),
(907,782,o),
(709,841,o),
(562,841,cs),
(277,841,o),
(88,694,o),
(88,453,cs),
(88,225,o),
(330,-109,o),
(492,-109,cs),
(517,-109,o),
(527,-92,o),
(527,-60,cs),
(527,-21,o),
(504,18,o),
(462,45,c),
(300,87,o),
(253,226,o),
(253,347,cs),
(253,535,o),
(397,649,o),
(610,649,cs),
(747,649,o),
(884,650,o),
(985,582,c),
(990,551,l),
(994,511,o),
(999,429,o),
(999,406,cs),
(999,222,o),
(938,76,o),
(866,76,cs),
(843,76,o),
(822,60,o),
(822,35,cs),
(822,-26,o),
(946,-120,o),
(1023,-120,cs),
(1112,-120,o),
(1178,109,o),
(1178,374,cs),
(1178,491,o),
(1149,879,o),
(1149,994,cs),
(1149,1070,o),
(1156,1123,o),
(1188,1123,cs),
(1390,1123,l),
(1390,1264,l),
(1226,1264,l),
(1164,1337,o),
(1111,1400,o),
(1066,1400,cs),
(1035,1400,o),
(999,1341,o),
(999,1264,c),
(-20,1264,l)
);
}
);
width = 1370;
}
);
unicode = 2340;
},
{
glyphname = "tha-deva";
lastChange = "2021-08-22 03:02:32 +0000";
layers = (
{
anchors = (
{
name = bin;
pos = (805,1257);
},
{
name = bottom;
pos = (1131,-60);
},
{
name = nukta;
pos = (182,61);
},
{
name = top;
pos = (1253,1257);
}
);
layerId = "81641B54-5DFF-4E7E-9A9F-73CB636BC82D";
shapes = (
{
closed = 1;
nodes = (
(90,678,cs),
(90,374,o),
(379,129,o),
(721,129,cs),
(867,129,o),
(1027,215,o),
(1158,374,c),
(1158,283,ls),
(1158,163,o),
(1102,23,o),
(1030,23,cs),
(1018,23,o),
(1000,10,o),
(1000,-6,cs),
(1000,-67,o),
(1117,-120,o),
(1162,-120,cs),
(1269,-120,o),
(1321,-12,o),
(1321,116,cs),
(1321,274,o),
(1302,812,o),
(1302,973,cs),
(1302,1089,o),
(1307,1123,o),
(1321,1123,cs),
(1549,1123,l),
(1549,1264,l),
(1342,1264,l),
(1311,1312,o),
(1246,1400,o),
(1208,1400,cs),
(1151,1400,o),
(1132,1337,o),
(1132,1264,c),
(1005,1264,ls),
(975,1264,o),
(928,1286,o),
(900,1286,cs),
(865,1286,o),
(851,1257,o),
(851,1221,cs),
(851,1157,o),
(894,1033,o),
(937,1033,cs),
(968,1033,o),
(1036,1123,o),
(1072,1123,cs),
(1138,1123,l),
(1138,1099,o),
(1138,1078,o),
(1138,1054,cs),
(1138,885,o),
(1148,697,o),
(1148,571,cs),
(1148,540,o),
(1148,511,o),
(1146,489,c),
(1053,596,l),
(928,416,o),
(751,299,o),
(611,299,cs),
(436,299,o),
(269,399,o),
(202,567,c),
(208,567,ls),
(541,607,o),
(758,779,o),
(758,1013,cs),
(758,1171,o),
(570,1441,o),
(461,1441,cs),
(338,1441,o),
(185,1266,o),
(185,1139,cs),
(185,1023,o),
(269,881,o),
(399,818,c),
(357,805,o),
(289,781,o),
(188,767,cs),
(125,755,o),
(90,719,o)
);
},
{
closed = 1;
nodes = (
(491,841,l),
(491,859,ls),
(491,932,o),
(441,946,o),
(391,960,c),
(388,960,l),
(338,973,o),
(296,987,o),
(296,1052,cs),
(296,1162,o),
(378,1248,o),
(481,1248,cs),
(572,1248,o),
(646,1164,o),
(646,1066,cs),
(646,967,o),
(580,874,o),
(496,841,c)
);
}
);
width = 1529;
}
);
unicode = 2341;
},
{
glyphname = "da-deva";
lastChange = "2021-08-22 03:02:32 +0000";
layers = (
{
anchors = (
{
name = bin;
pos = (503,1257);
},
{
name = bottom;
pos = (573,-252);
},
{
name = nukta;
pos = (183,-216);
},
{
name = top;
pos = (952,1257);
}
);
layerId = "81641B54-5DFF-4E7E-9A9F-73CB636BC82D";
shapes = (
{
closed = 1;
nodes = (
(-20,1123,l),
(868,1123,l),
(875,1078,o),
(879,1031,o),
(879,977,cs),
(879,897,o),
(875,818,o),
(691,818,c),
(523,805,l),
(263,802,o),
(79,655,o),
(79,439,cs),
(79,132,o),
(313,-122,o),
(610,-122,cs),
(623,-122,o),
(686,-110,o),
(753,-98,c),
(755,-98,l),
(834,-244,o),
(913,-342,o),
(968,-342,cs),
(987,-342,o),
(1020,-322,o),
(1020,-284,cs),
(1020,-258,o),
(904,-129,o),
(875,-68,c),
(877,-68,l),
(975,-26,o),
(1044,88,o),
(1044,189,cs),
(1044,315,o),
(942,431,o),
(841,431,cs),
(740,431,o),
(661,339,o),
(661,215,cs),
(661,177,o),
(668,129,o),
(691,76,c),
(645,57,o),
(586,49,o),
(508,49,cs),
(342,49,o),
(200,153,o),
(200,311,cs),
(200,483,o),
(258,619,o),
(590,619,c),
(860,626,o),
(1015,676,o),
(1015,841,cs),
(1015,970,o),
(1021,1052,o),
(1021,1123,c),
(1278,1123,l),
(1278,1264,l),
(1047,1264,l),
(1020,1315,o),
(958,1388,o),
(922,1388,cs),
(897,1388,o),
(863,1320,o),
(856,1264,c),
(-20,1264,l)
);
},
{
closed = 1;
nodes = (
(805,116,l),
(790,144,o),
(781,187,o),
(781,232,cs),
(781,287,o),
(818,322,o),
(859,322,cs),
(897,322,o),
(920,284,o),
(920,232,cs),
(920,179,o),
(877,122,o),
(810,116,cs)
);
}
);
width = 1258;
}
);
unicode = 2342;
},
{
glyphname = "dha-deva";
lastChange = "2021-08-22 03:02:32 +0000";
layers = (
{
anchors = (
{
name = bin;
pos = (771,1257);
},
{
name = bottom;
pos = (1154,-74);
},
{
name = nukta;
pos = (210,-155);
},
{
name = top;
pos = (1246,1257);
}
);
layerId = "81641B54-5DFF-4E7E-9A9F-73CB636BC82D";
shapes = (
{
closed = 1;
nodes = (
(153,387,cs),
(153,195,o),
(403,-2,o),
(639,-2,cs),
(843,-2,o),
(1025,103,o),
(1178,283,c),
(1178,153,o),
(1147,49,o),
(1087,14,c),
(1084,14,l),
(1070,14,o),
(1060,-2,o),
(1060,-12,cs),
(1060,-55,o),
(1144,-130,o),
(1176,-130,cs),
(1272,-130,o),
(1340,-55,o),
(1340,123,cs),
(1340,274,o),
(1328,822,o),
(1328,973,cs),
(1328,1083,o),
(1332,1123,o),
(1355,1123,cs),
(1588,1123,l),
(1588,1264,l),
(1381,1264,l),
(1335,1337,o),
(1273,1404,o),
(1227,1404,cs),
(1188,1404,o),
(1171,1367,o),
(1171,1302,cs),
(1171,1264,l),
(1031,1264,ls),
(1013,1264,o),
(970,1280,o),
(940,1280,cs),
(922,1280,o),
(907,1273,o),
(907,1248,cs),
(907,1168,o),
(978,1028,o),
(1020,1028,cs),
(1078,1028,o),
(1102,1123,o),
(1171,1123,c),
(1173,408,l),
(1139,448,o),
(1133,486,o),
(1114,486,cs),
(1015,486,o),
(913,150,o),
(562,150,cs),
(521,150,ls),
(384,150,o),
(289,184,o),
(289,283,cs),
(289,423,o),
(456,473,o),
(623,473,cs),
(649,473,o),
(734,454,o),
(753,454,cs),
(777,454,o),
(800,476,o),
(800,497,cs),
(800,595,o),
(753,678,o),
(668,678,cs),
(578,678,o),
(495,661,o),
(400,639,c),
(337,661,o),
(289,726,o),
(289,805,cs),
(289,934,o),
(349,1048,o),
(448,1060,c),
(466,942,o),
(544,841,o),
(623,841,cs),
(739,841,o),
(831,926,o),
(831,1028,cs),
(831,1164,o),
(688,1302,o),
(555,1302,cs),
(367,1302,o),
(153,1089,o),
(153,899,cs),
(153,786,o),
(237,661,o),
(334,596,c),
(229,555,o),
(153,463,o)
);
},
{
closed = 1;
nodes = (
(649,955,cs),
(574,955,o),
(533,1028,o),
(533,1092,cs),
(533,1107,o),
(570,1132,o),
(623,1132,cs),
(664,1132,o),
(712,1087,o),
(712,1040,cs),
(712,1002,o),
(671,955,o)
);
}
);
width = 1568;
}
);
unicode = 2343;
},
{
glyphname = "na-deva";
lastChange = "2021-08-22 03:02:32 +0000";
layers = (
{
anchors = (
{
name = bin;
pos = (664,1257);
},
{
name = bottom;
pos = (1028,-55);
},
{
name = nukta;
pos = (344,-86);
},
{
name = top;
pos = (1173,1257);
}
);
layerId = "81641B54-5DFF-4E7E-9A9F-73CB636BC82D";
shapes = (
{
closed = 1;
nodes = (
(-20,1123,l),
(1060,1123,l),
(1060,875,o),
(1060,722,o),
(1074,652,c),
(985,739,o),
(856,790,o),
(706,790,cs),
(580,790,o),
(463,771,o),
(347,722,c),
(344,722,l),
(292,790,o),
(237,831,o),
(205,831,cs),
(175,831,o),
(157,804,o),
(157,767,cs),
(157,755,o),
(173,724,o),
(212,702,c),
(238,661,l),
(237,661,l),
(167,615,o),
(116,553,o),
(116,473,cs),
(116,309,o),
(253,167,o),
(408,167,cs),
(497,167,o),
(553,256,o),
(553,364,cs),
(553,441,o),
(537,525,o),
(517,567,c),
(518,567,l),
(595,605,o),
(676,623,o),
(757,623,cs),
(849,623,o),
(955,596,o),
(1076,547,c),
(1076,483,o),
(1078,426,o),
(1078,347,cs),
(1078,193,o),
(1020,53,o),
(946,53,cs),
(926,53,o),
(909,35,o),
(909,4,cs),
(909,-55,o),
(1020,-110,o),
(1068,-110,cs),
(1173,-110,o),
(1216,43,o),
(1216,248,cs),
(1216,382,o),
(1216,860,o),
(1216,994,cs),
(1216,1107,o),
(1233,1123,o),
(1257,1123,cs),
(1474,1123,l),
(1474,1264,l),
(1272,1264,l),
(1227,1325,o),
(1171,1400,o),
(1128,1400,cs),
(1087,1400,o),
(1064,1341,o),
(1064,1264,c),
(-20,1264,l)
);
},
{
closed = 1;
nodes = (
(371,299,cs),
(313,299,o),
(274,352,o),
(274,418,cs),
(274,471,o),
(313,517,o),
(346,517,cs),
(406,517,o),
(454,463,o),
(454,406,cs),
(454,359,o),
(409,299,o)
);
}
);
width = 1454;
}
);
unicode = 2344;
},
{
glyphname = "pa-deva";
kernLeft = "pa-deva";
kernRight = "pa-deva";
lastChange = "2021-08-22 03:02:32 +0000";
layers = (
{
anchors = (
{
name = bin;
pos = (522,1257);
},
{
name = bottom;
pos = (895,-84);
},
{
name = nukta;
pos = (143,132);
},
{
name = top;
pos = (1078,1257);
}
);
layerId = "81641B54-5DFF-4E7E-9A9F-73CB636BC82D";
shapes = (
{
closed = 1;
nodes = (
(-20,1123,l),
(297,1123,l),
(205,990,o),
(153,822,o),
(153,639,cs),
(153,423,o),
(367,195,o),
(582,195,cs),
(684,195,o),
(805,240,o),
(958,337,c),
(958,183,o),
(903,49,o),
(826,49,cs),
(798,49,o),
(773,36,o),
(773,14,cs),
(773,-45,o),
(871,-149,o),
(936,-149,cs),
(1048,-149,o),
(1123,71,o),
(1123,311,cs),
(1123,437,o),
(1113,864,o),
(1113,987,cs),
(1113,1060,o),
(1118,1123,o),
(1154,1123,cs),
(1351,1123,l),
(1351,1264,l),
(1171,1264,l),
(1122,1345,o),
(1068,1400,o),
(1047,1400,cs),
(995,1400,o),
(968,1337,o),
(968,1264,c),
(-20,1264,l)
);
},
{
closed = 1;
nodes = (
(419,347,cs),
(349,347,o),
(289,421,o),
(289,517,cs),
(289,726,o),
(381,952,o),
(560,1123,c),
(960,1123,l),
(955,1057,o),
(950,940,o),
(950,767,cs),
(950,706,o),
(958,489,o),
(958,431,c),
(865,542,l),
(745,416,o),
(580,347,o)
);
}
);
width = 1331;
}
);
unicode = 2346;
},
{
glyphname = "pha-deva";
kernLeft = "pa-deva";
lastChange = "2021-08-22 03:02:32 +0000";
layers = (
{
anchors = (
{
name = bin;
pos = (483,1262);
},
{
name = bottom;
pos = (748,-70);
},
{
name = nukta;
pos = (262,56);
},
{
name = top;
pos = (917,1257);
}
);
layerId = "81641B54-5DFF-4E7E-9A9F-73CB636BC82D";
shapes = (
{
closed = 1;
nodes = (
(-29,1123,l),
(293,1123,l),
(193,987,o),
(142,859,o),
(142,710,cs),
(142,497,o),
(367,254,o),
(557,254,cs),
(625,254,o),
(706,299,o),
(792,371,c),
(800,342,o),
(802,307,o),
(802,277,cs),
(802,159,o),
(800,45,o),
(747,45,cs),
(706,45,o),
(689,40,o),
(689,26,cs),
(689,-33,o),
(786,-116,o),
(833,-116,cs),
(934,-116,o),
(968,49,o),
(968,254,cs),
(968,373,o),
(965,454,o),
(960,507,c),
(963,507,l),
(1030,557,o),
(1121,585,o),
(1192,585,cs),
(1320,585,o),
(1425,471,o),
(1425,347,cs),
(1425,225,o),
(1343,122,o),
(1236,95,c),
(1216,94,o),
(1192,81,o),
(1192,67,cs),
(1192,5,o),
(1272,-88,o),
(1312,-88,cs),
(1429,-88,o),
(1538,63,o),
(1538,215,cs),
(1538,472,o),
(1332,740,o),
(1129,740,cs),
(1083,740,o),
(1005,724,o),
(958,694,c),
(946,750,o),
(936,812,o),
(936,894,cs),
(936,1005,o),
(955,1057,o),
(975,1123,c),
(1600,1123,l),
(1600,1264,l),
(1035,1264,l),
(965,1367,o),
(938,1412,o),
(901,1412,cs),
(846,1412,o),
(805,1340,o),
(805,1264,c),
(-29,1264,l)
);
},
{
closed = 1;
nodes = (
(436,411,cs),
(347,411,o),
(292,489,o),
(292,582,cs),
(292,800,o),
(381,990,o),
(542,1123,c),
(781,1123,l),
(777,1094,o),
(769,1078,o),
(769,1005,cs),
(769,810,ls),
(769,732,o),
(777,655,o),
(792,590,c),
(661,476,o),
(542,411,o)
);
}
);
width = 1580;
}
);
unicode = 2347;
},
{
glyphname = "ba-deva";
lastChange = "2021-08-22 03:02:32 +0000";
layers = (
{
anchors = (
{
name = bin;
pos = (665,1257);
},
{
name = bottom;
pos = (918,-51);
},
{
name = nukta;
pos = (281,0);
},
{
name = top;
pos = (1057,1257);
}
);
layerId = "81641B54-5DFF-4E7E-9A9F-73CB636BC82D";
shapes = (
{
closed = 1;
nodes = (
(-20,1123,l),
(967,1123,l),
(967,922,o),
(975,734,o),
(985,521,c),
(957,544,l),
(912,511,l),
(852,743,o),
(673,905,o),
(478,905,cs),
(281,905,o),
(101,790,o),
(101,647,cs),
(101,439,o),
(339,222,o),
(534,222,cs),
(686,222,o),
(842,266,o),
(991,377,c),
(991,232,o),
(962,58,o),
(897,58,cs),
(858,58,o),
(817,41,o),
(817,9,cs),
(817,-44,o),
(941,-124,o),
(986,-124,cs),
(1079,-124,o),
(1131,98,o),
(1131,346,cs),
(1130,967,ls),
(1130,1064,o),
(1138,1123,o),
(1165,1123,cs),
(1364,1123,l),
(1364,1264,l),
(1156,1264,l),
(1094,1355,o),
(1062,1400,o),
(1039,1400,cs),
(980,1400,o),
(967,1340,o),
(967,1264,c),
(-20,1264,l)
);
},
{
closed = 1;
nodes = (
(421,378,cs),
(305,378,o),
(229,441,o),
(229,521,cs),
(229,598,o),
(314,712,o),
(453,732,c),
(487,626,o),
(527,499,o),
(557,394,c),
(518,387,o),
(478,378,o)
);
},
{
closed = 1;
nodes = (
(525,753,l),
(557,760,o),
(580,765,o),
(599,765,cs),
(694,765,o),
(806,645,o),
(866,491,c),
(784,461,o),
(708,437,o),
(637,421,c)
);
}
);
width = 1344;
}
);
unicode = 2348;
},
{
glyphname = "bha-deva";
lastChange = "2021-08-22 03:02:32 +0000";
layers = (
{
anchors = (
{
name = bin;
pos = (652,1257);
},
{
name = bottom;
pos = (1013,-60);
},
{
name = nukta;
pos = (392,0);
},
{
name = top;
pos = (1151,1257);
}
);
layerId = "81641B54-5DFF-4E7E-9A9F-73CB636BC82D";
shapes = (
{
closed = 1;
nodes = (
(70,1164,cs),
(70,1013,o),
(206,875,o),
(358,841,c),
(358,563,l),
(283,518,o),
(244,491,o),
(244,439,cs),
(244,368,o),
(338,228,o),
(421,228,cs),
(492,228,o),
(506,299,o),
(506,416,c),
(543,436,o),
(601,431,o),
(751,431,cs),
(943,431,o),
(1045,381,o),
(1045,322,cs),
(1045,187,o),
(974,63,o),
(907,63,c),
(876,36,l),
(876,-29,o),
(979,-120,o),
(1051,-120,cs),
(1133,-120,o),
(1192,88,o),
(1192,311,cs),
(1192,403,o),
(1172,724,o),
(1172,818,cs),
(1172,967,o),
(1184,1078,o),
(1222,1123,c),
(1402,1123,l),
(1402,1264,l),
(1263,1264,l),
(1220,1337,o),
(1168,1400,o),
(1133,1400,cs),
(1090,1400,o),
(1055,1341,o),
(1055,1264,c),
(862,1264,ls),
(826,1264,o),
(727,1302,o),
(699,1302,cs),
(642,1302,o),
(609,1268,o),
(609,1233,cs),
(609,1162,o),
(710,1070,o),
(752,1070,cs),
(803,1070,o),
(850,1123,o),
(945,1123,cs),
(1034,1123,l),
(1023,1070,o),
(1019,987,o),
(1019,860,cs),
(1019,771,o),
(1034,666,o),
(1055,567,c),
(979,596,o),
(900,610,o),
(710,610,cs),
(601,610,o),
(526,602,o),
(506,596,c),
(506,818,l),
(522,810,o),
(543,805,o),
(553,805,cs),
(574,805,o),
(586,833,o),
(586,874,cs),
(586,879,o),
(582,885,o),
(571,895,cs),
(528,932,ls),
(520,940,o),
(506,958,o),
(506,973,cs),
(506,1109,ls),
(506,1264,o),
(405,1388,o),
(277,1388,cs),
(159,1388,o),
(70,1286,o)
);
},
{
closed = 1;
nodes = (
(349,987,c),
(268,987,o),
(159,1047,o),
(159,1123,cs),
(159,1178,o),
(206,1206,o),
(233,1206,cs),
(303,1206,o),
(355,1157,o),
(355,1092,cs),
(355,1050,o),
(355,1009,o)
);
}
);
width = 1382;
}
);
unicode = 2349;
},
{
glyphname = "ma-deva";
lastChange = "2021-08-22 03:02:32 +0000";
layers = (
{
anchors = (
{
name = bin;
pos = (591,1267);
},
{
name = bottom;
pos = (928,-72);
},
{
name = nukta;
pos = (340,58);
},
{
name = top;
pos = (1044,1267);
}
);
guides = (
{
pos = (1048,1270);
}
);
layerId = "81641B54-5DFF-4E7E-9A9F-73CB636BC82D";
shapes = (
{
closed = 1;
nodes = (
(-31,1123,l),
(309,1123,l),
(284,1048,o),
(277,952,o),
(277,841,cs),
(277,726,o),
(282,649,o),
(297,596,c),
(223,567,o),
(181,542,o),
(181,478,cs),
(181,392,o),
(274,270,o),
(354,270,cs),
(423,270,o),
(439,324,o),
(439,456,c),
(525,495,o),
(625,497,o),
(691,497,cs),
(781,497,o),
(874,481,o),
(944,443,c),
(944,95,o),
(926,29,o),
(841,29,cs),
(820,29,o),
(810,10,o),
(810,-20,cs),
(810,-69,o),
(909,-120,o),
(983,-120,cs),
(1068,-120,o),
(1111,36,o),
(1111,208,cs),
(1111,342,o),
(1083,773,o),
(1083,899,cs),
(1083,1020,o),
(1094,1123,o),
(1128,1123,cs),
(1317,1123,l),
(1317,1264,l),
(1133,1264,l),
(1102,1307,o),
(1062,1400,o),
(1015,1400,cs),
(963,1400,o),
(938,1337,o),
(938,1264,c),
(-31,1264,l)
);
},
{
closed = 1;
nodes = (
(439,639,l),
(436,736,o),
(429,805,o),
(429,831,cs),
(429,999,o),
(456,1102,o),
(492,1123,c),
(938,1123,l),
(932,1070,o),
(932,1013,o),
(932,942,cs),
(932,833,o),
(940,739,o),
(946,633,c),
(846,671,o),
(767,678,o),
(706,678,cs),
(592,678,o),
(517,661,o),
(446,639,c)
);
}
);
width = 1297;
}
);
unicode = 2350;
},
{
glyphname = "ya-deva";
lastChange = "2021-08-22 03:02:32 +0000";
layers = (
{
anchors = (
{
name = bin;
pos = (677,1267);
},
{
name = bottom;
pos = (1017,-97);
},
{
name = nukta;
pos = (237,22);
},
{
name = top;
pos = (1151,1267);
}
);
layerId = "81641B54-5DFF-4E7E-9A9F-73CB636BC82D";
shapes = (
{
closed = 1;
nodes = (
(-20,1123,l),
(431,1123,l),
(448,1093,o),
(463,1060,o),
(463,1028,cs),
(463,913,o),
(411,841,o),
(326,841,cs),
(208,841,ls),
(163,841,o),
(134,818,o),
(134,777,cs),
(134,458,o),
(342,195,o),
(605,195,cs),
(745,195,o),
(899,287,o),
(1058,431,c),
(1060,409,o),
(1060,381,o),
(1060,363,cs),
(1060,192,o),
(1002,63,o),
(940,63,cs),
(899,63,o),
(871,45,o),
(871,14,cs),
(871,-49,o),
(983,-149,o),
(1054,-149,cs),
(1139,-149,o),
(1206,74,o),
(1206,322,cs),
(1206,427,o),
(1168,804,o),
(1168,916,cs),
(1168,999,o),
(1178,1089,o),
(1201,1123,c),
(1414,1123,l),
(1414,1264,l),
(1256,1264,l),
(1213,1337,o),
(1156,1400,o),
(1132,1400,cs),
(1080,1400,o),
(1035,1340,o),
(1035,1264,c),
(-20,1264,l)
);
},
{
closed = 1;
nodes = (
(517,347,c),
(371,347,o),
(240,468,o),
(240,590,cs),
(240,616,o),
(266,647,o),
(289,647,cs),
(367,647,ls),
(502,647,o),
(574,755,o),
(574,899,cs),
(574,977,o),
(552,1052,o),
(502,1123,c),
(1021,1123,l),
(1018,1102,o),
(1013,1040,o),
(1013,938,cs),
(1013,899,ls),
(1013,833,o),
(1031,607,o),
(1031,547,c),
(973,596,o),
(960,610,o),
(955,610,cs),
(944,607,o),
(771,441,o),
(691,399,cs),
(626,364,o),
(567,349,o)
);
}
);
width = 1394;
}
);
unicode = 2351;
},
{
glyphname = "ra-deva";
lastChange = "2021-08-22 03:02:32 +0000";
layers = (
{
anchors = (
{
name = bin;
pos = (413,1257);
},
{
name = bottom;
pos = (469,-114);
},
{
name = nukta;
pos = (63,126);
},
{
name = top;
pos = (612,1257);
}
);
layerId = "81641B54-5DFF-4E7E-9A9F-73CB636BC82D";
shapes = (
{
closed = 1;
nodes = (
(-20,1123,l),
(528,1123,l),
(528,1008,o),
(532,930,o),
(533,874,c),
(489,899,o),
(423,916,o),
(352,916,cs),
(240,916,o),
(134,812,o),
(134,678,cs),
(134,532,o),
(212,392,o),
(382,155,cs),
(557,-88,o),
(715,-213,o),
(786,-213,cs),
(805,-213,o),
(850,-183,o),
(850,-153,cs),
(850,-136,o),
(846,-130,o),
(834,-126,c),
(788,-95,ls),
(657,-8,o),
(521,132,o),
(399,329,c),
(421,324,o),
(439,324,o),
(461,324,cs),
(647,324,o),
(679,478,o),
(679,697,cs),
(679,1013,ls),
(679,1078,o),
(684,1123,o),
(712,1123,cs),
(940,1123,l),
(940,1264,l),
(702,1264,l),
(635,1360,o),
(607,1388,o),
(574,1388,cs),
(550,1388,o),
(521,1370,o),
(521,1264,c),
(-20,1264,l)
);
},
{
closed = 1;
nodes = (
(537,525,o),
(443,450,o),
(342,450,cs),
(309,450,o),
(273,515,o),
(273,565,cs),
(273,671,o),
(354,753,o),
(433,753,cs),
(456,753,o),
(501,739,o),
(537,710,c)
);
}
);
width = 920;
}
);
unicode = 2352;
},
{
glyphname = "la-deva";
lastChange = "2021-08-22 03:02:32 +0000";
layers = (
{
anchors = (
{
name = bin;
pos = (670,1267);
},
{
name = bottom;
pos = (1109,-76);
},
{
name = nukta;
pos = (111,-107);
},
{
name = top;
pos = (1237,1267);
}
);
layerId = "81641B54-5DFF-4E7E-9A9F-73CB636BC82D";
shapes = (
{
closed = 1;
nodes = (
(-29,1123,l),
(1126,1123,l),
(1121,1093,o),
(1114,1023,o),
(1114,884,cs),
(1114,860,l),
(1076,875,o),
(1020,885,o),
(967,885,cs),
(836,885,o),
(722,829,o),
(679,753,c),
(612,863,o),
(525,942,o),
(431,942,cs),
(256,942,o),
(96,773,o),
(96,567,cs),
(96,193,o),
(336,-80,o),
(660,-80,cs),
(671,-80,o),
(679,-51,o),
(679,-26,c),
(673,24,o),
(643,67,o),
(594,67,cs),
(419,67,o),
(236,208,o),
(236,454,cs),
(236,626,o),
(363,767,o),
(489,767,cs),
(533,767,o),
(588,732,o),
(633,694,c),
(635,694,l),
(596,651,o),
(585,610,o),
(585,585,cs),
(585,540,o),
(674,454,o),
(724,454,cs),
(724,454,o),
(747,454,o),
(747,489,cs),
(747,491,o),
(747,492,o),
(747,497,cs),
(767,619,o),
(881,722,o),
(973,722,cs),
(1093,722,o),
(1112,676,o),
(1112,607,cs),
(1112,248,o),
(1093,60,o),
(1020,60,cs),
(994,60,o),
(975,49,o),
(975,33,cs),
(975,-18,o),
(1084,-120,o),
(1138,-120,cs),
(1223,-120,o),
(1264,114,o),
(1266,374,cs),
(1268,916,ls),
(1268,1005,o),
(1272,1078,o),
(1291,1123,c),
(1480,1123,l),
(1480,1264,l),
(1328,1264,l),
(1283,1345,o),
(1238,1396,o),
(1213,1396,cs),
(1171,1396,o),
(1152,1343,o),
(1139,1264,c),
(-29,1264,l)
);
}
);
width = 1460;
}
);
unicode = 2354;
},
{
glyphname = "lla-deva";
lastChange = "2021-08-22 03:02:32 +0000";
layers = (
{
anchors = (
{
name = bin;
pos = (765,1268);
},
{
name = bottom;
pos = (805,-49);
},
{
name = nukta;
pos = (101,-111);
},
{
name = top;
pos = (1154,1267);
}
);
hints = (
{
place = (436.838, 0);
place = (436.838, 0);
type = Stem;
}
);
layerId = "81641B54-5DFF-4E7E-9A9F-73CB636BC82D";
shapes = (
{
closed = 1;
nodes = (
(-20,1123,l),
(1060,1123,l),
(1060,805,l),
(962,740,o),
(870,651,o),
(828,585,c),
(716,767,o),
(591,853,o),
(461,853,cs),
(258,853,o),
(101,676,o),
(101,456,cs),
(101,243,o),
(323,14,o),
(548,14,cs),
(651,14,o),
(765,149,o),
(883,337,c),
(990,532,o),
(1143,674,o),
(1204,674,cs),
(1296,674,o),
(1365,600,o),
(1365,517,cs),
(1365,344,o),
(1247,142,o),
(1035,142,cs),
(958,142,o),
(925,212,o),
(886,212,cs),
(863,212,o),
(845,203,o),
(845,163,cs),
(845,105,o),
(962,-2,o),
(1114,-2,cs),
(1317,-2,o),
(1500,187,o),
(1500,406,cs),
(1500,555,o),
(1367,736,o),
(1198,804,c),
(1198,1092,o),
(1211,1123,o),
(1226,1123,cs),
(1659,1123,l),
(1659,1264,l),
(1247,1264,l),
(1203,1332,o),
(1143,1390,o),
(1119,1390,cs),
(1080,1390,o),
(1060,1357,o),
(1060,1264,c),
(-20,1264,l)
);
},
{
closed = 1;
nodes = (
(506,689,cs),
(610,689,o),
(714,625,o),
(773,497,c),
(677,324,o),
(548,165,o),
(449,165,cs),
(325,165,o),
(220,244,o),
(220,344,cs),
(220,483,o),
(344,689,o)
);
}
);
width = 1639;
}
);
unicode = 2355;
},
{
glyphname = "va-deva";
lastChange = "2021-08-22 03:02:32 +0000";
layers = (
{
anchors = (
{
name = bin;
pos = (611,1267);
},
{
name = bottom;
pos = (916,-61);
},
{
name = nukta;
pos = (205,58);
},
{
name = top;
pos = (1057,1267);
}
);
layerId = "81641B54-5DFF-4E7E-9A9F-73CB636BC82D";
shapes = (
{
closed = 1;
nodes = (
(-33,1123,l),
(973,1123,l),
(973,497,l),
(944,528,l),
(895,497,l),
(849,732,o),
(674,916,o),
(468,916,cs),
(270,916,o),
(89,781,o),
(89,639,cs),
(89,423,o),
(303,208,o),
(511,208,cs),
(657,208,o),
(812,260,o),
(977,347,c),
(985,347,l),
(985,193,o),
(932,40,o),
(853,40,cs),
(833,40,o),
(808,29,o),
(808,12,cs),
(808,-41,o),
(913,-130,o),
(946,-130,cs),
(1058,-130,o),
(1133,74,o),
(1133,311,cs),
(1133,413,o),
(1112,773,o),
(1112,874,cs),
(1112,1094,o),
(1126,1123,o),
(1146,1123,cs),
(1361,1123,l),
(1361,1264,l),
(1149,1264,l),
(1094,1327,o),
(1057,1377,o),
(1028,1377,cs),
(977,1377,o),
(958,1337,o),
(958,1264,c),
(-33,1264,l)
);
},
{
closed = 1;
nodes = (
(443,374,cs),
(303,374,o),
(218,431,o),
(218,517,cs),
(218,661,o),
(359,732,o),
(550,732,cs),
(643,732,o),
(779,635,o),
(834,473,c),
(732,411,o),
(610,374,o)
);
}
);
width = 1341;
}
);
unicode = 2357;
},
{
glyphname = "sha-deva";
lastChange = "2021-08-22 03:02:32 +0000";
layers = (
{
anchors = (
{
name = bin;
pos = (829,1257);
},
{
name = bottom;
pos = (1248,-69);
},
{
name = nukta;
pos = (260,-151);
},
{
name = top;
pos = (1360,1257);
}
);
layerId = "81641B54-5DFF-4E7E-9A9F-73CB636BC82D";
shapes = (
{
closed = 1;
nodes = (
(198,397,cs),
(198,274,o),
(279,167,o),
(381,167,cs),
(406,167,o),
(433,183,o),
(481,183,c),
(580,98,o),
(712,-60,o),
(820,-222,cs),
(846,-258,o),
(881,-275,o),
(905,-275,cs),
(965,-275,o),
(993,-257,o),
(993,-232,cs),
(993,-181,o),
(864,8,o),
(570,256,c),
(668,346,o),
(751,489,o),
(808,678,c),
(874,686,o),
(934,716,o),
(934,753,cs),
(934,796,o),
(924,831,o),
(895,831,cs),
(885,831,o),
(836,805,o),
(829,805,c),
(829,1146,o),
(633,1400,o),
(433,1400,cs),
(315,1400,o),
(205,1282,o),
(205,1139,cs),
(205,940,o),
(384,760,o),
(641,710,c),
(615,605,o),
(565,505,o),
(473,406,c),
(391,489,o),
(346,499,o),
(287,499,cs),
(225,499,o),
(198,454,o)
);
},
{
closed = 1;
nodes = (
(661,796,c),
(495,829,o),
(356,944,o),
(356,1066,cs),
(356,1162,o),
(433,1233,o),
(525,1233,cs),
(610,1233,o),
(684,1139,o),
(684,1028,cs),
(684,909,o),
(676,825,o)
);
},
{
closed = 1;
nodes = (
(1257,-120,cs),
(1340,-120,o),
(1394,89,o),
(1394,322,cs),
(1394,860,ls),
(1394,987,o),
(1408,1076,o),
(1435,1123,c),
(1685,1123,l),
(1685,1264,l),
(1470,1264,l),
(1435,1309,ls),
(1386,1372,o),
(1360,1400,o),
(1347,1400,cs),
(1309,1400,o),
(1278,1343,o),
(1264,1264,c),
(1133,1264,ls),
(1094,1264,o),
(999,1286,o),
(965,1286,cs),
(938,1286,o),
(904,1266,o),
(904,1233,cs),
(904,1168,o),
(977,1052,o),
(1028,1052,cs),
(1066,1052,o),
(1149,1123,o),
(1184,1123,cs),
(1252,1123,l),
(1236,1076,o),
(1227,973,o),
(1227,818,cs),
(1227,751,o),
(1243,497,o),
(1243,431,cs),
(1243,228,o),
(1178,63,o),
(1117,63,cs),
(1102,63,o),
(1083,60,o),
(1083,49,cs),
(1083,-10,o),
(1211,-120,o)
);
}
);
width = 1665;
}
);
unicode = 2358;
},
{
glyphname = "ssa-deva";
kernLeft = "pa-deva";
lastChange = "2021-08-22 03:02:32 +0000";
layers = (
{
anchors = (
{
name = bin;
pos = (655,1257);
},
{
name = bottom;
pos = (904,-71);
},
{
name = nukta;
pos = (170,-43);
},
{
name = top;
pos = (1028,1261);
}
);
layerId = "81641B54-5DFF-4E7E-9A9F-73CB636BC82D";
shapes = (
{
closed = 1;
nodes = (
(-20,1123,l),
(326,1123,l),
(215,1021,o),
(153,841,o),
(153,661,cs),
(153,454,o),
(374,167,o),
(563,167,cs),
(684,167,o),
(815,229,o),
(958,364,c),
(958,205,o),
(899,53,o),
(805,53,cs),
(788,53,o),
(777,40,o),
(777,25,cs),
(777,-49,o),
(885,-120,o),
(965,-120,cs),
(1050,-120,o),
(1102,89,o),
(1102,311,cs),
(1102,418,o),
(1084,790,o),
(1084,899,cs),
(1084,1070,o),
(1097,1123,o),
(1114,1123,cs),
(1330,1123,l),
(1330,1264,l),
(1119,1264,l),
(1068,1332,o),
(1028,1400,o),
(993,1400,cs),
(942,1400,o),
(928,1340,o),
(928,1264,c),
(-20,1264,l)
);
},
{
closed = 1;
nodes = (
(454,337,cs),
(354,337,o),
(277,421,o),
(277,532,cs),
(277,664,o),
(346,839,o),
(476,1028,c),
(486,1028,l),
(868,517,l),
(729,400,o),
(580,337,o)
);
},
{
closed = 1;
nodes = (
(537,1123,l),
(928,1123,l),
(926,1107,o),
(926,1080,o),
(926,1048,cs),
(926,909,o),
(936,664,o),
(958,578,c),
(946,567,l)
);
}
);
width = 1310;
}
);
unicode = 2359;
},
{
glyphname = "sa-deva";
lastChange = "2021-08-22 03:02:32 +0000";
layers = (
{
anchors = (
{
name = bin;
pos = (863,1257);
},
{
name = bottom;
pos = (1170,-62);
},
{
name = nukta;
pos = (172,58);
},
{
name = top;
pos = (1320,1257);
}
);
layerId = "81641B54-5DFF-4E7E-9A9F-73CB636BC82D";
shapes = (
{
closed = 1;
nodes = (
(-20,1123,l),
(535,1123,l),
(544,1066,o),
(547,1008,o),
(547,932,cs),
(547,874,l),
(542,874,l),
(501,899,o),
(450,916,o),
(392,916,cs),
(248,916,o),
(134,790,o),
(134,652,cs),
(134,578,o),
(190,456,o),
(273,364,cs),
(693,-101,ls),
(700,-109,o),
(706,-119,o),
(708,-119,c),
(710,-119,l),
(753,-119,o),
(796,-72,o),
(796,-29,cs),
(796,41,o),
(630,141,o),
(512,248,c),
(413,337,l),
(472,337,ls),
(567,337,o),
(660,418,o),
(686,532,c),
(688,532,l),
(767,578,o),
(866,596,o),
(973,596,cs),
(1035,596,o),
(1121,578,o),
(1226,532,c),
(1227,532,l),
(1233,502,o),
(1238,448,o),
(1238,374,cs),
(1238,210,o),
(1196,57,o),
(1114,57,cs),
(1097,57,o),
(1076,45,o),
(1076,29,cs),
(1076,-76,o),
(1178,-120,o),
(1248,-120,cs),
(1330,-120,o),
(1372,63,o),
(1372,268,cs),
(1372,1003,ls),
(1372,1107,o),
(1398,1123,o),
(1421,1123,cs),
(1611,1123,l),
(1611,1264,l),
(1426,1264,l),
(1372,1332,o),
(1327,1396,o),
(1283,1396,cs),
(1243,1396,o),
(1216,1357,o),
(1216,1264,c),
(724,1264,l),
(655,1355,o),
(633,1396,o),
(582,1396,cs),
(555,1396,o),
(525,1361,o),
(525,1264,c),
(-20,1264,l)
);
},
{
closed = 1;
nodes = (
(326,473,c),
(293,481,o),
(266,505,o),
(266,532,cs),
(266,639,o),
(339,740,o),
(427,740,cs),
(439,740,o),
(471,736,o),
(489,732,c),
(547,705,l),
(521,574,o),
(413,473,o)
);
},
{
closed = 1;
nodes = (
(688,987,ls),
(688,1033,o),
(688,1099,o),
(712,1123,c),
(1216,1123,l),
(1219,1013,o),
(1226,765,o),
(1227,710,c),
(1117,757,o),
(1030,777,o),
(963,777,cs),
(850,777,o),
(753,767,o),
(688,732,c)
);
}
);
width = 1591;
}
);
unicode = 2360;
},
{
glyphname = "ha-deva";
lastChange = "2021-08-22 03:02:32 +0000";
layers = (
{
anchors = (
{
name = bin;
pos = (628,1257);
},
{
name = bottom;
pos = (897,-330);
},
{
name = nukta;
pos = (97,-325);
},
{
name = top;
pos = (915,1257);
}
);
layerId = "81641B54-5DFF-4E7E-9A9F-73CB636BC82D";
shapes = (
{
closed = 1;
nodes = (
(-40,1123,l),
(826,1123,l),
(826,954,o),
(825,905,o),
(745,905,cs),
(692,905,o),
(504,937,o),
(438,937,cs),
(291,937,o),
(177,854,o),
(177,755,cs),
(177,655,o),
(279,545,o),
(398,507,c),
(238,445,o),
(122,318,o),
(122,182,cs),
(122,-99,o),
(501,-335,o),
(943,-335,cs),
(1033,-335,o),
(1115,-285,o),
(1115,-209,cs),
(1115,-174,o),
(1080,-141,o),
(1033,-141,cs),
(970,-141,o),
(787,-190,o),
(738,-190,cs),
(494,-190,o),
(275,-58,o),
(275,105,cs),
(275,279,o),
(511,423,o),
(847,423,cs),
(917,423,o),
(975,376,o),
(975,314,cs),
(975,182,o),
(819,117,o),
(563,117,c),
(602,17,o),
(703,-42,o),
(832,-42,cs),
(977,-42,o),
(1094,74,o),
(1094,218,cs),
(1094,418,o),
(894,573,o),
(669,573,cs),
(623,573,o),
(554,565,o),
(474,546,c),
(473,546,l),
(408,571,o),
(353,611,o),
(353,660,cs),
(353,725,o),
(428,768,o),
(509,768,cs),
(570,768,o),
(822,746,o),
(888,746,cs),
(958,746,o),
(1001,799,o),
(1001,849,cs),
(1001,878,o),
(976,975,o),
(976,1052,cs),
(976,1092,o),
(977,1123,o),
(996,1123,cs),
(1295,1123,l),
(1295,1264,l),
(996,1264,l),
(961,1325,o),
(907,1372,o),
(880,1372,cs),
(846,1372,o),
(819,1320,o),
(819,1264,c),
(-40,1264,l)
);
}
);
width = 1275;
}
);
unicode = 2361;
},
{
glyphname = "jjya-deva";
lastChange = "2021-08-22 03:02:32 +0000";
layers = (
{
anchors = (
{
name = bin;
pos = (684,1257);
},
{
name = bottom;
pos = (983,-79);
},
{
name = nukta;
pos = (284,0);
},
{
name = top;
pos = (1149,1257);
}
);
layerId = "81641B54-5DFF-4E7E-9A9F-73CB636BC82D";
shapes = (
{
closed = 1;
nodes = (
(517,347,cs),
(371,347,o),
(240,473,o),
(240,596,cs),
(240,623,o),
(266,652,o),
(289,652,cs),
(352,652,ls),
(426,652,o),
(491,674,o),
(537,719,c),
(633,645,o),
(736,567,o),
(829,492,c),
(729,418,o),
(596,347,o)
);
},
{
closed = 1;
nodes = (
(580,805,l),
(586,825,o),
(586,846,o),
(586,874,cs),
(586,952,o),
(555,1040,o),
(502,1123,c),
(1021,1123,l),
(1009,1102,o),
(1005,1040,o),
(1005,938,cs),
(1005,899,ls),
(1005,833,o),
(1031,607,o),
(1031,547,c),
(973,596,o),
(960,610,o),
(955,610,cs),
(942,610,o),
(920,592,o),
(899,565,c)
);
},
{
closed = 1;
nodes = (
(1233,1264,l),
(1188,1345,o),
(1144,1396,o),
(1117,1396,cs),
(1078,1396,o),
(1060,1343,o),
(1048,1264,c),
(-5,1264,l),
(-5,1123,l),
(431,1123,l),
(448,1093,o),
(463,1060,o),
(463,1028,cs),
(463,913,o),
(411,841,o),
(326,841,cs),
(208,841,ls),
(163,841,o),
(134,818,o),
(134,777,cs),
(134,458,o),
(342,177,o),
(605,177,cs),
(745,177,o),
(907,273,o),
(1060,416,c),
(1060,408,o),
(1060,400,o),
(1060,394,cs),
(1060,210,o),
(1009,63,o),
(940,63,cs),
(899,63,o),
(871,45,o),
(871,14,cs),
(871,-49,o),
(983,-149,o),
(1054,-149,cs),
(1139,-149,o),
(1206,74,o),
(1206,322,cs),
(1206,427,o),
(1168,804,o),
(1168,916,cs),
(1168,999,o),
(1188,1083,o),
(1216,1123,c),
(1425,1123,l),
(1425,1264,l)
);
}
);
width = 1405;
}
);
unicode = 2426;
},
{
glyphname = "la-deva.loclMAR";
lastChange = "2021-08-22 03:02:32 +0000";
layers = (
{
anchors = (
{
name = bin;
pos = (663,1257);
},
{
name = bottom;
pos = (1097,68);
},
{
name = nukta;
pos = (126,-105);
},
{
name = top;
pos = (906,1258);
}
);
layerId = "81641B54-5DFF-4E7E-9A9F-73CB636BC82D";
shapes = (
{
closed = 1;
nodes = (
(-5,1123,l),
(818,1123,l),
(829,1093,o),
(833,1047,o),
(833,973,cs),
(833,881,o),
(777,788,o),
(697,722,c),
(691,722,l),
(660,846,o),
(557,942,o),
(456,942,cs),
(268,942,o),
(126,760,o),
(126,547,cs),
(126,175,o),
(352,-37,o),
(648,-37,cs),
(667,-37,o),
(680,-13,o),
(680,16,c),
(674,60,o),
(641,97,o),
(597,97,cs),
(441,97,o),
(270,175,o),
(270,431,cs),
(270,607,o),
(373,753,o),
(501,753,cs),
(540,753,o),
(610,716,o),
(651,661,c),
(621,623,o),
(607,585,o),
(607,557,cs),
(607,511,o),
(678,418,o),
(724,418,cs),
(739,418,o),
(745,431,o),
(750,454,cs),
(783,595,o),
(894,694,o),
(999,694,cs),
(1093,694,o),
(1171,605,o),
(1171,497,cs),
(1171,359,o),
(1093,232,o),
(946,232,cs),
(922,232,o),
(897,248,o),
(874,248,cs),
(853,248,o),
(833,229,o),
(833,208,cs),
(833,159,o),
(934,49,o),
(968,49,cs),
(1157,49,o),
(1328,205,o),
(1328,418,cs),
(1328,623,o),
(1154,804,o),
(955,841,cs),
(949,841,l),
(968,891,o),
(973,967,o),
(973,1052,cs),
(973,1092,o),
(987,1123,o),
(1013,1123,cs),
(1474,1123,l),
(1474,1264,l),
(1020,1264,l),
(942,1347,o),
(930,1398,o),
(874,1398,cs),
(841,1398,o),
(818,1363,o),
(818,1312,cs),
(818,1264,l),
(-5,1264,l)
);
}
);
width = 1454;
}
);
},
{
glyphname = "sha-deva.loclMAR";
lastChange = "2021-08-22 03:02:32 +0000";
layers = (
{
anchors = (
{
name = bin;
pos = (607,1262);
},
{
name = bottom;
pos = (1069,-70);
},
{
name = nukta;
pos = (154,-542);
},
{
name = top;
pos = (1147,1257);
}
);
layerId = "81641B54-5DFF-4E7E-9A9F-73CB636BC82D";
shapes = (
{
closed = 1;
nodes = (
(772,1123,l),
(1058,1123,l),
(1058,283,ls),
(1058,157,o),
(1014,49,o),
(940,49,cs),
(920,49,o),
(893,36,o),
(893,14,cs),
(893,-29,o),
(1011,-120,o),
(1054,-120,cs),
(1134,-120,o),
(1212,-2,o),
(1212,142,cs),
(1212,955,ls),
(1212,1050,o),
(1252,1123,o),
(1292,1123,cs),
(1437,1123,l),
(1437,1264,l),
(1289,1264,l),
(1171,1367,ls),
(1139,1396,o),
(1120,1396,o),
(1110,1400,c),
(1070,1400,o),
(1031,1367,o),
(1031,1312,cs),
(1031,1264,l),
(772,1264,l)
);
},
{
ref = "sh-deva.loclMAR";
}
);
width = 1417;
}
);
metricLeft = "sh-deva.loclMAR";
metricRight = "aaMatra-deva";
},
{
glyphname = "jha-deva.np";
lastChange = "2021-08-22 03:02:32 +0000";
layers = (
{
anchors = (
{
name = bin;
pos = (696,1257);
},
{
name = bottom;
pos = (970,-49);
},
{
name = nukta;
pos = (160,58);
},
{
name = top;
pos = (1142,1257);
}
);
layerId = "81641B54-5DFF-4E7E-9A9F-73CB636BC82D";
shapes = (
{
closed = 1;
nodes = (
(139,1388,o),
(50,1286,o),
(50,1164,cs),
(50,1013,o),
(186,875,o),
(338,841,c),
(338,563,l),
(263,518,o),
(224,491,o),
(224,439,cs),
(224,368,o),
(318,228,o),
(401,228,cs),
(472,228,o),
(486,299,o),
(486,416,c),
(523,436,o),
(581,431,o),
(731,431,cs),
(923,431,o),
(1025,381,o),
(1025,322,cs),
(1025,187,o),
(954,63,o),
(887,63,c),
(856,36,l),
(856,-29,o),
(959,-120,o),
(1031,-120,cs),
(1113,-120,o),
(1172,88,o),
(1172,311,cs),
(1172,403,o),
(1152,724,o),
(1152,818,cs),
(1152,967,o),
(1144,1078,o),
(1182,1123,c),
(1797,1123,l),
(1797,1264,l),
(1223,1264,l),
(1180,1337,o),
(1128,1400,o),
(1093,1400,cs),
(1050,1400,o),
(1015,1341,o),
(1015,1264,c),
(842,1264,ls),
(806,1264,o),
(707,1302,o),
(679,1302,cs),
(622,1302,o),
(589,1268,o),
(589,1233,cs),
(589,1162,o),
(690,1070,o),
(732,1070,cs),
(783,1070,o),
(830,1123,o),
(925,1123,cs),
(994,1123,l),
(983,1070,o),
(999,987,o),
(999,860,cs),
(999,771,o),
(1014,666,o),
(1035,567,c),
(959,596,o),
(880,610,o),
(690,610,cs),
(581,610,o),
(506,602,o),
(486,596,c),
(486,818,l),
(502,810,o),
(523,805,o),
(533,805,cs),
(554,805,o),
(566,833,o),
(566,874,cs),
(566,879,o),
(562,885,o),
(551,895,cs),
(508,932,ls),
(500,940,o),
(486,958,o),
(486,973,cs),
(486,1109,ls),
(486,1264,o),
(385,1388,o),
(257,1388,cs)
);
},
{
closed = 1;
nodes = (
(335,1050,o),
(335,1009,o),
(329,987,c),
(248,987,o),
(139,1047,o),
(139,1123,cs),
(139,1178,o),
(186,1206,o),
(213,1206,cs),
(283,1206,o),
(335,1157,o),
(335,1092,cs)
);
},
{
closed = 1;
nodes = (
(1140,547,l),
(1220,595,o),
(1392,639,o),
(1500,639,cs),
(1571,639,o),
(1630,582,o),
(1630,497,cs),
(1630,359,o),
(1534,232,o),
(1404,232,cs),
(1379,232,o),
(1355,218,o),
(1355,195,cs),
(1355,183,o),
(1364,160,o),
(1377,149,c),
(1448,76,l),
(1605,76,o),
(1746,203,o),
(1746,364,cs),
(1746,540,o),
(1537,805,o),
(1385,805,cs),
(1313,805,o),
(1183,778,o),
(1145,757,c)
);
}
);
width = 1777;
}
);
},
{
glyphname = "zha-deva.np";
lastChange = "2021-08-22 03:02:32 +0000";
layers = (
{
anchors = (
{
name = bin;
pos = (385,1262);
},
{
name = top;
pos = (804,1262);
}
);
layerId = "81641B54-5DFF-4E7E-9A9F-73CB636BC82D";
shapes = (
{
closed = 1;
nodes = (
(961,-561,o),
(1006,-640,o),
(1039,-640,cs),
(1073,-640,o),
(1098,-615,o),
(1098,-573,cs),
(1098,-570,o),
(1095,-565,o),
(1091,-559,cs),
(981,-408,l),
(967,-385,o),
(954,-365,o),
(948,-354,c),
(950,-354,l),
(1085,-282,o),
(1182,-121,o),
(1182,51,cs),
(1182,168,o),
(1150,300,o),
(1073,392,c),
(1074,392,l),
(840,579,o),
(637,549,o),
(496,467,cs),
(444,437,o),
(553,281,o),
(578,281,cs),
(582,281,o),
(596,294,o),
(622,310,cs),
(637,324,ls),
(703,371,o),
(756,392,o),
(804,392,cs),
(959,392,o),
(1067,279,o),
(1067,145,cs),
(1067,-13,o),
(971,-157,o),
(840,-185,cs),
(837,-185,l),
(729,11,o),
(587,132,o),
(491,132,cs),
(406,132,o),
(348,53,o),
(348,-54,cs),
(348,-237,o),
(527,-396,o),
(740,-396,cs),
(767,-396,o),
(794,-390,o),
(840,-381,cs),
(845,-381,l),
(857,-391,o),
(865,-412,o),
(875,-425,c)
);
},
{
closed = 1;
nodes = (
(578,-223,o),
(442,-154,o),
(442,-64,cs),
(442,-30,o),
(484,-3,o),
(515,-3,cs),
(560,-3,o),
(655,-93,o),
(756,-223,c),
(754,-223,l)
);
},
{
closed = 1;
nodes = (
(130,324,o),
(170,247,o),
(401,247,cs),
(576,247,o),
(718,498,o),
(718,790,cs),
(718,936,o),
(726,1033,o),
(693,1123,c),
(1233,1123,l),
(1233,1264,l),
(-20,1264,l),
(-20,1123,l),
(522,1123,l),
(556,1072,o),
(563,1020,o),
(563,898,cs),
(563,643,o),
(479,417,o),
(318,417,cs),
(203,417,o),
(134,482,o),
(114,535,c),
(29,444,l)
);
}
);
width = 1213;
}
);
},
{
glyphname = "ya-deva.post";
lastChange = "2021-08-22 03:02:32 +0000";
layers = (
{
anchors = (
{
name = bin;
pos = (540,1257);
},
{
name = bottom;
pos = (1041,-112);
},
{
name = top;
pos = (1138,1257);
}
);
layerId = "81641B54-5DFF-4E7E-9A9F-73CB636BC82D";
shapes = (
{
closed = 1;
nodes = (
(1220,1264,l),
(1161,1347,o),
(1124,1394,o),
(1081,1394,cs),
(1058,1394,o),
(1038,1355,o),
(1038,1264,c),
(-161,1264,l),
(-161,1123,l),
(1038,1123,l),
(1038,973,ls),
(1038,875,o),
(1074,563,o),
(1074,473,cs),
(1074,436,o),
(1071,391,o),
(1061,347,c),
(1054,347,l),
(984,413,l),
(864,232,o),
(682,142,o),
(493,142,cs),
(328,142,o),
(181,200,o),
(181,283,cs),
(181,311,o),
(238,337,o),
(311,337,cs),
(531,337,o),
(738,473,o),
(738,652,cs),
(738,798,o),
(572,958,o),
(388,958,cs),
(197,958,o),
(-164,949,o),
(-231,940,c),
(-231,790,l),
(-166,802,o),
(164,808,o),
(388,808,cs),
(521,808,o),
(576,716,o),
(576,652,cs),
(576,574,o),
(403,489,o),
(238,489,cs),
(63,489,ls),
(49,489,o),
(23,463,o),
(23,431,cs),
(23,210,o),
(306,-12,o),
(561,-12,cs),
(764,-12,o),
(932,60,o),
(1041,183,c),
(1046,183,l),
(1044,119,o),
(1009,53,o),
(964,-2,c),
(962,-2,ls),
(940,-5,o),
(920,-12,o),
(920,-39,cs),
(920,-84,o),
(1024,-149,o),
(1089,-149,cs),
(1170,-149,o),
(1242,53,o),
(1242,222,cs),
(1242,359,o),
(1215,790,o),
(1215,916,cs),
(1215,1028,o),
(1242,1123,o),
(1282,1123,cs),
(1447,1123,l),
(1447,1264,l)
);
}
);
width = 1427;
}
);
},
{
glyphname = "va-deva.post";
lastChange = "2021-08-22 03:02:32 +0000";
layers = (
{
anchors = (
{
name = bottom;
pos = (612,33);
},
{
name = top;
pos = (603,1257);
}
);
layerId = "81641B54-5DFF-4E7E-9A9F-73CB636BC82D";
shapes = (
{
closed = 1;
nodes = (
(1060,1123,l),
(1060,1264,l),
(-26,1264,l),
(-26,1123,l)
);
},
{
closed = 1;
nodes = (
(540,208,cs),
(684,208,o),
(879,260,o),
(1047,347,c),
(1047,499,l),
(1003,528,l),
(916,497,l),
(877,732,o),
(702,916,o),
(497,916,cs),
(299,916,o),
(116,781,o),
(116,639,cs),
(116,423,o),
(329,208,o)
);
},
{
closed = 1;
nodes = (
(472,374,cs),
(329,374,o),
(247,431,o),
(247,517,cs),
(247,661,o),
(371,732,o),
(626,732,cs),
(716,732,o),
(808,635,o),
(863,473,c),
(860,473,l),
(757,411,o),
(639,374,o)
);
}
);
width = 1040;
}
);
},
{
glyphname = "na-deva.post2";
lastChange = "2021-08-22 03:02:32 +0000";
layers = (
{
layerId = "81641B54-5DFF-4E7E-9A9F-73CB636BC82D";
shapes = (
{
closed = 1;
nodes = (
(-385,-275,o),
(-224,-310,o),
(-118,-236,cs),
(-56,-193,o),
(-59,-102,o),
(-112,-27,cs),
(-149,27,o),
(-199,78,o),
(-237,96,c),
(-235,97,l),
(-197,163,o),
(-141,221,o),
(-48,296,cs),
(16,347,o),
(134,395,o),
(244,422,c),
(192,497,l),
(92,514,o),
(-66,456,o),
(-183,374,cs),
(-273,313,o),
(-372,213,o),
(-430,121,c),
(-433,119,l),
(-504,140,o),
(-560,143,o),
(-583,128,cs),
(-602,114,o),
(-605,84,o),
(-588,58,cs),
(-581,50,o),
(-553,37,o),
(-517,41,c),
(-476,26,l),
(-477,25,l),
(-502,-40,o),
(-504,-105,o),
(-465,-161,cs)
);
},
{
closed = 1;
nodes = (
(-178,-79,o),
(-180,-142,o),
(-210,-163,cs),
(-242,-186,o),
(-300,-170,o),
(-331,-125,cs),
(-358,-89,o),
(-348,-34,o),
(-330,-21,cs),
(-292,6,o),
(-228,-7,o),
(-201,-47,cs)
);
}
);
width = 210;
}
);
},
